<svg viewBox="0 0 47.0747 21.8881" xmlns="http://www.w3.org/2000/svg"><path d="m16.2122 9.2884c.3359-.9684 1.2955-2.1284 3.9678-4.5584 2.0081-1.8258 2.9275-2.9937 10.7011-3.7726 6.182-.6193 8.4689-.0381 12.8758 3.6544 4.1989 3.5185 3.2355 9.145-2.7986 12.4987s-7.2233 2.952-10.496 3.7328a9.8165 9.8165 0 0 1 -7.4723-1.1619c-2.0057-1.0481-4.2972-2.2635-5.3036-3.4476-.9855-1.159-2.0907-5.1686-1.4742-6.9454z" fill="#c68463"/><path d="m28.0755 21.8881a11.2963 11.2963 0 0 1 -5.4336-1.542c-2.4058-1.2578-4.4825-2.3985-5.5274-3.626-1.1152-1.3125-2.3315-5.6016-1.6108-7.6777.4018-1.1582 1.4936-2.4327 4.1719-4.8672l.2836-.26c1.9292-1.7693 3.2037-2.9383 10.8472-3.7039 6.4414-.6465 8.95.0713 13.4321 3.8252a7.2185 7.2185 0 0 1 2.8052 6.2822c-.2729 2.8643-2.3584 5.5791-5.7212 7.4473-4.8271 2.6826-6.6728 3.0254-8.81 3.4219-.5752.1064-1.1773.2177-1.876.3847a10.9569 10.9569 0 0 1 -2.561.3155zm6.3632-20.3936c-1.0117 0-2.1508.0762-3.4829.209-7.1469.7168-8.2143 1.6953-9.9824 3.3174l-.2891.2637c-2.4067 2.1884-3.4619 3.38-3.7636 4.25-.5147 1.4824.5171 5.249 1.3369 6.2138.94 1.1055 3.3325 2.3555 5.0791 3.2676a9.1011 9.1011 0 0 0 6.9512 1.0977c.727-.1729 1.3525-.29 1.9506-.4 2.0909-.3877 3.7422-.6944 8.3555-3.2578 2.9243-1.626 4.731-3.9141 4.9566-6.2793a5.7616 5.7616 0 0 0 -2.2754-4.9893c-3.2632-2.7358-5.2427-3.6928-8.8365-3.6928z" fill="#3a3939"/><circle cx="42.7262" cy="13.1884" fill="#d8bda3" r=".2166"/><path d="m42.7263 13.53a.3413.3413 0 1 1 .3413-.3409.3421.3421 0 0 1 -.3413.3409zm0-.4326a.0913.0913 0 1 0 .0913.0917.0917.0917 0 0 0 -.0913-.092z" fill="#3a3939"/><circle cx="40.3931" cy="14.1939" fill="#d8bda3" r=".2166"/><path d="m40.3928 14.5355a.3418.3418 0 1 1 .3418-.3418.3421.3421 0 0 1 -.3418.3418zm0-.4336a.0918.0918 0 1 0 .0918.0918.0916.0916 0 0 0 -.0918-.0918z" fill="#3a3939"/><circle cx="41.0317" cy="12.0787" fill="#d8bda3" r=".2166"/><path d="m41.0315 12.42a.3418.3418 0 1 1 .3418-.3418.342.342 0 0 1 -.3418.3418zm0-.4336a.0918.0918 0 1 0 .0918.0918.0916.0916 0 0 0 -.0918-.0915z" fill="#3a3939"/><circle cx="26.5798" cy="18.7281" fill="#d8bda3" r=".2166"/><path d="m26.58 19.07a.3418.3418 0 1 1 .3413-.3418.3421.3421 0 0 1 -.3413.3418zm0-.4336a.0918.0918 0 1 0 .0913.0918.0917.0917 0 0 0 -.0913-.0921z" fill="#3a3939"/><circle cx="17.7897" cy="10.1348" fill="#d8bda3" r=".2166"/><path d="m17.79 10.476a.3414.3414 0 1 1 .3413-.3409.342.342 0 0 1 -.3413.3409zm0-.4327a.0914.0914 0 1 0 .0913.0918.0917.0917 0 0 0 -.0913-.0918z" fill="#3a3939"/><circle cx="25.1306" cy="17.3331" fill="#d8bda3" r=".2166"/><path d="m25.1306 17.6752a.3418.3418 0 1 1 .3413-.3418.3422.3422 0 0 1 -.3413.3418zm0-.4336a.0918.0918 0 1 0 .0913.0918.0917.0917 0 0 0 -.0913-.0918z" fill="#3a3939"/><circle cx="43.2708" cy="11.2818" fill="#d8bda3" r=".2166"/><path d="m43.2708 11.6234a.3418.3418 0 1 1 .3413-.3418.3421.3421 0 0 1 -.3413.3418zm0-.4336a.0918.0918 0 1 0 .0913.0918.0917.0917 0 0 0 -.0913-.0916z" fill="#3a3939"/><circle cx="43.4873" cy="9.2884" fill="#d8bda3" r=".2166"/><path d="m43.4871 9.63a.3418.3418 0 1 1 .3418-.3418.3421.3421 0 0 1 -.3418.3418zm0-.4336a.0918.0918 0 1 0 .0918.0918.0916.0916 0 0 0 -.0918-.0915z" fill="#3a3939"/><path d="m42.7268 7.2221a.4988.4988 0 0 1 -.3965-.1954 5.4027 5.4027 0 0 0 -2.3012-1.8667.5.5 0 0 1 .292-.9561 6.2249 6.2249 0 0 1 2.8012 2.2139.4995.4995 0 0 1 -.3955.8047z" fill="#3a3939"/><path d="m4.1619 5.0461c-.1366.0916-4.52 1.6716-3.1423 6.0077s11.3221 12.658 18.192 8.96 3.3143-8.9238 3.0484-9.3857c-1.5079-2.6181-7.8056-5.421-8.5744-5.8017-.8965-.4439-5.6891-2.3503-9.5237.2197z" fill="#e5c689"/><path d="m15.4046 21.6859a13.0071 13.0071 0 0 1 -4.8628-1.0342c-4.9839-2.0175-9.3169-6.4746-10.2368-9.3701-.941-2.9609.3188-5.4668 3.4565-6.876l-.0171.0176c4.543-3.0469 10.2173-.2969 10.2744-.2685l.3032.1445c4.773 2.2607 7.5821 4.208 8.5879 5.9551a6.9915 6.9915 0 0 1 1.05 5.5937c-.52 1.9131-1.9975 3.5371-4.393 4.8262a8.6726 8.6726 0 0 1 -4.1623 1.0117zm-10.8246-16.0166a1.5756 1.5756 0 0 1 -.2041.1055c-1.6959.7607-3.5299 2.2558-2.6413 5.0517.8 2.52 4.8453 6.6026 9.37 8.4346 2.062.836 5.0815 1.5293 7.7514.0928 2.0191-1.0869 3.249-2.3984 3.6563-3.8984a5.4731 5.4731 0 0 0 -.8472-4.36c-.0029-.0059-.0522-.0879-.0557-.0928-.5747-.998-2.4174-2.7373-7.93-5.3476l-.3272-.1563c-.0482-.0248-4.9403-2.3988-8.7722.1705z" fill="#3a3939"/><circle cx="11.2254" cy="17.3478" fill="#c68463" r=".2166"/><path d="m11.2259 17.69a.3863.3863 0 0 1 -.0582-.0049.3417.3417 0 0 1 -.2783-.3974.3357.3357 0 0 1 .14-.2188.3427.3427 0 0 1 .4751.0821.3421.3421 0 0 1 -.0821.4755.3339.3339 0 0 1 -.1965.0635zm0-.4336a.0949.0949 0 0 0 -.0523.0166.09.09 0 0 0 -.0376.0586.0936.0936 0 0 0 .0156.07.088.088 0 0 0 .0586.0362.0825.0825 0 0 0 .0684-.0147.0918.0918 0 0 0 -.0527-.167z" fill="#3a3939"/><circle cx="13.2558" cy="17.9841" fill="#c68463" r=".2166"/><path d="m13.2566 18.3256a.3415.3415 0 1 1 .0591-.6778.3367.3367 0 0 1 .22.1407.3412.3412 0 0 1 -.2788.5371zm-.001-.4326a.0932.0932 0 0 0 -.0527.0166.0916.0916 0 1 0 .1279.0224l-.0005-.001a.0892.0892 0 0 0 -.0581-.0371z" fill="#3a3939"/><circle cx="12.8559" cy="15.933" fill="#c68463" r=".2166"/><g fill="#3a3939"><path d="m12.8567 16.2748a.3994.3994 0 0 1 -.0586-.0049.342.342 0 0 1 -.1387-.6162.3511.3511 0 0 1 .2544-.0576.3419.3419 0 0 1 -.0571.6787zm-.0005-.4336a.0927.0927 0 0 0 -.0527.0166.0914.0914 0 0 0 -.0376.06.09.09 0 0 0 .0742.1054.0868.0868 0 0 0 .0684-.0146.0916.0916 0 0 0 .0376-.06.0908.0908 0 0 0 -.0743-.1055z"/><path d="m20.7346 16.141a.5.5 0 0 1 -.4116-.7832 1.831 1.831 0 0 0 .0689-1.9209.5.5 0 0 1 .8476-.5313 2.8346 2.8346 0 0 1 -.0923 3.0186.5008.5008 0 0 1 -.4126.2168z"/></g></svg>