<svg viewBox="0 0 41.2182 42.8264" xmlns="http://www.w3.org/2000/svg"><circle cx="21.6404" cy="23.2402" fill="#ffa300" r="18.8265"/><path d="m21.6572 42.8264a19.61 19.61 0 1 1 8.57-1.9932 19.5933 19.5933 0 0 1 -8.57 1.9932zm-.0015-37.6641a18.08 18.08 0 1 0 5.8652.9844 18.1079 18.1079 0 0 0 -5.8652-.9844z" fill="#3a3939"/><path d="m34.0629 15.1652a.7491.7491 0 0 1 -.6924-.4609c-.1083-.2568-2.6821-6.1211-10.9326-6.3955a.7513.7513 0 0 1 -.7246-.7754.7791.7791 0 0 1 .7744-.7246c9.2525.3086 12.1485 7.0332 12.2676 7.3193a.7505.7505 0 0 1 -.6924 1.0371z" fill="#3a3939"/><circle cx="9.8238" cy="32.6022" fill="#d8bda3" r=".2595"/><path d="m9.8256 32.9865a.3864.3864 0 0 1 -.3862-.3642.3862.3862 0 0 1 .3643-.4043.3979.3979 0 0 1 .2773.0976.3852.3852 0 0 1 -.2368.6709zm-.1362-.3779a.1365.1365 0 0 0 .1421.1279.1344.1344 0 0 0 .1265-.1406.13.13 0 0 0 -.0445-.0937.1169.1169 0 0 0 -.0962-.0342.1349.1349 0 0 0 -.1279.1406z" fill="#3a3939"/><circle cx="10.9322" cy="30.5383" fill="#d8bda3" r=".2595"/><path d="m10.9306 30.9221a.3842.3842 0 0 1 -.3828-.3633.3848.3848 0 1 1 .6694.2373.38.38 0 0 1 -.2656.126zm-.1328-.377a.1383.1383 0 0 0 .1411.127.1327.1327 0 0 0 .1274-.1406.13.13 0 0 0 -.0439-.0928.1693.1693 0 0 0 -.0967-.0342.1343.1343 0 0 0 -.0932.0439.13.13 0 0 0 -.0347.0967z" fill="#3a3939"/><circle cx="7.9848" cy="30.6909" fill="#d8bda3" r=".2595"/><path d="m7.9863 31.0754a.3747.3747 0 1 1 .0185 0zm-.001-.5186h-.0073a.1347.1347 0 0 0 -.1275.1407.1482.1482 0 0 0 .1416.1279.1346.1346 0 0 0 .0826-.2344.1325.1325 0 0 0 -.0894-.0342z" fill="#3a3939"/><circle cx="9.3602" cy="28.6697" fill="#d8bda3" r=".2595"/><path d="m9.3588 29.0539a.3828.3828 0 0 1 -.3828-.3639.3858.3858 0 0 1 .3638-.4043h.0185a.3845.3845 0 0 1 .022.7685zm0-.5185h-.0063a.1343.1343 0 0 0 -.1265.1406.13.13 0 0 0 .0445.0937.12.12 0 0 0 .0961.0342.1343.1343 0 0 0 -.0073-.2685z" fill="#3a3939"/><circle cx="8.973" cy="26.2202" fill="#d8bda3" r=".2595"/><path d="m8.9746 26.6047a.3844.3844 0 0 1 -.2867-.6426.38.38 0 0 1 .2657-.126.3848.3848 0 0 1 .04.7686zm-.001-.5186h-.0073a.1328.1328 0 0 0 -.0928.043.1347.1347 0 1 0 .2339.085.1341.1341 0 0 0 -.1338-.128z" fill="#3a3939"/><circle cx="6.9462" cy="27.8798" fill="#d8bda3" r=".2595"/><path d="m6.9443 28.2639a.3828.3828 0 0 1 -.3823-.3639.3848.3848 0 1 1 .6694.2383.3814.3814 0 0 1 -.2661.126zm.001-.5186h-.0069a.1343.1343 0 0 0 -.1264.1406.1294.1294 0 0 0 .0444.0938.181.181 0 0 0 .0962.0342.1345.1345 0 0 0 .1279-.1406.1338.1338 0 0 0 -.1352-.128z" fill="#3a3939"/><circle cx="18.4779" cy="36.1959" fill="#d8bda3" r=".2595"/><path d="m18.4794 36.58a.3861.3861 0 0 1 -.3857-.3643.3848.3848 0 1 1 .4043.3643zm-.0009-.5186h-.0074a.1345.1345 0 0 0 -.1274.1407.1344.1344 0 1 0 .2241-.1065.1316.1316 0 0 0 -.0893-.0339z" fill="#3a3939"/><circle cx="17.536" cy="38.0417" fill="#d8bda3" r=".2595"/><path d="m17.5375 38.426a.3971.3971 0 0 1 -.0478-.0029.3789.3789 0 0 1 -.2559-.1436.3837.3837 0 0 1 .3477-.6191.3829.3829 0 0 1 .3359.4277.3827.3827 0 0 1 -.38.3379zm-.0024-.5186a.1313.1313 0 0 0 -.082.0284.1341.1341 0 0 0 .0664.2392.1188.1188 0 0 0 .0991-.0273.1342.1342 0 0 0 .0508-.09.1308.1308 0 0 0 -.0274-.0986.1331.1331 0 0 0 -.09-.0508z" fill="#3a3939"/><circle cx="6.5338" cy="24.9349" fill="#d8bda3" r=".2595"/><path d="m6.5351 25.32a.3848.3848 0 0 1 -.3828-.4316.3878.3878 0 0 1 .4272-.335.3846.3846 0 0 1 -.0449.7666zm0-.52a.1358.1358 0 0 0 -.1343.1182.1344.1344 0 0 0 .0274.1.1382.1382 0 0 0 .09.0508.1143.1143 0 0 0 .0986-.0274.1349.1349 0 0 0 -.0669-.24z" fill="#3a3939"/><circle cx="20.3931" cy="38.1537" fill="#d8bda3" r=".2595"/><path d="m20.3945 38.5383a.3955.3955 0 0 1 -.0474-.0029.3848.3848 0 0 1 -.3354-.4287.3875.3875 0 0 1 .4272-.335.3846.3846 0 0 1 -.0449.7666zm-.0005-.52a.1357.1357 0 0 0 -.1343.1181.1343.1343 0 0 0 .0274.1.1376.1376 0 0 0 .09.0508.1155.1155 0 0 0 .0986-.0273.135.135 0 0 0 -.0669-.24z" fill="#3a3939"/><path d="m10.1459 14.5608a.5.5 0 0 1 -.4931-.42c-.0869-.5361-.2056-1.8183.561-2.1377a13.9431 13.9431 0 0 1 1.811-.4853.5.5 0 1 1 .2032.9785 13.1968 13.1968 0 0 0 -1.6294.4307 4.8073 4.8073 0 0 0 .0415 1.0537.5.5 0 0 1 -.4136.5732.4548.4548 0 0 1 -.0806.0069z" fill="#3a3939"/><path d="m8.1083 9.8489s.2659-2.7872 4.3281-4.3442c.398-.1525 2.7276-1.2442 2.7276-1.2442a4.2655 4.2655 0 0 1 -1.8907 4.585c-1.8507 1.2652-3.4433 1.6265-5.165 1.0034z" fill="#6caf1e"/><path d="m9.7431 10.6506a5.2481 5.2481 0 0 1 -1.8052-.332.4987.4987 0 0 1 -.3271-.5176c.0117-.126.3442-3.1143 4.647-4.7627.312-.12 2.0507-.9287 2.6943-1.23a.5.5 0 0 1 .6919.3125 4.8138 4.8138 0 0 1 -2.0884 5.1382 6.76 6.76 0 0 1 -3.8125 1.3916zm-1.0469-1.1406a5.0193 5.0193 0 0 0 4.295-1.0772 3.7786 3.7786 0 0 0 1.7817-3.4375c-.7295.3389-1.8721.8662-2.1567.9766-2.8506 1.0918-3.6832 2.7781-3.92 3.5381z" fill="#3a3939"/><path d="m.5 9.5987 1.1741 2.5132s1.5084-1.8324 5.1421-.26c1.4322.62 3.6283 1.6554 3.6283 1.6554s1.8285-.6538 1.4212-.8767c-2.9856-1.6339-1.192-.4965-4.2124-2.2566-3.0612-1.784-7.1533-.7753-7.1533-.7753z" fill="#93603e"/><path d="m10.4448 14.008a.4935.4935 0 0 1 -.2134-.0478c-.0015-.001-2.1875-1.0323-3.6133-1.6485-3.2051-1.3886-4.5078.06-4.5615.1221a.5212.5212 0 0 1 -.4492.1709.5018.5018 0 0 1 -.3863-.2813l-1.1743-2.5126a.5.5 0 0 1 .3332-.6973c.1758-.043 4.3252-1.0361 7.5249.8291a22.5014 22.5014 0 0 0 2.1561 1.1894c.2969.1368.667.3067 2.0449 1.0606a.5878.5878 0 0 1 .3174.5625c-.0176.2217-.0464.5928-1.81 1.2236a.5.5 0 0 1 -.1685.0293zm-6.3487-3.2949a7.3572 7.3572 0 0 1 2.919.6807c1.1836.5117 2.8872 1.3076 3.4526 1.5722.1929-.0732.3823-.1533.5469-.2285-.855-.46-1.1362-.5889-1.3706-.6963a23.23 23.23 0 0 1 -2.2427-1.2353 9.9128 9.9128 0 0 0 -6.1758-.835l.63 1.3486a4.0906 4.0906 0 0 1 2.2406-.6064z" fill="#3a3939"/><path d="m7.5277 9.4507s-2.2116-1.7168-1.3518-5.9814c.0842-.4178.4094-2.97.4094-2.97a4.2658 4.2658 0 0 1 2.86 4.0517c.0781 2.2406-.4697 3.7796-1.9176 4.8997z" fill="#6caf1e"/><g fill="#3a3939"><path d="m7.5278 9.95a.4983.4983 0 0 1 -.3067-.1055c-.1-.0771-2.4463-1.958-1.5356-6.4746.0664-.3287.3145-2.2291.4038-2.9341a.5015.5015 0 0 1 .2212-.3545.51.51 0 0 1 .4136-.0625 4.811 4.811 0 0 1 3.2212 4.5146c.0859 2.4775-.5653 4.1166-2.1114 5.3125a.5026.5026 0 0 1 -.3061.1041zm-.5318-8.7242c-.104.7988-.27 2.043-.33 2.3418-.6036 2.9922.3754 4.5986.89 5.2051 1.0386-.9639 1.4575-2.25 1.39-4.2041a3.8 3.8 0 0 0 -1.95-3.3428z"/><path d="m7.4921 10.0813a.25.25 0 0 1 -.2321-.3438 9.0251 9.0251 0 0 0 .416-4.9912.2493.2493 0 0 1 .174-.3076.2459.2459 0 0 1 .3081.1728 8.9523 8.9523 0 0 1 -.2613 4.82 17.1835 17.1835 0 0 0 5.399-2.9726.25.25 0 1 1 .3364.3691 17.54 17.54 0 0 1 -6.0639 3.242.2529.2529 0 0 1 -.0762.0113z"/><path d="m9.6879 14.9152a.5.5 0 0 1 -.11-.9873 3.07 3.07 0 0 0 2.27-1.9062 3.0239 3.0239 0 0 0 .188-.668.5.5 0 0 1 .9936.1133 3.8662 3.8662 0 0 1 -.2534.9268 4.088 4.088 0 0 1 -2.9765 2.5087.4865.4865 0 0 1 -.1117.0127z"/></g></svg>