<svg xmlns="http://www.w3.org/2000/svg" viewBox="0 0 37.7196 41.4698"><defs><style>.cls-1{fill:#bad362;}.cls-2{fill:#3a3939;}.cls-3{fill:#6caf1e;}.cls-4{fill:#93603e;}</style></defs><title>Asset 159</title><g id="Layer_2" data-name="Layer 2"><g id="Layer_3" data-name="Layer 3"><path class="cls-1" d="M35.3877,16.3852c-6.0091-8.5151-12.3331-4.4627-16.515-2.4574C14.6908,11.9225,8.3669,7.87,2.3577,16.3852c-6.1986,8.7834,6.87,31.3023,16.4192,22.212C28.3257,47.6875,41.5863,25.1686,35.3877,16.3852Z"/><path class="cls-2" d="M23.6456,41.47a7.52,7.52,0,0,1-4.8687-1.8682c-3.3066,2.752-7.3437,2.4561-11.1733-.8486C1.4644,33.4522-2.4448,21.89,1.7447,15.9522c5.939-8.4141,12.2974-5.2559,16.5068-3.1651q.3173.1582.6211.3067c.2027-.0986.41-.2022.6221-.3067,4.208-2.09,10.5679-5.25,16.5059,3.1651h0c4.1621,5.8984.2138,17.4414-5.938,22.7529A9.962,9.962,0,0,1,23.6456,41.47Zm-4.8687-3.6221a.7492.7492,0,0,1,.5171.207c3.8189,3.6358,7.7725,1.2578,9.7881-.4844,5.57-4.8105,9.3677-15.5458,5.6929-20.7529C29.5772,9.4522,24.3565,12.0479,20.1617,14.13c-.3325.1651-.6548.3252-.9649.4746a.7538.7538,0,0,1-.6484,0c-.31-.1494-.6318-.3086-.9644-.4736C13.39,12.0469,8.1685,9.4532,2.97,16.8174c-3.7017,5.2461.0556,16.001,5.6137,20.8,1.9849,1.7149,5.8819,4.0469,9.6758.4375A.7494.7494,0,0,1,18.7769,37.8477Z"/><path class="cls-3" d="M19.4313,8.5758S19.2554,6.1229,15.72,4.6719c-.3464-.1422-2.37-1.1488-2.37-1.1488a3.7467,3.7467,0,0,0,1.5657,4.0651C16.5156,8.7374,17.9071,9.0875,19.4313,8.5758Z"/><path class="cls-2" d="M18.0953,9.5537a6.1887,6.1887,0,0,1-3.6162-1.3564,4.51,4.51,0,0,1-1.8428-4.9014.751.751,0,0,1,1.0488-.4443c.773.3848,2.0864,1.03,2.3208,1.127,3.9195,1.6084,4.1651,4.4248,4.1734,4.5439a.75.75,0,0,1-.5093.7646A4.902,4.902,0,0,1,18.0953,9.5537Zm-4.107-4.8789a3.06,3.06,0,0,0,1.3658,2.3038,4.3563,4.3563,0,0,0,3.1528,1.0478,5.2426,5.2426,0,0,0-3.0713-2.6611C15.2344,5.2832,14.5718,4.961,13.9883,4.6748Z"/><path class="cls-2" d="M32.92,20.2676a.75.75,0,0,1-.7393-.6289c-.6733-4.1035-5.1792-4.2519-5.3711-4.2559a.7512.7512,0,0,1-.7339-.7646.7659.7659,0,0,1,.7623-.7354c2.0527.0362,6.1206,1.2344,6.8232,5.5137a.75.75,0,0,1-.6187.8613A.7374.7374,0,0,1,32.92,20.2676Z"/><path class="cls-4" d="M22.7527.9044c.2516-.84,3.0791,2.1045,3.0791,2.1045s-6.4005,5.5669-6.1947,10.5444l-1.6293-.08s.4355-4.5358,1.6893-6.55A19.882,19.882,0,0,0,22.7527.9044Z"/><path class="cls-2" d="M19.6373,14.3037c-.0122,0-.0249,0-.0371-.0009l-1.6294-.0811a.75.75,0,0,1-.71-.82c.0185-.1924.4678-4.7353,1.7993-6.875.2432-.3906.4732-.7432.6924-1.08A15.6538,15.6538,0,0,0,22.0342.69V.6885a.943.943,0,0,1,.6836-.6572c.2847-.0693,1.0518-.2529,3.6548,2.458a.7507.7507,0,0,1-.0483,1.085c-.0615.0537-6.1265,5.3916-5.9375,9.9482a.75.75,0,0,1-.75.7812Zm-.7891-1.54.0571.0029c.336-4.14,4.31-8.3134,5.8443-9.78a14.5362,14.5362,0,0,0-1.4678-1.2637,17.0626,17.0626,0,0,1-2.272,4.543c-.2143.3281-.4384.6728-.6758,1.0537A16.73,16.73,0,0,0,18.8482,12.7637ZM23.4708,1.12v0Z"/></g></g></svg>
