<svg xmlns="http://www.w3.org/2000/svg" viewBox="0 0 46.5301 34.2338"><defs><style>.cls-1{fill:#fff7d7;}.cls-2{fill:#3a3939;}.cls-3{fill:#9b2310;}.cls-4{fill:#e2635d;}.cls-5{fill:#ff917b;}.cls-6{fill:#f9ebea;}</style></defs><title>Asset 133</title><g id="Layer_2" data-name="Layer 2"><g id="Layer_3" data-name="Layer 3"><path class="cls-1" d="M34.912,28.3461l5.6643,1.66a2.6468,2.6468,0,0,0,.8865,2.9475,1.89,1.89,0,0,0,3.0341-1.2651,3.9949,3.9949,0,0,0-.1832-1.5257l.5942-.5751c2.0642-1.828.0206-3.8333-1.5891-3.776A1.7951,1.7951,0,0,0,41.5455,27.38L34.369,25.3315Z"/><path class="cls-2" d="M42.6792,34.143a2.8768,2.8768,0,0,1-1.6421-.5723,3.3387,3.3387,0,0,1-1.3237-3.0361l-4.482-1.3135a.75.75,0,0,1,.4219-1.4395L41.5,29.4955l-.2017.7139a1.8888,1.8888,0,0,0,.5923,2.1279c.6387.4394.9829.2891,1.0967.2393a1.6076,1.6076,0,0,0,.7637-.959,3.26,3.26,0,0,0-.1436-1.2041l-.1577-.4532.9365-.9121c.5743-.5088.7583-.9922.5723-1.458a1.7992,1.7992,0,0,0-1.6123-1.0283,1.0185,1.0185,0,0,0-1.0547.8984l-.0957.8848L34.6767,26.2a.7506.7506,0,0,1,.4122-1.4434l5.9663,1.7032a2.4713,2.4713,0,0,1,2.2368-1.3975,3.29,3.29,0,0,1,3.0586,1.9717,2.7167,2.7167,0,0,1-.9458,3.1152l-.2525.2451a4.6706,4.6706,0,0,1,.0918,1.36,2.9987,2.9987,0,0,1-1.5947,2.1689A2.2674,2.2674,0,0,1,42.6792,34.143Z"/><path class="cls-3" d="M15.832,1.0027s10.26.739,15.7066,18.2986c1.1479,3.7.43,3.7763,4.7823,5.5179l1.1006.35c.7848.212,1.8259.2787,1.6508,1.0725L38.8584,28.28c-.172.78-.322,2.3814-2.3451,1.7342a9.8128,9.8128,0,0,0-4.0588-.5084c-5.1773.7966-5.4912,3.282-14.7053,3.92C7.1421,34.1615,3.614,27.4857,3.614,27.4857"/><path class="cls-2" d="M16.1225,34.2338c-9.6743,0-13.0263-6.1231-13.1718-6.3975l1.3261-.7012c.1363.253,3.4654,6.23,13.42,5.543a23.8321,23.8321,0,0,0,9.7065-2.3232,17.0645,17.0645,0,0,1,4.9365-1.59,10.5877,10.5877,0,0,1,4.4019.5362,1.2454,1.2454,0,0,0,.9106.05c.2525-.1475.356-.6592.4317-1.0323l.0415-.1992.1987-1.9394a4.7991,4.7991,0,0,0-.6582-.1817c-.15-.0342-.2988-.0674-.44-.1064l-1.1324-.3584c-3.8315-1.5313-4.1435-1.9473-4.8427-4.5166-.1148-.4209-.2481-.9112-.4287-1.4932C25.5884,2.6478,15.8755,1.7572,15.7783,1.75L15.8857.2543c.44.0312,10.835.9814,16.3692,18.8242.1865.6025.3252,1.1094.4433,1.5449.57,2.0938.5923,2.1748,3.9014,3.499l1.0488.3311c.0908.0234.22.0527.3491.082.6329.1436,2.1138.4786,1.8072,1.8682l-.25,2.2129a2.8206,2.8206,0,0,1-1.1421,2.0283,2.5618,2.5618,0,0,1-2.1279.085,9.1715,9.1715,0,0,0-3.7159-.4825,15.62,15.62,0,0,0-4.5454,1.4737,25.3838,25.3838,0,0,1-10.2226,2.4531Q16.9322,34.2342,16.1225,34.2338Z"/><ellipse class="cls-4" cx="11.7614" cy="16.0722" rx="15.6096" ry="10.6027" transform="translate(-6.8217 23.2354) rotate(-74.8841)"/><path class="cls-2" d="M9.5918,32.143a7.9788,7.9788,0,0,1-2.0962-.2774C1.4521,30.2338-1.5508,21.82.8013,13.1117h0C3.1533,4.4037,9.9868-1.3609,16.0273.2787c6.0435,1.6328,9.0464,10.0459,6.6939,18.7539C20.6377,26.7445,15.042,32.143,9.5918,32.143ZM2.25,13.5023c-2.1367,7.91.3921,15.4991,5.6372,16.916,5.2437,1.4151,11.25-3.8671,13.3862-11.7763S20.8813,3.1439,15.6362,1.726C10.3921.3139,4.3862,5.5932,2.25,13.5023Z"/><ellipse class="cls-5" cx="11.403" cy="15.9754" rx="12.2645" ry="7.1635" transform="translate(-6.9932 22.8179) rotate(-74.8841)"/><path class="cls-2" d="M9.3511,28.7172a5.1,5.1,0,0,1-1.3418-.1778c-4.2837-1.1572-6.1485-7.583-4.2461-14.6279h0c1.9028-7.0439,6.7461-11.666,11.0332-10.5,4.2842,1.1572,6.1494,7.582,4.2466,14.627C17.3364,24.3558,13.2632,28.7172,9.3511,28.7172Zm-4.14-14.4151c-1.6274,6.0254-.167,11.8828,3.189,12.79,3.3471.8974,7.5664-3.419,9.1943-9.4444s.167-11.8818-3.1894-12.789c-3.3516-.8946-7.566,3.4189-9.1939,9.4433Z"/><ellipse class="cls-6" cx="10.1976" cy="15.6497" rx="2.04" ry="1.3603" transform="translate(-7.5699 21.4134) rotate(-74.8841)"/><path class="cls-2" d="M9.9092,18.4017a1.6927,1.6927,0,0,1-.439-.0576C8.3271,18.0346,7.7519,16.61,8.16,15.1s1.6192-2.4531,2.7642-2.1445c1.1431.3095,1.7183,1.7343,1.3106,3.2441A2.6852,2.6852,0,0,1,9.9092,18.4017Zm.58-4.0029c-.228,0-.686.37-.8808,1.0918h0c-.209.7725.0449,1.3486.2529,1.4053.2149.05.7173-.3154.9253-1.0869s-.0454-1.3487-.2529-1.4053A.2158.2158,0,0,0,10.4892,14.3988Z"/><path class="cls-2" d="M19.8325,29.4369a.5.5,0,0,1-.2412-.9385c2.6553-1.46,3.8809-6.5468,3.8926-6.5976a.4948.4948,0,0,1,.6015-.3721.5.5,0,0,1,.3721.6006c-.0537.2275-1.3437,5.5742-4.3848,7.2461A.4951.4951,0,0,1,19.8325,29.4369Z"/></g></g></svg>
