<svg viewBox="0 0 48.769 22.253" xmlns="http://www.w3.org/2000/svg"><path d="m30.778 7.396s3.526-3.598 4.625-3.19c0 0-2.921 3.446-2.056 4.422"/><path d="m33.382 9.394a.8.8 0 0 1 -.596-.269c-.59-.664-.346-1.707.2-2.763a25.89 25.89 0 0 0 -1.672 1.558.75.75 0 1 1 -1.072-1.048c1.765-1.801 4.133-3.847 5.423-3.368a.75.75 0 0 1 .31 1.188c-1.175 1.388-2.147 3.053-2.035 3.492a.734.734 0 0 1 -.558 1.21z"/><path d="m34.72 17.548s-.556 2.784 1.863 2.901c0 0-3.79.7-5.805-1.45"/><path d="m35.157 21.31a6.703 6.703 0 0 1 -4.926-1.799.75.75 0 1 1 1.094-1.025 4.624 4.624 0 0 0 2.906 1.27 4.111 4.111 0 0 1 -.246-2.356.75.75 0 0 1 1.472.292 2.327 2.327 0 0 0 .254 1.624 1.152 1.152 0 0 0 .909.384.75.75 0 0 1 .1 1.486 9.179 9.179 0 0 1 -1.563.123z"/><path d="m16.358 4.54s5.038-4.875 6.674-3.592c0 0-3.027 3.626-2.125 4.228"/><path d="m20.907 5.927a.75.75 0 0 1 -.416-.126 1.13 1.13 0 0 1 -.488-.79c-.122-.851.712-2.235 1.503-3.325a18.428 18.428 0 0 0 -4.627 3.393.75.75 0 0 1 -1.043-1.079c1.293-1.25 5.666-5.2 7.659-3.643a.75.75 0 0 1 .113 1.072 11.856 11.856 0 0 0 -2.11 3.286.75.75 0 0 1 -.591 1.212z"/><path d="m14.728 5.177c-7.27 0-13.969 7.294-13.978 9.657-.008 2.094 5.576 6.683 13.853 6.643 9.834-.048 24.692-5.699 25.216-5.175.822 1.862 4.56 5.608 7.27 5.165s-1.376-4.578-1.322-8.12 2.905-6.742 1.915-6.99-5.243 2.001-7.863 4.674c0 0-13.322-5.854-25.091-5.854z"/><path d="m46.626 22.253c-2.89.001-6.139-3.24-7.261-5.195-.702.135-2.295.594-3.844 1.04-5.32 1.531-14.222 4.096-20.914 4.128h-.114c-6.162 0-10.843-2.49-12.988-4.632a4.403 4.403 0 0 1 -1.505-2.763c.011-2.833 7.183-10.404 14.728-10.404 10.691 0 22.42 4.666 24.924 5.717 2.452-2.324 6.753-4.889 8.212-4.514a.996.996 0 0 1 .674.541c.281.595-.042 1.28-.578 2.414a12.041 12.041 0 0 0 -1.443 4.773 10.863 10.863 0 0 0 1.293 4.243c.71 1.56 1.271 2.792.765 3.74a1.76 1.76 0 0 1 -1.365.867 3.648 3.648 0 0 1 -.584.046zm-6.922-6.74a.796.796 0 0 1 .646.26.741.741 0 0 1 .155.227c.784 1.777 4.282 5.095 6.462 4.728a.616.616 0 0 0 .286-.095c.16-.283-.446-1.614-.809-2.41a11.912 11.912 0 0 1 -1.427-4.887 13.437 13.437 0 0 1 1.587-5.39c.113-.242.24-.512.343-.748a20.172 20.172 0 0 0 -6.592 4.359.748.748 0 0 1 -.837.16c-.132-.057-13.32-5.79-24.79-5.79-7.106 0-13.221 7.219-13.228 8.91a3.078 3.078 0 0 0 1.065 1.697c1.954 1.951 6.262 4.254 12.034 4.193 6.485-.032 15.262-2.56 20.507-4.07a25.539 25.539 0 0 1 4.598-1.145z"/><circle cx="8.529" cy="11.391" r="1.071"/><path d="m45.483 10.32s-.416-.247-1.506.298"/><path d="m43.977 11.369a.75.75 0 0 1 -.336-1.421c1.315-.66 1.995-.41 2.226-.27a.75.75 0 0 1 -.667 1.337 1.893 1.893 0 0 0 -.888.275.751.751 0 0 1 -.335.079zm1.123-.404v.001z"/><path d="m45.135 13.958h-2.168"/><path d="m45.135 14.708h-2.168a.75.75 0 0 1 0-1.5h2.168a.75.75 0 0 1 0 1.5z"/><path d="m46.236 17.669s-.416.247-1.506-.298"/><path d="m45.928 18.476a3.483 3.483 0 0 1 -1.534-.435.75.75 0 0 1 .671-1.341 1.96 1.96 0 0 0 .888.275.75.75 0 0 1 .667 1.337 1.331 1.331 0 0 1 -.692.164zm-.074-1.453-.001.001z"/><path d="m9.077 20.45s4.3-4.07 3.367-6.157"/><path d="m9.077 21.199a.75.75 0 0 1 -.516-1.295c1.578-1.495 3.686-4.215 3.199-5.306a.75.75 0 1 1 1.369-.611c1.095 2.45-2.754 6.266-3.537 7.007a.748.748 0 0 1 -.515.205z"/><path d="m.75 14.834a11.037 11.037 0 0 1 4.167 1.134"/><path d="m4.917 16.717a.749.749 0 0 1 -.416-.126 10.015 10.015 0 0 0 -3.808-1.01.75.75 0 0 1 .114-1.496 11.636 11.636 0 0 1 4.526 1.258.75.75 0 0 1 -.416 1.374z"/><path d="m14.326 17.76 6.41-.355s-3.083 3.995-6.846 3.187"/><path d="m14.917 21.452a5.611 5.611 0 0 1 -1.184-.126.75.75 0 0 1 .314-1.467 5.789 5.789 0 0 0 4.793-1.598l-4.473.247a.75.75 0 0 1 -.083-1.498l6.41-.353a.727.727 0 0 1 .706.4.75.75 0 0 1 -.07.807c-.125.16-2.815 3.588-6.413 3.588z"/></svg>