<svg xmlns="http://www.w3.org/2000/svg" viewBox="0 0 45.6969 24.9673"><defs><style>.cls-1{fill:#568415;}.cls-2{fill:#3a3939;}.cls-3{fill:#6caf1e;}</style></defs><title>Asset 141</title><g id="Layer_2" data-name="Layer 2"><g id="Layer_3" data-name="Layer 3"><path class="cls-1" d="M8.8488,7.9974A30.71,30.71,0,0,0,25.0461,9.318c6.2525-1.1,10.5835-5.1723,18.1691-3.2792.4822.12,3.4111-.0233.3544,3.1479-1.985,2.0594-3.25,4.4923-13.4912,7.2591S8.5494,9.5293,8.5494,9.5293Z"/><path class="cls-2" d="M26.18,17.6978c-9.14,0-17.707-7.2461-18.1191-7.6a.7484.7484,0,0,1-.2476-.7129l.2994-1.5312a.75.75,0,0,1,1.0336-.545A30.3331,30.3331,0,0,0,24.9163,8.58a32.11,32.11,0,0,0,5.772-1.7618c3.6733-1.3828,7.4707-2.8134,12.7084-1.5068.0342.0068.0953.0117.167.0205.5518.0625,1.7.1943,2.0445,1.1533.3022.84-.16,1.834-1.4986,3.2227-.2109.2187-.4135.4424-.62.67-1.8178,2.001-3.8779,4.27-13.2153,6.792A15.6228,15.6228,0,0,1,26.18,17.6978ZM9.3718,9.232c1.918,1.5283,11.7334,8.8574,20.5108,6.49C38.7962,13.314,40.7,11.2173,42.3792,9.3687c.2163-.2383.4292-.4726.65-.7021,1.2021-1.2471,1.164-1.6836,1.1635-1.6875a3.0474,3.0474,0,0,0-.8-.1573,3.177,3.177,0,0,1-.3593-.0556c-4.7832-1.1934-8.2.0927-11.8169,1.4551a33.2078,33.2078,0,0,1-6.0411,1.8349A32.2269,32.2269,0,0,1,9.4143,9.0132Z"/><circle class="cls-3" cx="22.8558" cy="13.5522" r="2.7011"/><path class="cls-2" d="M22.8567,16.63a3.0794,3.0794,0,1,1,1.2759-.2793A3.07,3.07,0,0,1,22.8567,16.63Zm-.0024-5.4053a2.332,2.332,0,1,0,.8154.1484A2.33,2.33,0,0,0,22.8543,11.2242Z"/><circle class="cls-3" cx="15.5205" cy="13.6629" r="2.7011"/><path class="cls-2" d="M15.5217,16.7408a3.083,3.083,0,1,1,1.2754-.2793A3.0763,3.0763,0,0,1,15.5217,16.7408Zm-.0024-5.4053a2.3272,2.3272,0,1,0,2.1172,1.3613h0a2.3332,2.3332,0,0,0-2.1172-1.3613Z"/><circle class="cls-3" cx="29.3375" cy="12.5507" r="2.7011"/><path class="cls-2" d="M29.3391,15.6285a3.0767,3.0767,0,1,1,2.7974-4.3545h0a3.08,3.08,0,0,1-2.7974,4.3545Zm-.0049-5.4033a2.3254,2.3254,0,1,0,2.12,1.3593A2.3222,2.3222,0,0,0,29.3342,10.2252Z"/><circle class="cls-3" cx="35.2931" cy="10.3145" r="2.2959"/><path class="cls-2" d="M35.2981,12.9849a2.6708,2.6708,0,1,1,2.4253-3.7783h0a2.67,2.67,0,0,1-2.4253,3.7783Zm-.0088-4.5908a1.9211,1.9211,0,1,0,1.7515,1.1231A1.9125,1.9125,0,0,0,35.2893,8.3941Z"/><circle class="cls-3" cx="40.0885" cy="8.4473" r="1.4924"/><path class="cls-2" d="M40.0911,10.315a1.87,1.87,0,1,1,.772-.1689A1.87,1.87,0,0,1,40.0911,10.315ZM40.0882,7.33a1.1178,1.1178,0,0,0-1.0162,1.582,1.1174,1.1174,0,0,0,2.0328-.9287h0A1.1207,1.1207,0,0,0,40.0882,7.33Z"/><path class="cls-2" d="M30.7786,11.9146a.25.25,0,0,1-.207-.1094,1.5175,1.5175,0,0,0-1.5655-.707.2577.2577,0,0,1-.3017-.1836.249.249,0,0,1,.1811-.3017,2.0069,2.0069,0,0,1,2.1.9111.25.25,0,0,1-.207.3906Z"/><path class="cls-2" d="M24.2942,12.9478a.2507.2507,0,0,1-.2222-.1357,1.35,1.35,0,0,0-1.4585-.6846.2463.2463,0,0,1-.2963-.1914.2492.2492,0,0,1,.19-.2969,1.8315,1.8315,0,0,1,2.0093.9444.25.25,0,0,1-.1079.3369A.2531.2531,0,0,1,24.2942,12.9478Z"/><path class="cls-2" d="M36.2073,9.62a.2474.2474,0,0,1-.1777-.0742A1.08,1.08,0,0,0,34.9715,9.24a.2457.2457,0,0,1-.3169-.1562.249.249,0,0,1,.1567-.3164,1.5655,1.5655,0,0,1,1.5737.4267.25.25,0,0,1-.1777.4258Z"/><path class="cls-2" d="M40.7141,8.1021a.1241.1241,0,0,1-.09-.0381.683.683,0,0,0-.5859-.2695.125.125,0,0,1,0-.25h0a.918.918,0,0,1,.7647.3457.125.125,0,0,1-.09.2119Z"/><path class="cls-3" d="M8.7687,7.1066a28.2734,28.2734,0,0,0,14.4687,7.8365c6.2128,1.3054,11.748-.8638,18.0849,3.7155.4028.2911,3.175,1.2473-.8421,3.0537-2.6087,1.1731-5.36,3.3811-15.8954,2.14S3.97,11.0059,3.97,11.0059a3.867,3.867,0,0,1-.8009-3.3367C3.591,5.6048.75,2.2511.75,2.2511L2.7467.75l2.339,4.4791A1.2825,1.2825,0,0,0,6.11,5.9333,5.073,5.073,0,0,1,8.7687,7.1066Z"/><path class="cls-2" d="M30.2078,24.9673a48.9836,48.9836,0,0,1-5.711-.37c-10.7-1.2617-20.6738-12.6172-21.0932-13.1a4.6148,4.6148,0,0,1-.97-3.9785c.2539-1.24-1.25-3.5918-2.2564-4.7832a.75.75,0,0,1,.1216-1.084L2.2962.1509A.7445.7445,0,0,1,2.9124.0191a.7532.7532,0,0,1,.5.3838L5.7508,4.8814a.532.532,0,0,0,.4135.3037,5.8151,5.8151,0,0,1,3.06,1.3262.7676.7676,0,0,1,.1074.1,27.7922,27.7922,0,0,0,14.06,7.5977,32.0429,32.0429,0,0,0,6.0131.5127c3.9244.083,7.982.1679,12.357,3.33.0293.0186.084.0469.1474.0811.4888.2637,1.5054.8125,1.4683,1.83-.0322.8925-.831,1.6425-2.59,2.4336-.2974.1337-.5967.2812-.91.4355A18.97,18.97,0,0,1,30.2078,24.9673ZM1.8152,2.3892C2.68,3.5406,4.28,5.9781,3.9036,7.82a3.1581,3.1581,0,0,0,.6069,2.666c.1245.1416,10.042,11.4277,20.1621,12.6211,9.08,1.07,12.2378-.4854,14.5425-1.62.33-.1631.6445-.3174.9575-.458,1.58-.711,1.7066-1.13,1.708-1.1338a3.1117,3.1117,0,0,0-.6836-.4434,3.2092,3.2092,0,0,1-.3134-.1845c-3.9961-2.8877-7.646-2.9649-11.51-3.0459a33.3575,33.3575,0,0,1-6.29-.544A28.9182,28.9182,0,0,1,8.2586,7.6607a4.3029,4.3029,0,0,0-2.2041-.98A2.0412,2.0412,0,0,1,4.4207,5.5757L2.491,1.8814Z"/><path class="cls-2" d="M38.2625,19.8121a.5.5,0,0,1-.3526-.1455,7.0188,7.0188,0,0,0-3.3711-1.3916.5.5,0,0,1-.4306-.5606.4955.4955,0,0,1,.56-.4316,7.9045,7.9045,0,0,1,3.9468,1.6748.5.5,0,0,1-.3525.8545Z"/></g></g></svg>
