<svg xmlns="http://www.w3.org/2000/svg" viewBox="0 0 42.1367 46.4654"><defs><style>.cls-1{fill:#34b743;}.cls-1,.cls-2,.cls-3,.cls-4,.cls-7{stroke:#3a3939;stroke-linecap:round;stroke-linejoin:round;stroke-width:1.5px;}.cls-2,.cls-5{fill:#93603e;}.cls-3{fill:#1d4921;}.cls-4{fill:#bad362;}.cls-6{fill:#3a3939;}.cls-7{fill:none;}</style></defs><title>Asset 161</title><g id="Layer_2" data-name="Layer 2"><g id="Layer_3" data-name="Layer 3"><path class="cls-1" d="M14.8653,5.6318s-.17-2.37-3.5854-3.7718C10.9452,1.7226,8.9905.75,8.9905.75a3.62,3.62,0,0,0,1.5128,3.9276A4.5545,4.5545,0,0,0,14.8653,5.6318Z"/><path class="cls-2" d="M13.6075,11.3907S16.2847,2.8014,15.847.75a8.7144,8.7144,0,0,1,3.1135,1.1537c.7338.7058-.4028,1.0867-.874,2.1836s-2.8963,6.7814-3.01,7.5472Z"/><path class="cls-3" d="M25.4046,25.5189A31.6616,31.6616,0,0,0,19.4685,13.33a7.1045,7.1045,0,0,0-5.861-3.2735A6.73,6.73,0,0,0,7.935,13.33,31.4854,31.4854,0,0,0,1.8136,25.5114C1.1324,27.2744.75,32.0717.75,34.1164c0,7.9826,5.7565,11.599,12.8575,11.599S26.465,42.099,26.465,34.1164C26.465,32.0746,26.084,27.28,25.4046,25.5189Z"/><path class="cls-4" d="M40.3263,25.5189A31.6616,31.6616,0,0,0,34.39,13.33a7.1045,7.1045,0,0,0-5.861-3.2735A6.73,6.73,0,0,0,22.8567,13.33a31.4868,31.4868,0,0,0-6.1214,12.1818c-.6812,1.763-1.0636,6.56-1.0636,8.605,0,7.9826,5.7565,11.599,12.8575,11.599s12.8575-3.6164,12.8575-11.599C41.3867,32.0746,41.0057,27.28,40.3263,25.5189Z"/><circle class="cls-5" cx="28.5292" cy="32.5248" r="5.1476"/><path class="cls-6" d="M31.5764,33.7936a.4894.4894,0,0,1-.1387-.02.5.5,0,0,1-.3418-.6191,2.6013,2.6013,0,0,0-.1338-2.12A2.7586,2.7586,0,0,0,29.35,29.9362a.5.5,0,1,1,.1973-.98,3.7307,3.7307,0,0,1,2.27,1.56,3.55,3.55,0,0,1,.24,2.917A.5.5,0,0,1,31.5764,33.7936Z"/><circle class="cls-7" cx="28.5292" cy="32.5248" r="5.1476"/></g></g></svg>
