<svg viewBox="0 0 37.72 41.47" xmlns="http://www.w3.org/2000/svg"><path d="m35.388 16.385c-6.01-8.515-12.333-4.463-16.515-2.457-4.183-2.006-10.506-6.058-16.515 2.457-6.199 8.784 6.87 31.302 16.419 22.212 9.549 9.09 22.81-13.428 16.61-22.212z" fill="#bad362"/><path d="m23.646 41.47a7.52 7.52 0 0 1 -4.87-1.868c-3.306 2.752-7.343 2.456-11.172-.849-6.14-5.3-10.049-16.863-5.86-22.8 5.94-8.415 12.298-5.257 16.507-3.166l.622.307.622-.307c4.208-2.09 10.568-5.25 16.506 3.165 4.162 5.899.213 17.442-5.938 22.753a9.962 9.962 0 0 1 -6.417 2.765zm-4.87-3.622a.75.75 0 0 1 .518.207c3.819 3.636 7.772 1.258 9.788-.485 5.57-4.81 9.368-15.545 5.693-20.752-5.198-7.366-10.418-4.77-14.613-2.688-.333.165-.655.325-.965.475a.754.754 0 0 1 -.649 0c-.31-.15-.631-.309-.964-.474-4.194-2.084-9.415-4.678-14.614 2.686-3.702 5.246.056 16.001 5.614 20.8 1.985 1.715 5.882 4.047 9.676.438a.75.75 0 0 1 .517-.207z"/><path d="m19.431 8.576s-.176-2.453-3.711-3.904c-.346-.142-2.37-1.149-2.37-1.149a3.747 3.747 0 0 0 1.566 4.065c1.6 1.15 2.991 1.5 4.515.988z" fill="#6caf1e"/><path d="m18.095 9.554a6.189 6.189 0 0 1 -3.616-1.357 4.51 4.51 0 0 1 -1.843-4.901.751.751 0 0 1 1.05-.444c.772.384 2.086 1.03 2.32 1.127 3.92 1.608 4.165 4.424 4.173 4.543a.75.75 0 0 1 -.509.765 4.902 4.902 0 0 1 -1.575.267zm-4.107-4.88a3.06 3.06 0 0 0 1.366 2.305 4.356 4.356 0 0 0 3.153 1.047 5.243 5.243 0 0 0 -3.071-2.66 41.963 41.963 0 0 1 -1.448-.691zm18.932 15.594a.75.75 0 0 1 -.74-.63c-.673-4.103-5.178-4.251-5.37-4.255a.751.751 0 0 1 -.734-.765.766.766 0 0 1 .762-.735c2.053.036 6.12 1.234 6.823 5.514a.75.75 0 0 1 -.618.86.737.737 0 0 1 -.123.01z"/><path d="m22.753.904c.251-.84 3.079 2.105 3.079 2.105s-6.4 5.567-6.195 10.544l-1.63-.08s.436-4.536 1.69-6.55a19.882 19.882 0 0 0 3.056-6.019z" fill="#93603e"/><path d="m19.637 14.304-.037-.001-1.63-.081a.75.75 0 0 1 -.71-.82c.02-.193.469-4.736 1.8-6.875.243-.39.473-.744.692-1.08a15.654 15.654 0 0 0 2.282-4.757v-.001a.943.943 0 0 1 .684-.658c.284-.069 1.052-.253 3.655 2.458a.75.75 0 0 1 -.049 1.085c-.061.054-6.126 5.392-5.937 9.948a.75.75 0 0 1 -.75.782zm-.789-1.54.057.003c.336-4.14 4.31-8.314 5.845-9.78a14.536 14.536 0 0 0 -1.468-1.264 17.063 17.063 0 0 1 -2.272 4.543c-.215.328-.439.673-.676 1.054a16.73 16.73 0 0 0 -1.486 5.444z"/></svg>