<svg viewBox="0 0 32.0661 54.2546" xmlns="http://www.w3.org/2000/svg"><path d="m2.891 27.8119c.3506-3.745 1.6412-11.7927 8.75-12.2393l8.9778-.005s6.1127 1.6 7.3906 12.2443c.3874 3.2273 1.6085 7.3007 2.88 12.6791 1.5759 6.6654-1.431 11.0855-4.6014 12.29-2.7518 1.0453-16.2519.6793-19.7688.5644a4.3613 4.3613 0 0 1 -2.1292-.6154c-1.8811-1.14-4.9521-4.286-3.023-12.239 1.1369-4.6875 1.2265-9.5004 1.524-12.6791z" fill="#d8bda3"/><path d="m15.5306 54.2546c-3.4463 0-6.874-.0889-9.0361-.1592a5.1572 5.1572 0 0 1 -2.4937-.7236c-2.126-1.29-5.39-4.7-3.3628-13.0576a60.6414 60.6414 0 0 0 1.3145-10.0821c.0629-.9042.1215-1.7421.1919-2.49.9589-10.2461 5.6679-12.68 9.45-12.917l9.0239-.0078h.0005a.7345.7345 0 0 1 .19.0244c.27.07 6.6221 1.8565 7.9453 12.8809a68.3965 68.3965 0 0 0 1.7179 7.9474c.3618 1.4327.7524 2.9776 1.1475 4.6485 1.6005 6.7715-1.3365 11.7476-5.0655 13.1636-1.5971.6065-6.3271.7725-11.0234.7725zm-11.8931-26.3721c-.0688.7364-.1264 1.5625-.1889 2.4541a61.9166 61.9166 0 0 1 -1.3526 10.3311c-1.8022 7.4287.9072 10.3447 2.6826 11.4209a3.632 3.632 0 0 0 1.7657.5068c8.0673.2627 17.4228.2647 19.4775-.5156 2.5215-.958 5.7046-4.7881 4.1377-11.416-.3931-1.6631-.7817-3.2012-1.1416-4.627a70.3884 70.3884 0 0 1 -1.7534-8.1347c-1.125-9.37-6.0728-11.3545-6.7578-11.585l-8.8653.0059c-4.6045.29-7.313 4.18-8.0039 11.56z" fill="#3a3939"/><path d="m8.7185 2.5016s.4443 6.4884 3.5279 10.8011l1.78 2.24 3.4628.3363s5.4172-11.5121 3.528-13.3774c0 0-3.2619-2.09-6.4967-1.7063a13.9075 13.9075 0 0 0 -5.802 1.7063z" fill="#d8bda3"/><path d="m17.49 16.6286a.592.592 0 0 1 -.0728-.0039l-3.4624-.3359a.75.75 0 0 1 -.5151-.2793l-1.78-2.24c-3.1941-4.4651-3.6706-10.9426-3.6892-11.217a.7506.7506 0 0 1 .4068-.7188l.3413.668-.3023-.6875a14.6147 14.6147 0 0 1 6.0157-1.7637c3.4589-.4023 6.8471 1.7285 6.99 1.8193a.8012.8012 0 0 1 .1221.0977c.5317.5254 1.86 3.1035-3.3765 14.2305a.75.75 0 0 1 -.6776.4306zm-3.0738-1.8017 2.6177.2539c2.6289-5.6963 4.1948-11.0547 3.499-11.9961a10.5382 10.5382 0 0 0 -5.9238-1.544 13.2 13.2 0 0 0 -5.0946 1.3975c.1733 1.56.8979 6.51 3.3418 9.9277z" fill="#3a3939"/><path d="m12.8977 10.0038s.1623 3.668 1.563 4.7206" fill="#f2e0cc"/><path d="m14.46 15.2243a.4923.4923 0 0 1 -.3-.1006c-1.545-1.1611-1.7447-4.6982-1.7622-5.0976a.4993.4993 0 0 1 .477-.5215.478.478 0 0 1 .522.4766c.043.955.3716 3.5976 1.3638 4.3437a.5.5 0 0 1 -.3008.8994z" fill="#3a3939"/><path d="m17.9725 10.3849s-1.1671 4.5755-1.8056 4.4194" fill="#f2e0cc"/><path d="m16.2484 15.321a.8106.8106 0 0 1 -.2-.0312.5.5 0 0 1 .02-.9756 17.6358 17.6358 0 0 0 1.42-4.0537.5.5 0 0 1 .9688.248c-1.0956 4.294-1.786 4.8125-2.2088 4.8125z" fill="#3a3939"/><path d="m18.1009 30.8644s-1.5544-.8111-.8786-1.4193 3.1765.1689 3.751.4055a9.391 9.391 0 0 0 3.4468.5069s-4.0889 1.7572-6.3192.5069z" fill="#efcf6a"/><path d="m20.14 31.6882a4.5486 4.5486 0 0 1 -2.2173-.4941c-.2036-.1075-1.1543-.64-1.2393-1.3086a.8155.8155 0 0 1 .2881-.7188c.98-.8847 4.1138.3233 4.1445.3369a8.8645 8.8645 0 0 0 3.273.48.3753.3753 0 0 1 .1792.7188 12.9432 12.9432 0 0 1 -4.4282.9858zm-2.0718-2.1a.9489.9489 0 0 0 -.5947.1348c-.0225.2509.42.6093.8007.8086l.01.0048c1.14.6377 2.8633.4053 4.1684.0733a8.5732 8.5732 0 0 1 -1.6226-.4127 8.9932 8.9932 0 0 0 -2.7618-.6084z" fill="#3a3939"/><path d="m17.6278 28.45s-1.5544.811-.8785 1.4192 3.1764-.1692 3.7507-.4054a9.3935 9.3935 0 0 1 3.4468-.5069s-4.0887-1.7569-6.319-.5069z" fill="#efcf6a"/><path d="m17.6463 30.47a1.7145 1.7145 0 0 1 -1.1479-.3232.8138.8138 0 0 1 -.2881-.7178c.0844-.67 1.0361-1.2031 1.2392-1.31 2.3658-1.3212 6.4722.418 6.6455.4922a.3753.3753 0 0 1 -.1792.7188 8.8959 8.8959 0 0 0 -3.2729.48 10.2037 10.2037 0 0 1 -2.9966.66zm2.0108-2.0967a3.7885 3.7885 0 0 0 -1.8462.4034l-.0093.0049c-.3809.2-.8242.5595-.8472.7421.4531.43 2.4658-.0234 3.4033-.4072a8.5308 8.5308 0 0 1 1.6226-.4121 9.6388 9.6388 0 0 0 -2.3232-.3307z" fill="#3a3939"/><path d="m18.2148 34.0479s-1.3846-1.0756-.611-1.5533 3.0952.7335 3.6182 1.0689a9.3913 9.3913 0 0 0 3.3009 1.1143s-4.337.9987-6.3081-.6299z" fill="#efcf6a"/><path d="m21.7073 35.3571a5.9583 5.9583 0 0 1 -3.727-1.0166c-.1812-.1416-1.0215-.8349-.9854-1.51a.8159.8159 0 0 1 .4122-.6553c1.1191-.6914 3.9887 1.0537 4.017 1.0723a9.0158 9.0158 0 0 0 3.1348 1.0566.3748.3748 0 0 1 .0479.7383 14.1813 14.1813 0 0 1 -2.8995.3147zm-3.6225-2.6035a.5432.5432 0 0 0 -.2837.0606c-.0669.2412.3047.6738.6435.9375l.0088.0068c1.01.835 2.75.9131 4.0909.8164a8.4826 8.4826 0 0 1 -1.5249-.6963 7.7518 7.7518 0 0 0 -2.9346-1.125z" fill="#3a3939"/><path d="m18.498 31.9889s-1.6743.52-1.118 1.2395 3.1556.4011 3.7631.271a9.3878 9.3878 0 0 1 3.4819.1169s-3.7093-2.4593-6.127-1.6274z" fill="#efcf6a"/><path d="m19.1766 34.06a2.7634 2.7634 0 0 1 -2.0933-.6026.8158.8158 0 0 1 -.1548-.7578c.2027-.6445 1.2329-.998 1.4527-1.0674 2.5639-.875 6.2929 1.5664 6.4507 1.6709a.375.375 0 0 1 -.3042.6748 9.0477 9.0477 0 0 0 -3.3057-.1123 12.2436 12.2436 0 0 1 -2.0454.1944zm.4438-1.87a3.0658 3.0658 0 0 0 -1 .1533l-.01.0039c-.4107.1279-.9111.4023-.9658.5781.3676.5039 2.43.4209 3.42.207a9.2148 9.2148 0 0 1 1.6709-.1162 7.9842 7.9842 0 0 0 -3.1155-.8261z" fill="#3a3939"/><path d="m17.3892 27.169s-1.6392-.6223-1.04-1.3059 3.1742-.2062 3.7726-.039a9.39 9.39 0 0 0 3.4825.0976s-3.8532 2.2263-6.2151 1.2473z" fill="#efcf6a"/><path d="m18.7811 27.7917a4.0007 4.0007 0 0 1 -1.5308-.2744c-.2153-.083-1.2212-.499-1.3843-1.1543a.8141.8141 0 0 1 .2017-.7471c.87-.9912 4.1226-.163 4.1553-.1533a9.078 9.078 0 0 0 3.3066.0918.3746.3746 0 0 1 .2627.6914 11.8946 11.8946 0 0 1 -5.0112 1.5459zm-1.0728-1.9111a1.6637 1.6637 0 0 0 -1.0771.2295c.0073.251.49.5556.8906.708l.0107.0039c1.211.5029 2.8955.0664 4.1519-.419a8.6 8.6 0 0 1 -1.6631-.2177 9.8113 9.8113 0 0 0 -2.313-.3047z" fill="#3a3939"/><path d="m17.276 24.6339s-1.5544.8111-.8786 1.4193 3.1765-.1689 3.751-.4055a9.391 9.391 0 0 1 3.4468-.5069s-4.0889-1.7572-6.3192-.5069z" fill="#efcf6a"/><g fill="#3a3939"><path d="m17.2952 26.655a1.7111 1.7111 0 0 1 -1.1489-.3232.816.816 0 0 1 -.2881-.7178c.085-.67 1.0352-1.2031 1.2393-1.3106 2.3667-1.3193 6.4721.419 6.6455.4922a.3752.3752 0 0 1 .2158.4356.3845.3845 0 0 1 -.3945.2832 9.0956 9.0956 0 0 0 -3.273.48 10.2014 10.2014 0 0 1 -2.9961.6606zm2.01-2.0977a3.7842 3.7842 0 0 0 -1.8457.4034l-.01.0048c-.3813.2-.8247.5606-.8476.7422.4546.4336 2.4677-.02 3.4033-.4062a8.5 8.5 0 0 1 1.6235-.4131 9.6964 9.6964 0 0 0 -2.3232-.3311z"/><path d="m14.02 47.8142a.3744.3744 0 0 1 -.3017-.5967c2.4414-3.3252 1.3169-7.252.0151-11.7979-.3242-1.1337-.66-2.3056-.9531-3.5136-.5381-2.2158-.3452-3.8906.5728-4.9785a3.9239 3.9239 0 0 1 3.07-1.2481.3749.3749 0 0 1 -.0508.7481 3.2286 3.2286 0 0 0 -2.4507.9882c-.7515.8955-.89 2.3467-.4131 4.3125.29 1.1944.6231 2.3584.9458 3.4844 1.356 4.7363 2.5274 8.8272-.1318 12.4483a.373.373 0 0 1 -.3025.1533z"/><path d="m14.32 36.4861a.3744.3744 0 0 1 -.374-.3594c-.2544-5.9961 1.9517-6.6358 2.2041-6.6895a.379.379 0 0 1 .4439.29.375.375 0 0 1 -.2808.4423c-.05.0147-1.8433.6065-1.6182 5.9258a.3749.3749 0 0 1 -.3584.3907z"/><path d="m14.8338 38.3747a.3751.3751 0 0 1 -.375-.3691c-.0664-4.0166 2.6738-5.085 2.7905-5.1289a.375.375 0 0 1 .2637.7021c-.0967.0371-2.3618.9473-2.3042 4.4151a.375.375 0 0 1 -.3686.3808z"/></g><path d="m13.4762 20.3069s-3.6436 1.8046-3.1593 7.6941 6.7674 16.8711 3.34 19.6977c0 0 .8026-2.6257-.799-7.27-1.341-3.8881-4.275-10.4563-3.9315-13.2042s1.7536-4.9778 4.5498-6.9176z" fill="#efcf6a"/><path d="m13.658 48.0739a.3764.3764 0 0 1 -.36-.4834c.0073-.0253.74-2.5888-.795-7.039-.32-.9278-.7309-2.0088-1.166-3.1533-1.4326-3.7676-3.0556-8.0371-2.7827-10.22a9.4693 9.4693 0 0 1 3.6221-6.3564 4.8986 4.8986 0 0 1 1.1333-.8506.3752.3752 0 0 1 .38.6445q-.5516.3823-1.0313.78c-.9707.9619-2.2661 2.9492-1.9687 6.5742a38.4308 38.4308 0 0 0 2.1129 7.8601c1.7758 5.251 3.4531 10.2119 1.0932 12.1582a.3748.3748 0 0 1 -.2378.0857zm-3.4487-23.7519a8.4876 8.4876 0 0 0 -.9106 2.95c-.25 1.9961 1.4077 6.3564 2.7392 9.8594.4385 1.1533.8521 2.2412 1.1743 3.1757a16.8913 16.8913 0 0 1 1.023 5.5293c.3891-2.2783-.8936-6.0712-2.1431-9.7666a38.7958 38.7958 0 0 1 -2.1489-8.039 11.1215 11.1215 0 0 1 .2661-3.7088z" fill="#3a3939"/><path d="m15.3426 14.9646a.9624.9624 0 0 1 -.4409-.1963c-.1275-.1358-.5142-.5488-.2847-4.0762a.4947.4947 0 0 1 .5313-.4668.5.5 0 0 1 .4668.5313 16.6118 16.6118 0 0 0 .03 3.31.5.5 0 0 1 -.3027.8985z" fill="#3a3939"/><rect fill="#ed4a71" height="2.103" rx="1.0515" width="11.0008" x="10.0804" y="14.2228"/><path d="m20.03 16.8259h-8.8979a1.5518 1.5518 0 0 1 0-3.1035h8.8979a1.5518 1.5518 0 1 1 0 3.1035zm-8.8975-2.1035a.5518.5518 0 0 0 0 1.1035h8.8975a.5518.5518 0 1 0 0-1.1035z" fill="#3a3939"/></svg>