<svg viewBox="0 0 46.53 34.234" xmlns="http://www.w3.org/2000/svg"><path d="m34.912 28.346 5.664 1.66a2.647 2.647 0 0 0 .887 2.948 1.89 1.89 0 0 0 3.034-1.265 3.995 3.995 0 0 0 -.183-1.526l.594-.575c2.064-1.828.02-3.834-1.59-3.776a1.795 1.795 0 0 0 -1.773 1.568l-7.176-2.049z" fill="#fff7d7"/><path d="m42.68 34.143a2.877 2.877 0 0 1 -1.643-.572 3.339 3.339 0 0 1 -1.324-3.036l-4.482-1.314a.75.75 0 0 1 .422-1.44l5.847 1.715-.202.713a1.889 1.889 0 0 0 .593 2.128c.638.44.983.29 1.096.24a1.608 1.608 0 0 0 .764-.96 3.26 3.26 0 0 0 -.144-1.204l-.157-.453.936-.912c.574-.509.758-.992.572-1.458a1.8 1.8 0 0 0 -1.612-1.028 1.018 1.018 0 0 0 -1.054.898l-.096.885-7.52-2.145a.75.75 0 0 1 .413-1.443l5.966 1.703a2.471 2.471 0 0 1 2.237-1.398 3.29 3.29 0 0 1 3.059 1.972 2.717 2.717 0 0 1 -.946 3.115l-.253.245a4.67 4.67 0 0 1 .092 1.36 2.999 2.999 0 0 1 -1.595 2.17 2.267 2.267 0 0 1 -.97.219z" fill="#3a3939"/><path d="m15.832 1.003s10.26.739 15.707 18.298c1.148 3.7.43 3.777 4.782 5.518l1.1.35c.785.212 1.826.279 1.651 1.073l-.214 2.038c-.172.78-.322 2.381-2.345 1.734a9.813 9.813 0 0 0 -4.058-.508c-5.178.796-5.492 3.282-14.706 3.92-10.607.735-14.135-5.94-14.135-5.94" fill="#9b2310"/><path d="m16.122 34.234c-9.674 0-13.026-6.123-13.171-6.398l1.326-.7c.136.252 3.465 6.23 13.42 5.542a23.832 23.832 0 0 0 9.706-2.323 17.064 17.064 0 0 1 4.937-1.59 10.588 10.588 0 0 1 4.402.536 1.245 1.245 0 0 0 .91.05c.253-.147.356-.66.432-1.032l.042-.2.198-1.939a4.8 4.8 0 0 0 -.658-.181c-.15-.035-.299-.068-.44-.107l-1.132-.358c-3.832-1.532-4.144-1.948-4.843-4.517-.115-.42-.248-.911-.429-1.493-5.234-16.876-14.946-17.767-15.044-17.774l.108-1.496c.44.031 10.835.982 16.369 18.825.186.602.325 1.109.443 1.544.57 2.094.592 2.175 3.902 3.5l1.048.33c.091.024.22.053.35.082.632.144 2.113.48 1.807 1.869l-.25 2.213a2.82 2.82 0 0 1 -1.142 2.028 2.562 2.562 0 0 1 -2.128.085 9.171 9.171 0 0 0 -3.716-.483 15.62 15.62 0 0 0 -4.546 1.474 25.384 25.384 0 0 1 -10.222 2.453q-.869.06-1.678.06z" fill="#3a3939"/><ellipse cx="11.761" cy="16.072" fill="#e2635d" rx="15.61" ry="10.603" transform="matrix(.26077411 -.96539985 .96539985 .26077411 -6.821871 23.234906)"/><path d="m9.592 32.143a7.979 7.979 0 0 1 -2.096-.277c-6.044-1.632-9.047-10.046-6.696-18.754 2.353-8.708 9.187-14.473 15.227-12.833 6.044 1.633 9.047 10.046 6.694 18.754-2.083 7.711-7.679 13.11-13.13 13.11zm-7.342-18.64c-2.137 7.909.392 15.497 5.637 16.914 5.244 1.415 11.25-3.867 13.386-11.776s-.392-15.498-5.637-16.916c-5.244-1.411-11.25 3.868-13.386 11.777z" fill="#3a3939"/><ellipse cx="11.403" cy="15.975" fill="#ff917b" rx="12.264" ry="7.163" transform="matrix(.26077411 -.96539985 .96539985 .26077411 -6.99287 22.817588)"/><path d="m9.351 28.717a5.1 5.1 0 0 1 -1.342-.178c-4.283-1.157-6.148-7.583-4.246-14.628 1.903-7.043 6.746-11.666 11.033-10.5 4.285 1.158 6.15 7.582 4.247 14.627-1.707 6.318-5.78 10.68-9.692 10.68zm-4.14-14.415c-1.627 6.025-.167 11.883 3.19 12.79 3.346.897 7.566-3.419 9.193-9.444s.167-11.882-3.189-12.79c-3.352-.894-7.566 3.42-9.194 9.444z" fill="#3a3939"/><ellipse cx="10.198" cy="15.65" fill="#f9ebea" rx="2.04" ry="1.36" transform="matrix(.26077411 -.96539985 .96539985 .26077411 -7.569882 21.414033)"/><path d="m9.91 18.402a1.693 1.693 0 0 1 -.44-.058c-1.143-.31-1.718-1.734-1.31-3.244s1.62-2.453 2.764-2.144c1.143.309 1.719 1.734 1.31 3.244a2.685 2.685 0 0 1 -2.325 2.202zm.58-4.003c-.229 0-.687.37-.882 1.092-.209.772.045 1.348.253 1.405.215.05.718-.315.926-1.087s-.046-1.349-.253-1.405a.216.216 0 0 0 -.045-.005zm9.342 15.038a.5.5 0 0 1 -.24-.939c2.655-1.46 3.88-6.546 3.892-6.597a.495.495 0 0 1 .601-.372.5.5 0 0 1 .372.6c-.053.228-1.343 5.574-4.384 7.246a.495.495 0 0 1 -.24.062z" fill="#3a3939"/></svg>