<svg xmlns="http://www.w3.org/2000/svg" viewBox="0 0 25.4457 55.8565"><defs><style>.cls-1{fill:#f7f7f5;}.cls-2{fill:#d2f1f9;}.cls-3{fill:none;}.cls-3,.cls-4,.cls-5,.cls-6,.cls-7{stroke:#3a3939;}.cls-3,.cls-4,.cls-5,.cls-6{stroke-linecap:round;stroke-linejoin:round;}.cls-4{fill:#bcb8b8;}.cls-5,.cls-6{fill:#f7f6e8;}.cls-6{stroke-width:0.5px;}.cls-7{fill:#a4b3ea;stroke-miterlimit:10;}</style></defs><title>Asset 175</title><g id="Layer_2" data-name="Layer 2"><g id="Layer_3" data-name="Layer 3"><path class="cls-1" d="M24.9457,21.5167V51.3273a4.029,4.029,0,0,1-4.0292,4.0292H4.5292A4.029,4.029,0,0,1,.5,51.3273V21.5167a8.9967,8.9967,0,0,1,.6313-3.31l3.1956-8.0851a6.7646,6.7646,0,0,1,3.0225.3924c2.2888.9384,3.42-.0512,4.7677-.4168a6.8448,6.8448,0,0,1,3.9683-.3656c1.5161.3607,3.4271,1.031,5.1358.6459l3.0932,7.8292A8.9967,8.9967,0,0,1,24.9457,21.5167Z"/><path class="cls-2" d="M19.5125,6.7893l1.7087,3.588c-1.7087.3851-3.62-.2852-5.1358-.6459a6.8448,6.8448,0,0,0-3.9683.3656c-1.3479.3656-2.4789,1.3552-4.7677.4168a6.7646,6.7646,0,0,0-3.0225-.3924l1.616-3.3321a1.2175,1.2175,0,0,0,.12-.49c.0244-.7484.0073-2.6033.0073-2.6033a.5636.5636,0,0,0-.5655-.5192.569.569,0,0,1-.568-.57V1.6291A1.1277,1.1277,0,0,1,6.0648.5H19.3809a1.1276,1.1276,0,0,1,1.1285,1.1286V2.6529a.5529.5529,0,0,1-.5923.524.56.56,0,0,0-.5411.5192s-.0073,1.8842.0195,2.62A1.1764,1.1764,0,0,0,19.5125,6.7893Z"/><path class="cls-3" d="M21.2212,10.3773l-1.7087-3.588a1.1764,1.1764,0,0,1-.117-.4729c-.0268-.7361-.0195-2.62-.0195-2.62a.56.56,0,0,1,.5411-.5192.5529.5529,0,0,0,.5923-.524V1.6291A1.1276,1.1276,0,0,0,19.3809.5H6.0648A1.1277,1.1277,0,0,0,4.9362,1.6291v.9774a.569.569,0,0,0,.568.57.5636.5636,0,0,1,.5655.5192s.0171,1.8549-.0073,2.6033a1.2175,1.2175,0,0,1-.12.49l-1.616,3.3321"/><path class="cls-3" d="M4.3269,10.1214,1.1313,18.2065A8.9967,8.9967,0,0,0,.5,21.5167V51.3273a4.029,4.029,0,0,0,4.0292,4.0292H20.9165a4.029,4.029,0,0,0,4.0292-4.0292V21.5167a8.9967,8.9967,0,0,0-.6313-3.31l-3.0932-7.8292c-1.7087.3851-3.62-.2852-5.1358-.6459a6.8448,6.8448,0,0,0-3.9683.3656c-1.3479.3656-2.4789,1.3552-4.7677.4168A6.7646,6.7646,0,0,0,4.3269,10.1214Z"/><rect class="cls-4" x="4.8369" y="0.5" width="15.7722" height="3.0622" rx="1.1259" ry="1.1259"/><path class="cls-5" d="M18.4486,31.03a.9484.9484,0,0,0-1.1338-.9343L17.311,30.09l.0013-.0124a.8512.8512,0,0,0-.6993-.8368q-.1536-.1513-.3193-.29a.89.89,0,0,0-1.2125-.7975.7952.7952,0,0,0-.6981-.4182c-.0609,0-.0753.01-.0753-.1415a.7451.7451,0,0,0-1.49,0c0,.08-.2933-.22-.51-.22a.9252.9252,0,0,0-.857.5779c-.1124.0333-.2236.07-.3328.11a.8463.8463,0,0,0-1.3193.2972A.7981.7981,0,0,0,8.8325,29.57h-.002A1.54,1.54,0,0,0,7.457,31.8105a.8168.8168,0,0,0,.2554,1.37,5.2331,5.2331,0,1,0,10.3312-1.3727A.95.95,0,0,0,18.4486,31.03Z"/><line class="cls-6" x1="8.6841" y1="30.3439" x2="9.0934" y2="30.6276"/><line class="cls-6" x1="16.4205" y1="31.1698" x2="16.8298" y2="31.4535"/><line class="cls-6" x1="13.7677" y1="30.1408" x2="13.6658" y2="30.6283"/><line class="cls-6" x1="10.1534" y1="31.4535" x2="10.4179" y2="31.8755"/><line class="cls-6" x1="10.7172" y1="28.9254" x2="10.9817" y2="29.3474"/><line class="cls-6" x1="6.9755" y1="30.5162" x2="7.3982" y2="30.7796"/><line class="cls-6" x1="15.4218" y1="27.6104" x2="15.1781" y2="28.2292"/><line class="cls-6" x1="16.0431" y1="29.6133" x2="15.9413" y2="30.1008"/><line class="cls-6" x1="14.9338" y1="31.7913" x2="15.1781" y2="32.2252"/><line class="cls-6" x1="12.0045" y1="30.7603" x2="11.5792" y2="30.5355"/><line class="cls-6" x1="13.5419" y1="28.3172" x2="13.9934" y2="28.5274"/><path class="cls-7" d="M19.146,32.9a.5.5,0,0,0-.5006-.5368H7.1993a.5.5,0,0,0-.5006.5368A6.2475,6.2475,0,0,0,9.945,37.8553a.3064.3064,0,0,1,.1627.2687v.3276a.1581.1581,0,0,0,.1581.1581h5.3131a.1581.1581,0,0,0,.1581-.1581V38.124a.3064.3064,0,0,1,.1627-.2687A6.2475,6.2475,0,0,0,19.146,32.9Z"/><path class="cls-3" d="M17.5165,5.7031V6.7058a1.399,1.399,0,0,0,.1713.6708l.6237,1.1413"/></g></g></svg>
