<svg xmlns="http://www.w3.org/2000/svg" viewBox="0 0 25.4457 55.8559"><defs><style>.cls-1{fill:#f7f7f5;}.cls-2{fill:#d2f1f9;}.cls-3,.cls-6{fill:none;}.cls-3,.cls-4,.cls-5,.cls-6{stroke:#3a3939;stroke-linecap:round;stroke-linejoin:round;}.cls-4{fill:#bcb8b8;}.cls-5{fill:#efcf6a;}.cls-5,.cls-6{stroke-width:0.75px;}</style></defs><title>Asset 176</title><g id="Layer_2" data-name="Layer 2"><g id="Layer_3" data-name="Layer 3"><path class="cls-1" d="M24.9457,21.5161V51.3268a4.0289,4.0289,0,0,1-4.0292,4.0291H4.5292A4.0289,4.0289,0,0,1,.5,51.3268V21.5161a8.9966,8.9966,0,0,1,.6313-3.31l3.1956-8.0827a6.7385,6.7385,0,0,1,3.0249.39c2.2864.9384,3.4174-.0512,4.7653-.4169a6.8456,6.8456,0,0,1,3.9683-.3656c1.5161.3608,3.4271,1.0311,5.1358.646l3.0932,7.8292A8.9966,8.9966,0,0,1,24.9457,21.5161Z"/><path class="cls-2" d="M19.5125,6.7888l1.7087,3.588c-1.7087.3851-3.62-.2852-5.1358-.646a6.8456,6.8456,0,0,0-3.9683.3656c-1.3479.3657-2.4789,1.3553-4.7653.4169a6.7385,6.7385,0,0,0-3.0249-.39l1.616-3.3345a1.2179,1.2179,0,0,0,.12-.49c.0244-.7483.0073-2.6032.0073-2.6032a.5772.5772,0,0,0-.18-.3705.57.57,0,0,0-.3851-.1487.5686.5686,0,0,1-.5679-.568V1.631A1.13,1.13,0,0,1,6.0648.5H19.3809a1.13,1.13,0,0,1,1.1285,1.131V2.6523a.5529.5529,0,0,1-.5923.5241.56.56,0,0,0-.5411.5192s-.0073,1.8866.0195,2.6227A1.2079,1.2079,0,0,0,19.5125,6.7888Z"/><path class="cls-3" d="M21.2212,10.3768l-1.7087-3.588a1.2079,1.2079,0,0,1-.117-.4705c-.0268-.7361-.0195-2.6227-.0195-2.6227a.56.56,0,0,1,.5411-.5192.5529.5529,0,0,0,.5923-.5241V1.631A1.13,1.13,0,0,0,19.3809.5H6.0648A1.13,1.13,0,0,0,4.9363,1.631v.9774a.5686.5686,0,0,0,.5679.568.57.57,0,0,1,.3851.1487.5772.5772,0,0,1,.18.3705s.0171,1.8549-.0073,2.6032a1.2179,1.2179,0,0,1-.12.49l-1.616,3.3345"/><path class="cls-3" d="M4.3269,10.1233,1.1313,18.206A8.9966,8.9966,0,0,0,.5,21.5161V51.3268a4.0289,4.0289,0,0,0,4.0292,4.0291H20.9165a4.0289,4.0289,0,0,0,4.0292-4.0291V21.5161a8.9966,8.9966,0,0,0-.6313-3.31l-3.0932-7.8292c-1.7087.3851-3.62-.2852-5.1358-.646a6.8456,6.8456,0,0,0-3.9683.3656c-1.3479.3657-2.4789,1.3553-4.7653.4169A6.7385,6.7385,0,0,0,4.3269,10.1233Z"/><rect class="cls-4" x="4.837" y="0.5" width="15.7722" height="3.0622" rx="1.1259" ry="1.1259"/><path class="cls-3" d="M17.5167,5.7031V6.7058a1.399,1.399,0,0,0,.1713.6708l.6236,1.1413"/><path class="cls-5" d="M14.2955,28.5388s-1.4573-.76-.8237-1.3306,2.9779.1584,3.5165.38a8.8062,8.8062,0,0,0,3.2314.4752S16.3864,29.7109,14.2955,28.5388Z"/><path class="cls-5" d="M13.852,26.2754s-1.4573.76-.8237,1.33,2.9779-.1584,3.5165-.38a8.8016,8.8016,0,0,1,3.2314-.4752S15.9429,25.1032,13.852,26.2754Z"/><path class="cls-5" d="M14.4022,31.5234s-1.298-1.0084-.5728-1.4563,2.9018.6877,3.3921,1.0021a8.8038,8.8038,0,0,0,3.0945,1.0447S16.25,33.05,14.4022,31.5234Z"/><path class="cls-5" d="M14.6677,29.593s-1.57.4879-1.0481,1.1621,2.9584.376,3.5279.254a8.8042,8.8042,0,0,1,3.2643.11S16.9343,28.8132,14.6677,29.593Z"/><path class="cls-5" d="M13.6282,25.0744s-1.5367-.5835-.9746-1.2243,2.9759-.1934,3.5368-.0366a8.8027,8.8027,0,0,0,3.2648.0915S15.8426,25.9922,13.6282,25.0744Z"/><path class="cls-5" d="M13.4837,22.9072s-1.3883.88-.709,1.395,2.9541-.4079,3.4721-.6741a8.8053,8.8053,0,0,1,3.18-.7449S15.4688,21.5636,13.4837,22.9072Z"/><path class="cls-6" d="M12.6985,24.0283s-4.4363-.3083-3.05,5.4037,3.7994,10.59.8215,14.6457"/><path class="cls-6" d="M12.5388,27.5451s-2.02.426-1.7876,5.9121"/><path class="cls-6" d="M13.62,30.7551s-2.4459.9126-2.387,4.4734"/><path class="cls-5" d="M9.96,18.6411S6.5439,20.333,6.9979,25.8543,13.3424,41.671,10.1292,44.321c0,0,.7525-2.4616-.7491-6.8152-1.2571-3.6452-4.0078-9.8029-3.6857-12.379A9.0014,9.0014,0,0,1,9.96,18.6411Z"/></g></g></svg>
