<svg xmlns="http://www.w3.org/2000/svg" viewBox="0 0 19.3334 65.8424"><defs><style>.cls-1{fill:#0d4c32;}.cls-1,.cls-2,.cls-4{stroke:#3a3939;stroke-linecap:round;stroke-linejoin:round;}.cls-1,.cls-2{stroke-width:1.5px;}.cls-2{fill:#f7f6e8;}.cls-3{fill:#3a3939;}.cls-4{fill:#771c1c;}</style></defs><title>Asset 145</title><g id="Layer_2" data-name="Layer 2"><g id="Layer_3" data-name="Layer 3"><path class="cls-1" d="M18.39,30.6914c-.02-3.4052-2.5817-6.54-5.57-8.1722V2.6749h-6.51L6.3053,4.7483V6.7937h.0052V22.4389C3.5626,24.1481.75,27.1407.75,30.3768V63.57a1.5227,1.5227,0,0,0,1.5227,1.5227H17.0606a1.5227,1.5227,0,0,0,1.5227-1.5316Z"/><rect class="cls-2" x="6.7361" y="8.4088" width="5.9443" height="9.682"/><rect class="cls-2" x="1.1878" y="35.4683" width="17.0409" height="20.0279"/><path class="cls-3" d="M15.7893,30.5122a.5.5,0,0,1-.5-.5c0-1.7734-2.184-3.6621-2.206-3.6816a.5.5,0,0,1,.6489-.7608c.1045.09,2.5571,2.2061,2.5571,4.4424A.5.5,0,0,1,15.7893,30.5122Z"/><path class="cls-4" d="M5.8355,2.6749H13.29V1.2357A.7357.7357,0,0,0,12.5538.5H6.5712a.7357.7357,0,0,0-.7357.7357Z"/></g></g></svg>
