<svg xmlns="http://www.w3.org/2000/svg" viewBox="0 0 48.769 22.2535"><defs><style>.cls-1{fill:#72afce;}.cls-2{fill:#3a3939;}</style></defs><title>Asset 132</title><g id="Layer_2" data-name="Layer 2"><g id="Layer_3" data-name="Layer 3"><path class="cls-1" d="M30.778,7.3963s3.5259-3.5984,4.6253-3.1895c0,0-2.9218,3.4452-2.0561,4.4214"/><path class="cls-2" d="M33.3823,9.3941a.8.8,0,0,1-.5962-.2686c-.59-.665-.3457-1.708.2-2.7636-.5416.4609-1.1226.998-1.6724,1.5585a.75.75,0,1,1-1.0713-1.0488c1.7642-1.8008,4.1328-3.8467,5.4229-3.3681a.7508.7508,0,0,1,.31,1.1884c-1.1768,1.3887-2.147,3.0528-2.0356,3.4922a.7339.7339,0,0,1-.5577,1.21Z"/><path class="cls-1" d="M34.7207,17.5479s-.5566,2.7845,1.8626,2.9014c0,0-3.7911.6994-5.8053-1.4507"/><path class="cls-2" d="M35.1572,21.3091a6.7032,6.7032,0,0,1-4.9267-1.7978.75.75,0,1,1,1.0947-1.0254,4.6241,4.6241,0,0,0,2.9058,1.27,4.1114,4.1114,0,0,1-.2456-2.3555.75.75,0,0,1,1.4712.292,2.3271,2.3271,0,0,0,.2539,1.6231A1.1521,1.1521,0,0,0,36.62,19.7a.75.75,0,0,1,.1,1.4864A9.1788,9.1788,0,0,1,35.1572,21.3091Z"/><path class="cls-1" d="M16.3578,4.5392S21.3956-.3338,23.0322.9486c0,0-3.0271,3.6267-2.125,4.2288"/><path class="cls-2" d="M20.9068,5.9273a.7492.7492,0,0,1-.4156-.126,1.1308,1.1308,0,0,1-.4878-.791c-.1225-.8506.7115-2.2344,1.5025-3.3242a18.428,18.428,0,0,0-4.6265,3.3926A.75.75,0,0,1,15.8364,4c1.2925-1.25,5.6656-5.1992,7.6582-3.6426a.7507.7507,0,0,1,.1133,1.0713,11.8556,11.8556,0,0,0-2.11,3.2862.75.75,0,0,1-.5913,1.2119Z"/><path class="cls-1" d="M14.7276,5.1774C7.4586,5.1774.7593,12.4707.75,14.834.7416,16.9283,6.326,21.5168,14.603,21.4765c9.834-.0479,24.6922-5.6983,25.2164-5.1741.8212,1.8617,4.56,5.6077,7.269,5.165s-1.375-4.5783-1.3215-8.12,2.9048-6.7423,1.9151-6.99-5.243,2.0006-7.8626,4.6737C39.8194,11.0312,26.4969,5.1774,14.7276,5.1774Z"/><path class="cls-2" d="M46.6255,22.2535c-2.8887.0009-6.1382-3.24-7.2607-5.1954-.7017.1348-2.295.5938-3.8443,1.04-5.3188,1.5312-14.2212,4.0957-20.914,4.1279h-.1133c-6.1621,0-10.8433-2.4892-12.9883-4.6318A4.403,4.403,0,0,1,0,14.8306C.0112,11.9976,7.1831,4.4273,14.7276,4.4273c10.6918,0,22.42,4.666,24.9248,5.7168C42.104,7.82,46.4053,5.2554,47.8643,5.63a.9956.9956,0,0,1,.6738.541c.2812.5948-.0425,1.2793-.5786,2.4141a12.0415,12.0415,0,0,0-1.4424,4.7734A10.8625,10.8625,0,0,0,47.81,17.6011c.71,1.56,1.271,2.792.7646,3.7393a1.7605,1.7605,0,0,1-1.3647.8672A3.6477,3.6477,0,0,1,46.6255,22.2535Zm-6.9214-6.7413a.796.796,0,0,1,.6455.26A.7414.7414,0,0,1,40.5054,16c.7837,1.7773,4.2812,5.0947,6.4619,4.7275a.6164.6164,0,0,0,.2852-.0947c.16-.2832-.4458-1.6143-.8082-2.41a11.9115,11.9115,0,0,1-1.4272-4.8867,13.4368,13.4368,0,0,1,1.5864-5.3906c.1138-.2412.2412-.5118.3438-.7471a20.1724,20.1724,0,0,0-6.5923,4.3584.7476.7476,0,0,1-.8374.1611c-.1318-.0576-13.3189-5.79-24.79-5.79-7.1055,0-13.2208,7.2178-13.2276,8.9092a3.0776,3.0776,0,0,0,1.0654,1.6972c1.9537,1.9512,6.2613,4.2539,12.0337,4.1924,6.4849-.0312,15.2622-2.56,20.5064-4.0693A25.539,25.539,0,0,1,39.7041,15.5122Z"/><circle class="cls-2" cx="8.5292" cy="11.3914" r="1.0706"/><path class="cls-1" d="M45.4825,10.3207s-.4157-.2475-1.506.2977"/><path class="cls-2" d="M43.9771,11.3687a.75.75,0,0,1-.3365-1.4209c1.3155-.66,1.9952-.41,2.2261-.2705a.75.75,0,0,1-.667,1.3379,1.8935,1.8935,0,0,0-.8872.2744A.7512.7512,0,0,1,43.9771,11.3687ZM45.1,10.9654l0,.0009Zm-.0014-.001.0009.001Z"/><line class="cls-1" x1="45.135" y1="13.9577" x2="42.9671" y2="13.9577"/><path class="cls-2" d="M45.1348,14.7076H42.9673a.75.75,0,0,1,0-1.5h2.1675a.75.75,0,0,1,0,1.5Z"/><path class="cls-1" d="M46.2356,17.6687s-.4157.2475-1.5061-.2977"/><path class="cls-2" d="M45.9282,18.4761a3.4831,3.4831,0,0,1-1.5346-.4346A.75.75,0,0,1,45.0654,16.7a1.96,1.96,0,0,0,.8873.2745.75.75,0,0,1,.6669,1.3379A1.3313,1.3313,0,0,1,45.9282,18.4761Zm-.0761-1.4521-.001.0009Zm.0014-.001-.0009.001Z"/><path class="cls-1" d="M9.0766,20.4493s4.3011-4.0686,3.3678-6.1565"/><path class="cls-2" d="M9.0772,21.1988a.75.75,0,0,1-.5162-1.295c1.5782-1.4951,3.6861-4.2148,3.1988-5.3056a.75.75,0,1,1,1.3691-.6113c1.0952,2.4492-2.7539,6.2666-3.5371,7.0068A.7478.7478,0,0,1,9.0772,21.1988Z"/><path class="cls-1" d="M.75,14.834A11.0365,11.0365,0,0,1,4.917,15.9677"/><path class="cls-2" d="M4.9165,16.7173a.7489.7489,0,0,1-.4155-.126,10.0151,10.0151,0,0,0-3.8081-1.01.75.75,0,0,1,.1142-1.4961A11.6362,11.6362,0,0,1,5.333,15.3433a.75.75,0,0,1-.4165,1.374Z"/><path class="cls-1" d="M14.3263,17.7593l6.4094-.3538S17.6534,21.4,13.89,20.5924"/><path class="cls-2" d="M14.917,21.4517a5.6114,5.6114,0,0,1-1.1841-.126.75.75,0,0,1,.3145-1.4668A5.789,5.789,0,0,0,18.84,18.2613l-4.4726.247a.75.75,0,0,1-.083-1.498l6.41-.3535a.727.727,0,0,1,.7051.3994.75.75,0,0,1-.07.8076C21.2051,18.0249,18.5152,21.4517,14.917,21.4517Z"/></g></g></svg>
