<svg xmlns="http://www.w3.org/2000/svg" viewBox="0 0 44.1508 43.7041"><defs><style>.cls-1{fill:#c4764e;stroke:#3a3939;stroke-linecap:round;stroke-linejoin:round;stroke-width:1.5px;}.cls-2{fill:#ad6647;}.cls-3{fill:#3a3939;}.cls-4{fill:#dd8c68;}.cls-5{fill:#efcca3;}.cls-6{fill:#fff7d7;}</style></defs><title>Asset 153</title><g id="Layer_2" data-name="Layer 2"><g id="Layer_3" data-name="Layer 3"><path class="cls-1" d="M6.3877,16.5948l2.519,19.3773a1.4644,1.4644,0,0,0,1.7961,1.2386c2.7831-.6732,8.473-2.0231,10.7928-2.3784,2.5427-.3894,8.9532-.887,12.0425-1.1145a1.4659,1.4659,0,0,0,1.3173-1.8033L30.34,12.9264s4.4718-4.8574.79-8.4661-9.7531-1.07-13.6172-.6716C13.9952,4.1508,6.25,2.9245,3.346,7.8027S6.3877,16.5948,6.3877,16.5948Z"/><path class="cls-2" d="M10.3564,39.0523a3.2757,3.2757,0,0,1-3.2352-2.8468L4.7024,17.5964C2.194,15.6277-.9331,11.4722,1.7994,6.8817c2.8178-4.7321,8.9631-4.7751,13.03-4.8041.9519-.0062,1.851-.0123,2.4987-.0791.8007-.0826,1.7658-.2795,2.787-.4869A28.91,28.91,0,0,1,25.8155.75,8.9108,8.9108,0,0,1,32.39,3.1745c3.4867,3.418,1.72,7.8-.0914,10.2076l4.3076,18.116a3.266,3.266,0,0,1-2.9347,4.0148c-2.7316.2013-9.3568.7093-11.903,1.0987-2.2905.3506-8.2055,1.7595-10.6427,2.3493a3.2931,3.2931,0,0,1-.7682.0914Z"/><path class="cls-3" d="M10.3572,39.8027h-.0009a4.0277,4.0277,0,0,1-3.9786-3.5l-2.38-18.31C.9471,15.4756-1.549,11.041,1.1551,6.498c3.0332-5.0947,9.4316-5.1406,13.6655-5.1709.9356-.0058,1.815-.0107,2.43-.0751.749-.0762,1.6738-.2637,2.6528-.4629A29.7717,29.7717,0,0,1,25.8157,0a9.6248,9.6248,0,0,1,7.0991,2.6387c3.4585,3.3906,2.4,7.7988.1929,10.9062l4.2276,17.7793a4.0163,4.0163,0,0,1-3.6089,4.9365c-2.7256.2-9.3355.709-11.8448,1.0918-2.2636.3467-8.1528,1.75-10.58,2.337A4.039,4.039,0,0,1,10.3572,39.8027ZM25.8157,1.5a28.2788,28.2788,0,0,0-5.5508.7461c-1.08.22-2.04.4141-2.86.498-.6865.0713-1.6016.0772-2.5708.083-3.9.0284-9.79.07-12.39,4.4385-2.937,4.9336,1.7515,8.98,2.7212,9.7412a.7477.7477,0,0,1,.2808.4932L7.865,36.1084a2.5406,2.5406,0,0,0,3.085,2.123c2.4448-.5908,8.3838-2.0058,10.7051-2.3613,2.562-.3916,9.2182-.9033,11.9609-1.1055a2.5159,2.5159,0,0,0,2.26-3.0927L31.5687,13.5557a.75.75,0,0,1,.13-.625c.6782-.9014,3.8755-5.584.166-9.2207A8.198,8.198,0,0,0,25.8157,1.5Z"/><path class="cls-4" d="M6.3877,16.5948l2.519,19.3773a1.4644,1.4644,0,0,0,1.7961,1.2386c2.7831-.6732,8.473-2.0231,10.7928-2.3784,2.5427-.3894,8.9532-.887,12.0425-1.1145a1.4659,1.4659,0,0,0,1.3173-1.8033L30.34,12.9264s4.4718-4.8574.79-8.4661-9.7531-1.07-13.6172-.6716C13.9952,4.1508,6.25,2.9245,3.346,7.8027S6.3877,16.5948,6.3877,16.5948Z"/><path class="cls-3" d="M10.36,37.752a1.9652,1.9652,0,0,1-1.9493-1.7159L5.92,16.876c-1.0381-.7647-5.8008-4.63-3.0034-9.3291,2.4429-4.1035,7.9229-4.1416,11.9243-4.169,1.0254-.0068,1.9112-.0136,2.6206-.0859.8643-.09,1.8589-.292,2.9121-.5068,3.6006-.7334,8.0811-1.6465,11.1065,1.3173,3.0732,3.0127,1.0444,7.0606-.5928,8.962l4.4546,18.7343a1.9661,1.9661,0,0,1-1.7671,2.418c-3.4238.252-9.5361.7314-12.0034,1.1094-2.3608.3623-8.3047,1.7783-10.75,2.3711A1.9925,1.9925,0,0,1,10.36,37.752ZM25.8216,3.0469a27.0136,27.0136,0,0,0-5.2485.7187c-1.0777.2188-2.0962.4268-3.0093.5205-.7574.0782-1.6651.084-2.7163.0918C11.0838,4.4043,5.93,4.44,3.7757,8.0586c-2.6294,4.416,2.66,7.97,2.8867,8.1182a.4986.4986,0,0,1,.2207.3535L9.4022,35.9072a.9643.9643,0,0,0,.4125.6758.9465.9465,0,0,0,.7706.1416c2.4585-.5947,8.4355-2.02,10.8344-2.3867,2.501-.3838,8.6431-.8652,12.0816-1.1191a.9651.9651,0,0,0,.8676-1.1885L29.8538,13.042a.4981.4981,0,0,1,.1182-.4531c.1689-.1846,4.0971-4.5469.8076-7.7715A6.7469,6.7469,0,0,0,25.8216,3.0469Z"/><path class="cls-1" d="M14.3783,20.1328l-.1773,19.54a1.4645,1.4645,0,0,0,1.6082,1.4745c2.8493-.2831,8.6711-.8354,11.0176-.8674,2.5722-.0351,8.99.3561,12.0812.5569a1.4661,1.4661,0,0,0,1.5534-1.6045L38.6076,19.8026s5.0989-4.1944,1.95-8.2764S31.0448,9.122,27.1628,8.9832c-3.5336-.1264-11.0358-2.409-14.5847,2.0221S14.3783,20.1328,14.3783,20.1328Z"/><path class="cls-5" d="M15.6624,42.9538a3.2652,3.2652,0,0,1-3.2616-3.2977l.1705-18.7638c-2.2131-2.2948-4.7373-6.8431-1.3975-11.0118,1.83-2.286,4.6011-3.397,8.4727-3.397a38.6818,38.6818,0,0,1,5.095.4351c.9431.1248,1.8352.2426,2.4856.2654q.2134.008.4359.0079c.7119,0,1.5275-.0518,2.3915-.1054,1.0169-.0642,2.0681-.13,3.1544-.13,2.6174,0,6.3738.36,8.7732,3.47,2.983,3.8663.6284,7.9629-1.4967,10.0969L42.2537,39.06a3.2681,3.2681,0,0,1-3.2484,3.58c-.0712,0-.1424-.0027-.2145-.007-2.5655-.167-8.8339-.5564-11.6147-.5564l-.3243.0026c-2.3265.0317-8.3725.6109-10.8651.8587q-.1635.0159-.3243.0159Z"/><path class="cls-3" d="M15.6624,43.7041a4.0155,4.0155,0,0,1-4.0117-4.0547l.1675-18.4629c-2.6748-2.9131-4.5362-7.6484-1.23-11.7744,1.9814-2.4756,4.9443-3.6787,9.0581-3.6787a39.1811,39.1811,0,0,1,5.188.4414c.9521.125,1.8125.2383,2.4184.2588.7793.0332,1.6382-.0264,2.6026-.0859l.1533-.01c1.0254-.0645,2.0874-.1318,3.2-.1318,2.7754,0,6.7656.39,9.3672,3.7627,2.959,3.8349,1.3032,8.0546-1.3115,10.8281L43,38.9893a4.0276,4.0276,0,0,1-1.0288,3.0878A3.9826,3.9826,0,0,1,38.74,43.3809c-2.562-.167-8.8212-.5547-11.5639-.5547l-.3174.0029c-2.2813.0313-8.3115.6084-10.7979.8545A3.9149,3.9149,0,0,1,15.6624,43.7041ZM19.6463,7.2334c-3.6289,0-6.2085,1.02-7.8872,3.1162-3.5908,4.4815.4961,9.1348,1.352,10.0225a.75.75,0,0,1,.21.5273l-.17,18.7637a2.5149,2.5149,0,0,0,2.7622,2.5283c2.5054-.249,8.5864-.83,10.9287-.8623l.3276-.0029c2.7935,0,9.0918.3906,11.6705.5586a2.4516,2.4516,0,0,0,2.0219-.8164,2.5285,2.5285,0,0,0,.6455-1.9375L39.7386,20.5947a.75.75,0,0,1,.2153-.6006c.7964-.8,4.6079-4.9961,1.4346-9.1093-2.1983-2.85-5.7212-3.1787-8.18-3.1787-1.0654,0-2.1035.0654-3.1069.1289l-.1553.01a27.1661,27.1661,0,0,1-2.75.0879C26.5228,7.91,25.6272,7.792,24.68,7.667A38.37,38.37,0,0,0,19.6463,7.2334Z"/><path class="cls-6" d="M14.3783,20.1328l-.1773,19.54a1.4645,1.4645,0,0,0,1.6082,1.4745c2.8493-.2831,8.6711-.8354,11.0176-.8674,2.5722-.0351,8.99.3561,12.0812.5569a1.4661,1.4661,0,0,0,1.5534-1.6045L38.6076,19.8026s5.0989-4.1944,1.95-8.2764S31.0448,9.122,27.1628,8.9832c-3.5336-.1264-11.0358-2.409-14.5847,2.0221S14.3783,20.1328,14.3783,20.1328Z"/><path class="cls-3" d="M15.6644,41.6533A1.9622,1.9622,0,0,1,13.701,39.668l.1753-19.3213c-.9229-.9-5.1074-5.3848-1.6885-9.6543,2.9853-3.7266,8.42-3.01,12.3843-2.4844,1.0171.1338,1.896.25,2.6089.2754.8681.0322,1.8823-.0322,2.9546-.1,3.663-.2285,8.23-.5156,10.8178,2.8369,2.6284,3.4072.0606,7.1367-1.8232,8.7939l1.8286,19.17a1.9671,1.9671,0,0,1-.5459,1.5586,1.9368,1.9368,0,0,1-1.5371.5918c-3.43-.2227-9.5567-.5957-12.042-.5557-2.2676.0312-7.85.5547-10.9751.8652C15.7938,41.65,15.7288,41.6533,15.6644,41.6533Zm3.99-32.8681c-2.5664,0-5.0845.5332-6.6865,2.5322-3.2051,4.0029,1.5371,8.2607,1.74,8.44a.4994.4994,0,0,1,.17.38l-.1772,19.54a.9648.9648,0,0,0,1.0586.9717c3.1421-.3115,8.7558-.8389,11.0605-.87,2.5254-.05,8.6763.335,12.12.5576a.9844.9844,0,0,0,.7549-.29.9683.9683,0,0,0,.2686-.7666L38.11,19.8506a.5.5,0,0,1,.18-.4336c.1924-.1592,4.6851-3.9385,1.8716-7.585-2.2627-2.9316-6.352-2.6787-9.9633-2.45-1.0987.0694-2.1358.1328-3.0533.1016-.7607-.0273-1.6611-.1465-2.7036-.2842A36.814,36.814,0,0,0,19.6546,8.7852Z"/></g></g></svg>
