<svg xmlns="http://www.w3.org/2000/svg" viewBox="0 0 20.1055 60.7109"><defs><style>.cls-1{fill:#604225;}.cls-2{fill:#3a3939;}.cls-3{fill:#f7f6e8;}</style></defs><title>Asset 167</title><g id="Layer_2" data-name="Layer 2"><g id="Layer_3" data-name="Layer 3"><path class="cls-1" d="M10.0077,59.9612H17.22a2.1358,2.1358,0,0,0,2.1359-2.1358L19.3342,30.51c.0184-2.7481-1.3929-5.1139-3.0746-7.2874a14.6443,14.6443,0,0,1-1.7772-3.5438L12.9189,4.5021c-.14-1.2138-.14-1.2138,1.5177-1.3754h0V1.6722A.9226.9226,0,0,0,13.514.75H6.5015a.9226.9226,0,0,0-.9226.9226V3.1267h0c1.2533.0159,1.6578.1616,1.5177,1.3754L5.533,19.6786a14.4513,14.4513,0,0,1-1.6879,3.5438C2.1878,25.4146.7521,27.7617.7705,30.51L.75,57.8254a2.1358,2.1358,0,0,0,2.1359,2.1358h7.1216Z"/><path class="cls-2" d="M17.22,60.7109H2.8862A2.89,2.89,0,0,1,0,57.8252L.0205,30.5088C0,27.4873,1.5591,25.0029,3.2471,22.7705A14.7155,14.7155,0,0,0,4.79,19.583L6.3506,4.4248a1.3273,1.3273,0,0,0,.0029-.5225c-.0083.0225-.2046-.0175-.7837-.0253a.75.75,0,0,1-.7407-.75V1.6719A1.6739,1.6739,0,0,1,6.5015,0h7.0127a1.6739,1.6739,0,0,1,1.6723,1.6719V3.127a.7494.7494,0,0,1-.6772.746c-.3369.0332-.6822.0665-.8911.1026.0092.125.0283.289.0459.44l1.5644,15.1856a15.4477,15.4477,0,0,0,1.6245,3.1621c1.5152,1.958,3.252,4.6084,3.231,7.7509l.0215,27.31A2.8894,2.8894,0,0,1,17.22,60.7109ZM6.3291,2.415a1.7338,1.7338,0,0,1,1.1719.5284,2.068,2.068,0,0,1,.3408,1.6445L6.2793,19.7559a14.4611,14.4611,0,0,1-1.8355,3.9189c-1.5288,2.0225-2.9409,4.249-2.9233,6.83L1.5,57.8262a1.3877,1.3877,0,0,0,1.3862,1.3847H17.22a1.3875,1.3875,0,0,0,1.3858-1.3857L18.584,30.5107c.0181-2.6738-1.4649-4.9521-2.9175-6.8291a14.6951,14.6951,0,0,1-1.9292-3.917L12.1729,4.5791A1.9815,1.9815,0,0,1,12.38,2.99a1.7774,1.7774,0,0,1,1.3066-.5381v-.78A.1722.1722,0,0,0,13.5142,1.5H6.5015a.1722.1722,0,0,0-.1724.1719Z"/><rect class="cls-3" x="0.7646" y="38.4623" width="18.5873" height="14.7266" rx="0.9839" ry="0.9839"/><path class="cls-2" d="M18.3682,53.9385H1.7485A1.7355,1.7355,0,0,1,.0146,52.2051V39.4463a1.7363,1.7363,0,0,1,1.7339-1.7344h16.62a1.7363,1.7363,0,0,1,1.7339,1.7344V52.2051A1.7355,1.7355,0,0,1,18.3682,53.9385ZM1.7485,39.2119a.2347.2347,0,0,0-.2339.2344V52.2051a.2338.2338,0,0,0,.2339.2334h16.62a.2338.2338,0,0,0,.2339-.2334V39.4463a.2347.2347,0,0,0-.2339-.2344Z"/><polygon class="cls-3" points="13.254 7.756 6.349 11.755 5.814 16.949 13.712 12.202 13.254 7.756"/><path class="cls-2" d="M5.8145,17.6992a.75.75,0,0,1-.7461-.8271l.5351-5.1944a.753.753,0,0,1,.37-.5722l6.9043-3.9991A.7507.7507,0,0,1,14,7.6787l.458,4.4453a.7488.7488,0,0,1-.36.72l-7.8974,4.748A.75.75,0,0,1,5.8145,17.6992Zm1.2421-5.4873-.3422,3.3213,6.2026-3.73-.29-2.8174Z"/><path class="cls-2" d="M16.84,31.1475a.5.5,0,0,1-.5-.5,6.49,6.49,0,0,0-1.9223-4.6553.5.5,0,1,1,.6533-.7578,7.438,7.438,0,0,1,2.269,5.4131A.5.5,0,0,1,16.84,31.1475Z"/></g></g></svg>
