<svg viewBox="0 0 51.3574 25.7266" xmlns="http://www.w3.org/2000/svg"><ellipse cx="14.1608" cy="12.2601" fill="#fff7d7" rx="7.7892" ry="11.5105"/><path d="m14.1606 24.5205c-4.7085 0-8.539-5.5-8.539-12.2607s3.8305-12.2598 8.539-12.2598 8.5394 5.5 8.5394 12.26-3.8309 12.2605-8.5394 12.2605zm0-23.02c-3.8813 0-7.039 4.8271-7.039 10.76s3.1577 10.7607 7.039 10.7607 7.0394-4.8278 7.0394-10.7612-3.158-10.76-7.0394-10.76z" fill="#3a3939"/><ellipse cx="37.3998" cy="12.2601" fill="#fff7d7" rx="7.7892" ry="11.5105"/><path d="m37.4 24.5205c-4.7085 0-8.54-5.5-8.54-12.2607s3.8314-12.2598 8.54-12.2598 8.539 5.5 8.539 12.26-3.8306 12.2605-8.539 12.2605zm0-23.02c-3.8818 0-7.04 4.8271-7.04 10.76s3.1577 10.7607 7.04 10.7607 7.039-4.8278 7.039-10.7612-3.1578-10.76-7.039-10.76z" fill="#3a3939"/><path d="m50.6075 14.66a.67.67 0 0 0 -.67-.67h-48.5175a.67.67 0 0 0 -.67.67v2.78a.67.67 0 0 0 .67.67h3.792a.67.67 0 0 1 .5942.3607l2.5138 4.8336a3.1045 3.1045 0 0 0 2.7544 1.6723h6.8854a2.4347 2.4347 0 0 0 2.2518-1.5086l1.9984-4.9393a.67.67 0 0 1 .6208-.4185h5.6956a.67.67 0 0 1 .6209.4185l1.9987 4.9393a2.435 2.435 0 0 0 2.2518 1.5086h6.8855a3.1047 3.1047 0 0 0 2.7544-1.6723l2.5134-4.8334a.67.67 0 0 1 .5941-.3607h3.7924a.67.67 0 0 0 .67-.67z" fill="#73bca4"/><g fill="#3a3939"><path d="m40.2832 25.7266h-6.8853a3.1745 3.1745 0 0 1 -2.9458-1.9737l-2-4.9433-2.7734.0508h-2.8476l-1.9244 4.8886a3.1754 3.1754 0 0 1 -2.9467 1.9776h-6.8858a3.8425 3.8425 0 0 1 -3.42-2.0762l-2.5137-4.834-3.7212.044a1.4211 1.4211 0 0 1 -1.4193-1.4204v-2.78a1.4211 1.4211 0 0 1 1.4194-1.42h48.5181a1.4216 1.4216 0 0 1 1.42 1.42v2.78a1.4216 1.4216 0 0 1 -1.42 1.42h-3.792l-2.4424 4.79a3.8424 3.8424 0 0 1 -3.4199 2.0766zm-17.4521-8.3666h5.6953a1.4136 1.4136 0 0 1 1.3159.8857l1.999 4.94a1.6782 1.6782 0 0 0 1.5566 1.04h6.8853a2.3463 2.3463 0 0 0 2.0889-1.2676l2.5136-4.834a1.4152 1.4152 0 0 1 1.26-.7646h3.7119v-2.6195h-48.3576v2.62h3.7119a1.4149 1.4149 0 0 1 1.26.7646l2.5137 4.834a2.346 2.346 0 0 0 2.0888 1.2676h6.8856a1.6794 1.6794 0 0 0 1.5581-1.044l1.997-4.9355a1.4142 1.4142 0 0 1 1.316-.8867z"/><path d="m41.9058 7.207a.5.5 0 0 1 -.4532-.2881c-1.791-3.8193-3.9194-3.708-4.0078-3.6933a.503.503 0 0 1 -.54-.4541.4969.4969 0 0 1 .4433-.541c.1143-.0147 2.8946-.2471 5.0093 4.2646a.4989.4989 0 0 1 -.4521.7119z"/><path d="m18.6665 7.207a.5.5 0 0 1 -.4531-.2881c-1.8145-3.87-3.9815-3.6953-4.0015-3.6943a.5.5 0 1 1 -.1025-.9941c.1147-.0147 2.895-.2471 5.0093 4.2646a.499.499 0 0 1 -.4522.7119z"/></g></svg>