<svg xmlns="http://www.w3.org/2000/svg" viewBox="0 0 43.6192 27.6877"><defs><style>.cls-1{fill:#febe30;}.cls-2{fill:#3a3939;}.cls-3{fill:#fea832;}.cls-4{fill:#fed42d;}</style></defs><title>Asset 136</title><g id="Layer_2" data-name="Layer 2"><g id="Layer_3" data-name="Layer 3"><path class="cls-1" d="M4.9,26.9373H.75v-3.01A2.8061,2.8061,0,0,0,2.5232,21.32,2.8061,2.8061,0,0,0,.75,18.7135V11.38H42.8689V26.9373H36.2155a2.449,2.449,0,0,0,.1094-.6894,2.4781,2.4781,0,1,0-4.9562,0,2.4525,2.4525,0,0,0,.1093.6894H11.328a1.7313,1.7313,0,1,0-3.4626,0Z"/><path class="cls-2" d="M42.8691,27.6877H36.2153a.7493.7493,0,0,1-.72-.96,1.7285,1.7285,0,1,0-3.2974.001.75.75,0,0,1-.72.959h-20.15a.75.75,0,0,1-.75-.75.9815.9815,0,1,0-1.9629,0,.75.75,0,0,1-.75.75H.75a.75.75,0,0,1-.75-.75V23.9269A.7512.7512,0,0,1,.4727,23.23a2.0467,2.0467,0,0,0,1.3-1.9092,2.0481,2.0481,0,0,0-1.3-1.91A.7512.7512,0,0,1,0,18.7131V11.38a.75.75,0,0,1,.75-.75H42.8691a.75.75,0,0,1,.75.75V26.9377A.75.75,0,0,1,42.8691,27.6877Zm-5.7949-1.5h5.0449V12.13H1.5v6.1152a3.5352,3.5352,0,0,1,1.7729,3.0752A3.5336,3.5336,0,0,1,1.5,24.3947v1.793H7.231a2.4818,2.4818,0,0,1,4.7314,0H30.6191a3.2281,3.2281,0,0,1,6.4551,0Z"/><circle class="cls-3" cx="18.362" cy="23.5466" r="1.1045"/><path class="cls-2" d="M18.3618,25.4015a1.855,1.855,0,1,1,1.8545-1.8545A1.8568,1.8568,0,0,1,18.3618,25.4015Zm0-2.21a.355.355,0,1,0,.3545.3554A.3553.3553,0,0,0,18.3618,23.1916Z"/><circle class="cls-3" cx="22.8584" cy="18.5205" r="2.6345"/><path class="cls-2" d="M22.8584,21.9054a3.3848,3.3848,0,1,1,3.3848-3.3847A3.3884,3.3884,0,0,1,22.8584,21.9054Zm0-5.27a1.8848,1.8848,0,1,0,1.8848,1.8848A1.8867,1.8867,0,0,0,22.8584,16.6359Z"/><circle class="cls-3" cx="31.332" cy="17.2367" r="0.9344"/><path class="cls-2" d="M31.332,18.9211a1.6846,1.6846,0,1,1,1.6846-1.6846A1.6867,1.6867,0,0,1,31.332,18.9211Zm0-1.8692a.185.185,0,0,0-.1845.1846c0,.2031.3691.2031.3691,0A.1851.1851,0,0,0,31.332,17.0519Z"/><path class="cls-4" d="M30.2161,7.1571a2.5572,2.5572,0,0,1-1.9838.6768c-1.1593,0-2.0991-.4411-2.0991-.9852,0-.3236.337-.6083.85-.7879L11.3276.7513,7.2717,4.8072c.1142-.005.2255-.014.343-.014,1.7691,0,3.2033.5808,3.2033,1.2973S9.3838,7.3878,7.6147,7.3878a5.8314,5.8314,0,0,1-2.452-.4717L.757,11.3218l42.1119.0578Z"/><path class="cls-2" d="M42.8691,12.13h-.0009L.7559,12.0715a.75.75,0,0,1-.5293-1.28L4.6323,6.3859a.75.75,0,0,1,.8584-.1445,5.11,5.11,0,0,0,2.124.3965A4.2759,4.2759,0,0,0,10.01,6.09a4.29,4.29,0,0,0-2.3951-.5469c-.0678,0-.1328.0039-.1982.0079l-.1128.0048a.75.75,0,0,1-.5625-1.2793L10.7974.2209a.7426.7426,0,0,1,.771-.18l15.6557,5.31a.75.75,0,0,1,.0073,1.4179,1.5829,1.5829,0,0,0-.1962.0821,2.7574,2.7574,0,0,0,1.1972.2334,2.0839,2.0839,0,0,0,1.3721-.36.7719.7719,0,0,1,.8491-.2783l12.6528,4.2236a.75.75,0,0,1-.2373,1.461ZM2.5649,10.5744l35.6685.0488L30.3979,8.009a3.85,3.85,0,0,1-2.1655.5752c-1.6509,0-2.8491-.7295-2.8491-1.7354a1.23,1.23,0,0,1,.1064-.5029L11.5283,1.6115,8.9829,4.1564c1.4028.2393,2.585.8653,2.585,1.9336,0,1.4072-2.0493,2.0479-3.9532,2.0479a7.1941,7.1941,0,0,1-2.2729-.34Z"/><circle class="cls-3" cx="12.2751" cy="17.2367" r="3.1158"/><path class="cls-2" d="M12.2749,21.1027a3.8657,3.8657,0,1,1,3.8657-3.8662A3.8705,3.8705,0,0,1,12.2749,21.1027Zm0-6.2314a2.3657,2.3657,0,1,0,2.3657,2.3652A2.3683,2.3683,0,0,0,12.2749,14.8713Z"/><ellipse class="cls-3" cx="16.6277" cy="8.095" rx="1.7343" ry="0.7149"/><path class="cls-2" d="M16.6274,9.31c-1.0756,0-2.2338-.38-2.2338-1.2148S15.5518,6.88,16.6274,6.88s2.2344.38,2.2344,1.2148S17.7036,9.31,16.6274,9.31ZM15.4946,8.0949a2.6263,2.6263,0,0,0,1.1328.2148A2.6251,2.6251,0,0,0,17.76,8.0949,2.6251,2.6251,0,0,0,16.6274,7.88,2.6263,2.6263,0,0,0,15.4946,8.0949Z"/><path class="cls-3" d="M7.2717,4.8072V7.38s3.8409.0311,3.5463-1.29S7.2717,4.8072,7.2717,4.8072Z"/><path class="cls-2" d="M7.354,8.13H7.2656a.75.75,0,0,1-.7441-.75V4.8068a.75.75,0,0,1,.7412-.75c.6494-.0078,3.8809.0479,4.2871,1.87a1.3237,1.3237,0,0,1-.2676,1.1416C10.4971,8.04,8.1816,8.13,7.354,8.13Zm.6675-2.544V6.6076a5.3549,5.3549,0,0,0,2.0307-.4258A3.6416,3.6416,0,0,0,8.0215,5.5861Z"/><line class="cls-1" x1="26.9835" y1="6.0608" x2="26.9835" y2="7.5607"/><path class="cls-2" d="M26.9834,8.3107a.75.75,0,0,1-.75-.75v-1.5a.75.75,0,0,1,1.5,0v1.5A.75.75,0,0,1,26.9834,8.3107Z"/></g></g></svg>
