<svg viewBox="0 0 41.3506 45.2511" xmlns="http://www.w3.org/2000/svg"><path d="m31.039 38.091a.75.75 0 0 1 -.6162-1.1768l.8692-1.2549a.75.75 0 0 1 .5561-1.2529h4.1675a3.8345 3.8345 0 1 0 0-7.6689h-2.3256a.75.75 0 0 1 0-1.5h2.3257a5.3345 5.3345 0 1 1 0 10.6689h-1.9083a2.3158 2.3158 0 0 0 -1.6045.64l-.8467 1.2216a.7484.7484 0 0 1 -.6172.323z" fill="#3a3939"/><path d="m35.2945 21.38a1.5461 1.5461 0 0 1 1.534 1.69c-.8523 9.2117-8.6019 19.4164-18.0361 19.4164s-17.1839-10.2051-18.0361-19.4164a1.5461 1.5461 0 0 1 1.5337-1.69z" fill="#fff8f8"/><path d="m18.7925 43.2355c-9.9737 0-17.9038-10.5918-18.7825-20.0967a2.2951 2.2951 0 0 1 2.2805-2.5088h33.0039a2.2951 2.2951 0 0 1 2.2808 2.5087c-.8794 9.505-8.8096 20.0968-18.7827 20.0968zm-16.502-21.1055a.78.78 0 0 0 -.5815.2578.7922.7922 0 0 0 -.2061.6122c.8184 8.8437 8.3858 18.7353 17.29 18.7353s16.4703-9.8914 17.2891-18.7353a.7921.7921 0 0 0 -.206-.6123.78.78 0 0 0 -.5816-.2578z" fill="#3a3939"/><path d="m23.8574 29.2256c.6785-.4666.805-.9759-.2461-1.5827-.7358-.4248-2.6965-.59-5.2325.5077s-3.9145 2.6363-3.9511 3.4679c-.0516 1.172.3539 1.4566 1.0266 1.3177-.506.8112-.5394.896.217 1.449.49.3581 2.6632.554 5.21-.5173s3.9045-2.53 4.0141-3.3622c.1539-1.1643-.2854-1.4337-1.038-1.2801z" fill="#7a531f"/><g fill="#3a3939"><path d="m17.1963 35.172a3.3626 3.3626 0 0 1 -1.82-.3837c-.7232-.5284-.9048-.8829-.712-1.419a1.0241 1.0241 0 0 1 -.2617-.1641 1.8752 1.8752 0 0 1 -.4741-1.6093c.0537-1.2188 1.8418-2.8614 4.252-3.9043 2.559-1.1074 4.7392-1.0254 5.6811-.4815.669.3858 1.0034.8 1.022 1.2647a.9947.9947 0 0 1 -.0523.36 1.0469 1.0469 0 0 1 .2037.1485 1.7511 1.7511 0 0 1 .3569 1.5879c-.16 1.21-1.9346 2.7558-4.3159 3.7578a10.255 10.255 0 0 1 -3.8797.843zm-1.6021-1.4492a2.2286 2.2286 0 0 1 .3721.2588c.2978.2158 2.2852.4512 4.7217-.5742 2.3984-1.01 3.6328-2.3672 3.7124-2.9668s-.0464-.7246-.0474-.7256c-.0205-.0176-.1294-.0527-.396.001a.5.5 0 0 1 -.3828-.9024c.28-.1923.3091-.3.31-.3027-.0015 0-.0464-.16-.523-.4346-.5879-.3408-2.4072-.4951-4.7837.5332-2.5337 1.0967-3.6274 2.5147-3.65 3.0313-.0234.5312.0664.7549.1231.8027.0283.0235.1245.0381.3022.003a.491.491 0 0 1 .5117.2031.5.5 0 0 1 .0142.5508 3.0987 3.0987 0 0 0 -.2925.5263z"/><path d="m14.5737 17.7492a.75.75 0 0 1 -.28-1.4453 3.1345 3.1345 0 0 0 1.6221-1.64 3.3257 3.3257 0 0 0 -.499-2.7226 20.7811 20.7811 0 0 0 -1.3965-2.1211c-1.4915-2.0402-1.2454-2.5944 1.2014-5.4202a.1557.1557 0 0 0 -.0127-.166.75.75 0 1 1 1.2275-.8614 1.6669 1.6669 0 0 1 .0171 1.89c-2.1172 2.4492-2.1172 2.4492-1.2222 3.6738a22.3679 22.3679 0 0 1 1.4893 2.2637 4.7218 4.7218 0 0 1 .6069 3.9717 4.6285 4.6285 0 0 1 -2.4776 2.5247.7431.7431 0 0 1 -.2763.0527z"/><path d="m20.8769 14.6965a.75.75 0 0 1 -.28-1.4454 3.134 3.134 0 0 0 1.6231-1.6406 3.3261 3.3261 0 0 0 -.499-2.7217 20.7821 20.7821 0 0 0 -1.397-2.1211c-1.4917-2.04-1.2456-2.5947 1.2012-5.4209a.155.155 0 0 0 -.0122-.165.75.75 0 1 1 1.2262-.8633 1.6674 1.6674 0 0 1 .0181 1.89c-2.1177 2.45-2.1177 2.45-1.2226 3.6748a22.2776 22.2776 0 0 1 1.49 2.2637 4.7213 4.7213 0 0 1 .6064 3.9716 4.6265 4.6265 0 0 1 -2.4775 2.5254.7431.7431 0 0 1 -.2767.0525z"/></g><path d="m2.2324 40.471h33.12a.4132.4132 0 0 1 .2069.7709l-1.9539 1.13a15.8437 15.8437 0 0 1 -7.9327 2.1289h-14.0275a15.8434 15.8434 0 0 1 -9.6652-3.2892.4132.4132 0 0 1 .2524-.7406z" fill="#fff8f8"/><path d="m25.6728 45.2511h-14.0278a16.6845 16.6845 0 0 1 -10.1221-3.4443 1.1645 1.1645 0 0 1 -.3911-1.2978 1.1484 1.1484 0 0 1 1.1006-.7881h33.12a1.1638 1.1638 0 0 1 .583 2.1709l-1.9546 1.13a16.6221 16.6221 0 0 1 -8.308 2.2293zm-22.3921-4.03a15.1819 15.1819 0 0 0 8.3643 2.53h14.0278a15.11 15.11 0 0 0 7.5572-2.0283l.8686-.5019z" fill="#3a3939"/><path d="m15.76 33.4435a1.4451 1.4451 0 0 1 -.4405-.06.5.5 0 0 1 .3076-.9512c.3789.1221 2.2232-.3369 3.7554-2.291a4.3471 4.3471 0 0 1 4.6489-1.42.5.5 0 0 1 -.3076.9521 3.35 3.35 0 0 0 -3.5542 1.085 6.4579 6.4579 0 0 1 -4.4096 2.6851z" fill="#3a3939"/></svg>