<svg xmlns="http://www.w3.org/2000/svg" viewBox="0 0 45.1089 27.6294"><defs><style>.cls-1{fill:#9b2310;}.cls-1,.cls-2,.cls-3{stroke:#3f2d20;stroke-width:1.5px;}.cls-1,.cls-2{stroke-miterlimit:10;}.cls-2{fill:#ce593f;}.cls-3{fill:#fd6244;stroke-linecap:round;stroke-linejoin:round;}</style></defs><title>Asset 200</title><g id="Layer_2" data-name="Layer 2"><g id="Layer_3" data-name="Layer 3"><path class="cls-1" d="M7.546,13.4906s-3.48,2.874-4.515,5.8657.2353,7.55,4.1811,7.523,4.6452-1.1379,7.3145-1.9231c2.9293-.8617,3.7638-2.72,14.322,1.18,10.8717,4.0156,22.95-13.55,9.697-18.9029S10.6725,10.4248,7.546,13.4906Z"/><path class="cls-2" d="M5.7683,8.7312s-3.6513,2.861-4.686,5.8527.3346,6.8693,4.28,6.8424,4.6451-1.1379,7.3145-1.9232c2.9293-.8617,3.8355-2.0264,14.3937,1.8735,10.8717,4.0157,22.95-13.55,9.697-18.9029S8.8948,5.6654,5.7683,8.7312Z"/><line class="cls-3" x1="6.5964" y1="14.6439" x2="7.8278" y2="21.2187"/><line class="cls-3" x1="11.4579" y1="4.9543" x2="14.0551" y2="18.8927"/><line class="cls-3" x1="18.4818" y1="2.1331" x2="20.3104" y2="12.5872"/><line class="cls-3" x1="26.0579" y1="0.7922" x2="27.1315" y2="6.5542"/><line class="cls-3" x1="33.6567" y1="1.783" x2="36.8818" y2="19.0907"/><line class="cls-3" x1="1.1096" y1="17.6035" x2="39.9434" y2="16.9173"/><line class="cls-3" x1="2.8025" y1="11.6819" x2="43.1507" y2="10.9689"/><line class="cls-3" x1="9.5299" y1="6.0693" x2="41.0857" y2="5.5117"/><line class="cls-3" x1="1.009" y1="18.2966" x2="3.0666" y2="23.831"/><line class="cls-3" x1="41.989" y1="7.1253" x2="44.2078" y2="13.4055"/><line class="cls-3" x1="27.581" y1="8.9661" x2="30.002" y2="21.9591"/><line class="cls-3" x1="20.6822" y1="14.7131" x2="21.5157" y2="19.4782"/><line class="cls-3" x1="5.5748" y1="9.1894" x2="6.2289" y2="12.6816"/></g></g></svg>
