<svg xmlns="http://www.w3.org/2000/svg" viewBox="0 0 42.74 52.1318"><defs><style>.cls-1{fill:#e2e2e2;}.cls-2{fill:#3a3939;}.cls-3{fill:#f4f2f2;}.cls-4{fill:#8e8080;}</style></defs><title>Asset 154</title><g id="Layer_2" data-name="Layer 2"><g id="Layer_3" data-name="Layer 3"><path class="cls-1" d="M.7832,21.3034V49.216a2.1659,2.1659,0,0,0,2.1659,2.1659h21.43A2.1659,2.1659,0,0,0,26.545,49.216V21.2649a2.1658,2.1658,0,0,0-.5419-1.4331l-4.1213-4.67a2.1656,2.1656,0,0,0-1.624-.7329H7.3707a2.166,2.166,0,0,0-1.579.6833L1.37,19.8208A2.1656,2.1656,0,0,0,.7832,21.3034Z"/><path class="cls-2" d="M24.3791,52.1318H2.949a2.92,2.92,0,0,1-2.9156-2.916V21.3037a2.9082,2.9082,0,0,1,.79-1.9961l4.4214-4.709a2.9272,2.9272,0,0,1,2.1259-.92H20.258a2.917,2.917,0,0,1,2.1866.9863l4.1211,4.6709a2.914,2.914,0,0,1,.73,1.9287V49.2158A2.92,2.92,0,0,1,24.3791,52.1318ZM7.3708,15.1787a1.42,1.42,0,0,0-1.0317.4463L1.9172,20.334a1.4126,1.4126,0,0,0-.3838.97V49.2158a1.4169,1.4169,0,0,0,1.4156,1.416h21.43a1.4173,1.4173,0,0,0,1.4161-1.416V21.2646a1.415,1.415,0,0,0-.3545-.9365L21.32,15.6572a1.418,1.418,0,0,0-1.0616-.4785Z"/><polygon class="cls-3" points="32.345 23.65 32.345 32.645 41.99 32.645 41.99 23.984 37.105 21.1 32.345 23.65"/><path class="cls-4" d="M26.545,35.878c-12.7883-5.1952-25.7618.22-25.7618.22L.6253,48.8319a2.5188,2.5188,0,0,0,2.5186,2.55H24.0263a2.5188,2.5188,0,0,0,2.5187-2.5187Z"/><path class="cls-2" d="M24.0261,52.0068H3.1438A3.1444,3.1444,0,0,1,0,48.8242L.1584,36.09a.6266.6266,0,0,1,.3843-.5693c.54-.2246,13.3584-5.4541,26.2378-.2217a.6258.6258,0,0,1,.39.5791V48.8633A3.1475,3.1475,0,0,1,24.0261,52.0068ZM1.4031,36.5283,1.25,48.84a1.8932,1.8932,0,0,0,1.8936,1.917H24.0261A1.8961,1.8961,0,0,0,25.92,48.8633V36.3018C14.8372,31.9922,3.5876,35.7207,1.4031,36.5283Z"/><path class="cls-2" d="M40.6277,33.6553H33.5222A2.1147,2.1147,0,0,1,31.41,31.543V24.332a2.1016,2.1016,0,0,1,.9785-1.7822l3.9776-2.5312a2.1334,2.1334,0,0,1-.0245-.3233V11.708A10.2193,10.2193,0,0,0,26.1335,1.5H24.6223a10.2193,10.2193,0,0,0-10.208,10.208v2.0928a.75.75,0,0,1-1.5,0V11.708A11.721,11.721,0,0,1,24.6223,0h1.5112a11.721,11.721,0,0,1,11.708,11.708v7.9873a.6151.6151,0,0,0,.2842.5166l3.6309,2.2959A2.1021,2.1021,0,0,1,42.74,24.293v7.25A2.1147,2.1147,0,0,1,40.6277,33.6553ZM37.1086,21.3242l-3.915,2.4912a.6091.6091,0,0,0-.2837.5166v7.211a.613.613,0,0,0,.6123.6123h7.1055a.613.613,0,0,0,.6123-.6123v-7.25a.61.61,0,0,0-.2852-.5176l-3.63-2.2949A2.0411,2.0411,0,0,1,37.1086,21.3242Z"/><path class="cls-2" d="M11.4587,17.1484H8.0471a.375.375,0,0,1,0-.75h3.4116a.375.375,0,0,1,0,.75Z"/><path class="cls-2" d="M19.5769,17.1484H16.1653a.375.375,0,1,1,0-.75h3.4116a.375.375,0,0,1,0,.75Z"/><path class="cls-2" d="M34.8074,30.0781a.5.5,0,0,1-.3535-.8535L39.05,24.6279a.5.5,0,0,1,.707.7071l-4.5957,4.5966A.4983.4983,0,0,1,34.8074,30.0781Z"/></g></g></svg>
