<svg xmlns="http://www.w3.org/2000/svg" viewBox="0 0 48.6375 44.5104"><defs><style>.cls-1{fill:#ff917b;}.cls-2{fill:#3a3939;}</style></defs><title>Asset 134</title><g id="Layer_2" data-name="Layer 2"><g id="Layer_3" data-name="Layer 3"><path class="cls-1" d="M32.4492,37.0673a8.5329,8.5329,0,0,0,4.1238-.6442s1.1535-.4315.6661,1.4172l-.7451,4.47s-.7624,2.8157,2.0559.5919,4.6907-4.6632,4.5648-7.3845l-.3292-.8047s-5.8125-2.023-6.228-2.257S30.2442,36.1534,32.4492,37.0673Z"/><path class="cls-2" d="M36.9149,44.51a1.2028,1.2028,0,0,1-.68-.2012c-.8335-.55-.5664-1.8193-.4649-2.1953l.73-4.3965a3.7885,3.7885,0,0,0,.0952-.4726,9.4113,9.4113,0,0,1-4.2241.5683.73.73,0,0,1-.2085-.0537,1.4021,1.4021,0,0,1-.9492-1.1875c-.1387-1.5312,2.4-3.3476,3.4981-4.0576,1.4985-.9678,1.89-.8955,2.2153-.7119.3208.16,3.3887,1.2559,6.1059,2.2022a.748.748,0,0,1,.4478.4238l.3291.8047a.7549.7549,0,0,1,.0547.249c.126,2.7148-1.46,5.335-4.8486,8.0088A3.8791,3.8791,0,0,1,36.9149,44.51Zm-.0669-8.874a1.2011,1.2011,0,0,1,.8261.3047c.6792.6142.3863,1.7256.29,2.0908l-.73,4.4014a2.8949,2.8949,0,0,0-.08.4951,4.9785,4.9785,0,0,0,.9322-.6153c2.9248-2.3085,4.3276-4.48,4.2836-6.6367l-.15-.3672c-1.6782-.5849-4.7719-1.6728-5.7563-2.0771-.9292.3691-3.4712,2.3184-3.7344,3.1035a7.5,7.5,0,0,0,3.502-.5791A1.7318,1.7318,0,0,1,36.848,35.6364ZM36.19,33.11c.0176.01.0347.0186.0518.0264Z"/><path class="cls-1" d="M35.8914,31.9831s7.6237,4.9047,9.9325,2.21.521-4.55.521-4.55l-9.9715.083A1.5451,1.5451,0,0,0,35.8914,31.9831Z"/><path class="cls-2" d="M43.72,35.7419c-3.2495,0-7.6045-2.7227-8.2343-3.128a.7486.7486,0,0,1-.2417-.2519,2.2817,2.2817,0,0,1,.7661-3.293.7479.7479,0,0,1,.3569-.0937l9.9717-.0831h.0063a.751.751,0,0,1,.54.23c.7817.8116,1.685,3.0176-.4912,5.56A3.3532,3.3532,0,0,1,43.72,35.7419Zm-7.26-4.2862c2.7612,1.7393,7.45,3.8164,8.7944,2.249,1.4229-1.6611,1.0093-2.8339.7217-3.31l-9.3706.0781A.7439.7439,0,0,0,36.46,31.4557Z"/><path class="cls-1" d="M35.5833,25.1037s-2.5585,2.6077.3426,4.7321c0,0,10.38.63,11.5682-.6144s-.6448-5.3416-.6448-5.3416-.87-2.0018-1.4683-2.0727S35.5833,25.1037,35.5833,25.1037Z"/><path class="cls-2" d="M41.2225,30.76c-2.0283,0-4.043-.0976-5.3418-.1758a.75.75,0,0,1-.3975-.1435,3.7009,3.7009,0,0,1-1.6811-2.6934,4.5067,4.5067,0,0,1,1.2461-3.1689.7518.7518,0,0,1,.2773-.1787c9.3657-3.43,9.95-3.3594,10.1445-3.3379.68.08,1.376.9277,2.0674,2.5185.3369.753,1.9619,4.627.499,6.1582C47.2664,30.5465,44.23,30.76,41.2225,30.76Zm-5.022-1.66c4.6558.27,10.0283.1933,10.76-.4053.4921-.5166-.0113-2.752-.7959-4.51a6.8894,6.8894,0,0,0-.9424-1.62c-.8247.1836-5.7569,1.9189-9.2027,3.1777a2.8623,2.8623,0,0,0-.7221,1.8907A2.1639,2.1639,0,0,0,36.2005,29.1Z"/><path class="cls-2" d="M13.4632,13.13a.7562.7562,0,0,1-.2212-.0333C6.7752,11.0993,8.3651,1.0534,8.4359.6266A.75.75,0,0,1,9.9153.8717c-.0146.0918-1.4487,9.1807,3.7691,10.7911a.75.75,0,0,1-.2212,1.4668Z"/><path class="cls-1" d="M40.9116,14.3788c.09-.3058,7.9461,2.96,4.5182,6.85s-5.0214,5.737-6.1661,5.8669-3.693.7958-5.4389-2.1508A21.6633,21.6633,0,0,0,40.9116,14.3788Z"/><path class="cls-2" d="M37.65,28.0006a4.91,4.91,0,0,1-4.47-2.6738.75.75,0,0,1,.2017-.9863,21.11,21.11,0,0,0,6.81-10.1748h0a.818.818,0,0,1,.689-.5527c.854-.0977,4.5761,1.6718,5.7617,4.0068a3.4578,3.4578,0,0,1-.65,4.1055l-.3213.3642c-3.4849,3.9561-4.9272,5.5928-6.3228,5.751l-.3164.042A9.7435,9.7435,0,0,1,37.65,28.0006Zm-2.8193-2.9023a3.7622,3.7622,0,0,0,3.9936,1.2988l.355-.0468c.8208-.0938,2.6294-2.1456,5.3662-5.252l.3218-.3652a2.0241,2.0241,0,0,0,.5615-2.1494c-.5576-1.5489-2.9087-2.8555-4.0127-3.31A22.5983,22.5983,0,0,1,34.8309,25.0983Z"/><path class="cls-2" d="M6.8514,17.778a14.5443,14.5443,0,0,1-6.459-1.47.75.75,0,0,1,.7134-1.3194,13.3388,13.3388,0,0,0,13.353-1.1123.75.75,0,0,1,.8379,1.2442A14.9,14.9,0,0,1,6.8514,17.778Z"/><path class="cls-1" d="M30.5421,9.3626s10.9323-.941,10.2964,3.383S36.5107,25.1933,32.9728,24.8s-9.6681-3.8711-9.5972-5.1772S33.2514,19.6627,30.5421,9.3626Z"/><path class="cls-2" d="M33.2342,25.5641a3.1465,3.1465,0,0,1-.3442-.02c-3.39-.377-10.378-3.8555-10.2632-5.9629.0483-.8877.979-1.1172,2.1572-1.4072,1.5718-.3867,3.7241-.917,4.8-2.7266.82-1.3808.8989-3.3633.2334-5.8945a.7494.7494,0,0,1,.6606-.9375c.8155-.0713,8.0313-.6143,10.37,1.8681a2.7628,2.7628,0,0,1,.7334,2.3711C41.0047,16.7682,37.5081,25.5641,33.2342,25.5641Zm-8.9849-5.6953c.8711,1.0869,5.6621,3.8359,8.8067,4.1856,2.7216.3056,6.3764-6.9024,7.0405-11.418a1.2568,1.2568,0,0,0-.3408-1.1231c-1.375-1.4609-5.8516-1.5732-8.28-1.4589a8.4942,8.4942,0,0,1-.6025,6.1591c-1.3965,2.3506-4.0049,2.9922-5.73,3.418C24.8416,19.7047,24.4925,19.7907,24.2493,19.8688Z"/><path class="cls-1" d="M14.277,11.7475s9.4149-6.2012,15.32-3.0994c4.9636,2.6073-1.5,11.5278-6.2216,10.9745C16.5044,18.8173,14.8956,16.39,14.277,11.7475Z"/><path class="cls-2" d="M23.8109,20.3981a4.44,4.44,0,0,1-.5225-.03c-7.3613-.8632-9.1074-3.6611-9.7549-8.5215a.75.75,0,0,1,.3311-.7246c.3994-.2636,9.8559-6.4091,16.081-3.1377,1.9556,1.0274,2.645,3.0127,1.8916,5.4473C30.7957,16.7965,27.1561,20.3981,23.8109,20.3981Zm-8.7222-8.2725c.623,4.0586,2.1133,6.0186,8.3745,6.752,2.66.3027,6.04-2.9785,6.9414-5.89.3726-1.2042.4741-2.8194-1.1562-3.6758C24.4612,6.8,16.9007,11.0309,15.0887,12.1256Z"/><circle class="cls-2" cx="24.3986" cy="13.1245" r="1.054"/></g></g></svg>
