<svg viewBox="0 0 42.74 52.1318" xmlns="http://www.w3.org/2000/svg"><path d="m.7832 21.3034v27.9126a2.1659 2.1659 0 0 0 2.1659 2.1659h21.43a2.1659 2.1659 0 0 0 2.1659-2.1659v-27.9511a2.1658 2.1658 0 0 0 -.5419-1.4331l-4.1213-4.67a2.1656 2.1656 0 0 0 -1.624-.7329h-12.8871a2.166 2.166 0 0 0 -1.579.6833l-4.4217 4.7086a2.1656 2.1656 0 0 0 -.5868 1.4826z" fill="#e2e2e2"/><path d="m24.3791 52.1318h-21.4301a2.92 2.92 0 0 1 -2.9156-2.916v-27.9121a2.9082 2.9082 0 0 1 .79-1.9961l4.4214-4.709a2.9272 2.9272 0 0 1 2.1259-.92h12.8873a2.917 2.917 0 0 1 2.1866.9863l4.1211 4.6709a2.914 2.914 0 0 1 .73 1.9287v27.9513a2.92 2.92 0 0 1 -2.9166 2.916zm-17.0083-36.9531a1.42 1.42 0 0 0 -1.0317.4463l-4.4219 4.709a1.4126 1.4126 0 0 0 -.3838.97v27.9118a1.4169 1.4169 0 0 0 1.4156 1.416h21.43a1.4173 1.4173 0 0 0 1.4161-1.416v-27.9512a1.415 1.415 0 0 0 -.3545-.9365l-4.1206-4.6709a1.418 1.418 0 0 0 -1.0616-.4785z" fill="#3a3939"/><path d="m32.345 23.65v8.995h9.645v-8.661l-4.885-2.884z" fill="#f4f2f2"/><path d="m26.545 35.878c-12.7883-5.1952-25.7618.22-25.7618.22l-.1579 12.7339a2.5188 2.5188 0 0 0 2.5186 2.55h20.8824a2.5188 2.5188 0 0 0 2.5187-2.5187z" fill="#8e8080"/><g fill="#3a3939"><path d="m24.0261 52.0068h-20.8823a3.1444 3.1444 0 0 1 -3.1438-3.1826l.1584-12.7342a.6266.6266 0 0 1 .3843-.5693c.54-.2246 13.3584-5.4541 26.2378-.2217a.6258.6258 0 0 1 .39.5791v12.9852a3.1475 3.1475 0 0 1 -3.1444 3.1435zm-22.623-15.4785-.1531 12.3117a1.8932 1.8932 0 0 0 1.8936 1.917h20.8825a1.8961 1.8961 0 0 0 1.8939-1.8937v-12.5615c-11.0828-4.3096-22.3324-.5811-24.5169.2265z"/><path d="m40.6277 33.6553h-7.1055a2.1147 2.1147 0 0 1 -2.1122-2.1123v-7.211a2.1016 2.1016 0 0 1 .9785-1.7822l3.9776-2.5312a2.1334 2.1334 0 0 1 -.0245-.3233v-7.9873a10.2193 10.2193 0 0 0 -10.2081-10.208h-1.5112a10.2193 10.2193 0 0 0 -10.208 10.208v2.0928a.75.75 0 0 1 -1.5 0v-2.0928a11.721 11.721 0 0 1 11.708-11.708h1.5112a11.721 11.721 0 0 1 11.708 11.708v7.9873a.6151.6151 0 0 0 .2842.5166l3.6309 2.2959a2.1021 2.1021 0 0 1 .9834 1.7852v7.25a2.1147 2.1147 0 0 1 -2.1123 2.1123zm-3.5191-12.3311-3.915 2.4912a.6091.6091 0 0 0 -.2837.5166v7.211a.613.613 0 0 0 .6123.6123h7.1055a.613.613 0 0 0 .6123-.6123v-7.25a.61.61 0 0 0 -.2852-.5176l-3.63-2.2949a2.0411 2.0411 0 0 1 -.2162-.1563z"/><path d="m11.4587 17.1484h-3.4116a.375.375 0 0 1 0-.75h3.4116a.375.375 0 0 1 0 .75z"/><path d="m19.5769 17.1484h-3.4116a.375.375 0 1 1 0-.75h3.4116a.375.375 0 0 1 0 .75z"/><path d="m34.8074 30.0781a.5.5 0 0 1 -.3535-.8535l4.5961-4.5967a.5.5 0 0 1 .707.7071l-4.5957 4.5966a.4983.4983 0 0 1 -.3539.1465z"/></g></svg>