<svg xmlns="http://www.w3.org/2000/svg" viewBox="0 0 44.4942 36.7691"><defs><style>.cls-1{fill:#771c18;}.cls-2{fill:#3a3939;}.cls-3{fill:#edebeb;}</style></defs><title>Asset 140</title><g id="Layer_2" data-name="Layer 2"><g id="Layer_3" data-name="Layer 3"><path class="cls-1" d="M26.7551,4.1405c-1.6424,2.8135-3.291,6.9373-8.1461,10.1712-4.4672,2.9756-8.6251,2.3649-11.533,3.0176-10.8177,2.428-6.9571,18.0477,5.47,18.5918,9.2892.4067,10.5089-.3407,18.507-4.1445,5.5-2.6157,13.7486-11.9491,12.5832-22.1772S29.9425-1.32,26.7551,4.1405Z"/><path class="cls-2" d="M16.3535,36.7691c-1.124,0-2.3857-.0352-3.84-.0987C5.0142,36.3423.4883,30.7661.0376,25.687-.28,22.11,1.3594,17.8443,6.9121,16.5982a22.5487,22.5487,0,0,1,2.8047-.3731,16.6919,16.6919,0,0,0,8.4761-2.5371c3.9214-2.6123,5.6831-5.8545,7.0986-8.459.2808-.5175.5484-1.0088.8155-1.4668h.0005C27.8257.8179,31.9444-.6245,36.1226.2564a10.2062,10.2062,0,0,1,8.2588,9.2578c1.166,10.2324-6.95,20.06-13.0059,22.94l-.7754.3692C24.3882,35.7818,22.315,36.7691,16.3535,36.7691ZM27.4024,4.5181c-.26.4453-.52.9238-.793,1.4268-1.4946,2.75-3.3545,6.1728-7.5845,8.9912a18.1889,18.1889,0,0,1-9.17,2.7832,21.5415,21.5415,0,0,0-2.6137.3418c-3.9131.8789-6.0474,3.68-5.709,7.4931.3945,4.4453,4.4,9.3272,11.0473,9.6182,8.7906.3828,10.1035-.2393,17.376-3.7031l.7759-.37c5.6606-2.6924,13.248-11.8672,12.16-21.4151a8.7632,8.7632,0,0,0-7.0776-7.96c-3.5-.7374-7.0361.4384-8.4111,2.7939Z"/><path class="cls-3" d="M11.21,17.06c3.4716,3.393,7.1775,2.2911,11.0383-.8372,3.134-2.5394,5.2758-4.1565,2.67-8.312l-1.9479,2.9831a15.7471,15.7471,0,0,1-9.1553,5.7274Z"/><path class="cls-2" d="M15.7578,19.8872a7.1452,7.1452,0,0,1-5.0722-2.291.75.75,0,0,1,.4-1.2754l2.6054-.4394A15.0011,15.0011,0,0,0,22.39,10.42l1.9013-2.92a.7287.7287,0,0,1,.6348-.34.748.748,0,0,1,.6284.3515c2.9112,4.6426.3282,6.7334-2.6626,9.1543l-.1709.1387C20.1846,18.8609,17.8745,19.8872,15.7578,19.8872ZM12.9712,17.524c2.4868,1.5986,5.2661.9863,8.8052-1.8848l.1714-.1387c2.7-2.1855,4.1982-3.3984,2.9184-6.1367l-1.2675,1.94a16.552,16.552,0,0,1-9.6538,6.0547Z"/><path class="cls-2" d="M39.8975,13.2554a.75.75,0,0,1-.6948-1.0312c1.541-3.8028-1.0894-5.4444-1.2017-5.5118a.75.75,0,0,1,.7744-1.2851c1.334.8047,3.4307,3.3789,1.8179,7.3594A.75.75,0,0,1,39.8975,13.2554Z"/></g></g></svg>
