<svg viewBox="0 0 19.3334 65.8424" xmlns="http://www.w3.org/2000/svg"><g stroke="#3a3939" stroke-linecap="round" stroke-linejoin="round"><path d="m18.39 30.6914c-.02-3.4052-2.5817-6.54-5.57-8.1722v-19.8443h-6.51l-.0047 2.0734v2.0454h.0052v15.6452c-2.7479 1.7092-5.5605 4.7018-5.5605 7.9379v33.1932a1.5227 1.5227 0 0 0 1.5227 1.5227h14.7879a1.5227 1.5227 0 0 0 1.5227-1.5316z" fill="#0d4c32" stroke-width="1.5"/><path d="m6.7361 8.4088h5.9443v9.682h-5.9443z" fill="#f7f6e8" stroke-width="1.5"/><path d="m1.1878 35.4683h17.0409v20.0279h-17.0409z" fill="#f7f6e8" stroke-width="1.5"/></g><path d="m15.7893 30.5122a.5.5 0 0 1 -.5-.5c0-1.7734-2.184-3.6621-2.206-3.6816a.5.5 0 0 1 .6489-.7608c.1045.09 2.5571 2.2061 2.5571 4.4424a.5.5 0 0 1 -.5.5z" fill="#3a3939"/><path d="m5.8355 2.6749h7.4545v-1.4392a.7357.7357 0 0 0 -.7362-.7357h-5.9826a.7357.7357 0 0 0 -.7357.7357z" fill="#771c1c" stroke="#3a3939" stroke-linecap="round" stroke-linejoin="round"/></svg>