<svg viewBox="0 0 20.1055 60.7109" xmlns="http://www.w3.org/2000/svg"><path d="m10.0077 59.9612h7.2123a2.1358 2.1358 0 0 0 2.1359-2.1358l-.0217-27.3154c.0184-2.7481-1.3929-5.1139-3.0746-7.2874a14.6443 14.6443 0 0 1 -1.7772-3.5438l-1.5635-15.1767c-.14-1.2138-.14-1.2138 1.5177-1.3754v-1.4545a.9226.9226 0 0 0 -.9226-.9222h-7.0125a.9226.9226 0 0 0 -.9226.9226v1.4541c1.2533.0159 1.6578.1616 1.5177 1.3754l-1.5636 15.1765a14.4513 14.4513 0 0 1 -1.6879 3.5438c-1.6573 2.1922-3.093 4.5393-3.0746 7.2876l-.0205 27.3154a2.1358 2.1358 0 0 0 2.1359 2.1358h7.1216z" fill="#604225"/><path d="m17.22 60.7109h-14.3338a2.89 2.89 0 0 1 -2.8862-2.8857l.0205-27.3164c-.0205-3.0215 1.5386-5.5059 3.2266-7.7383a14.7155 14.7155 0 0 0 1.5429-3.1875l1.5606-15.1582a1.3273 1.3273 0 0 0 .0029-.5225c-.0083.0225-.2046-.0175-.7837-.0253a.75.75 0 0 1 -.7407-.75v-1.4551a1.6739 1.6739 0 0 1 1.6724-1.6719h7.0127a1.6739 1.6739 0 0 1 1.6723 1.6719v1.4551a.7494.7494 0 0 1 -.6772.746c-.3369.0332-.6822.0665-.8911.1026.0092.125.0283.289.0459.44l1.5644 15.1856a15.4477 15.4477 0 0 0 1.6245 3.1621c1.5152 1.958 3.252 4.6084 3.231 7.7509l.0215 27.31a2.8894 2.8894 0 0 1 -2.8855 2.8867zm-10.8909-58.2959a1.7338 1.7338 0 0 1 1.1719.5284 2.068 2.068 0 0 1 .3408 1.6445l-1.5625 15.168a14.4611 14.4611 0 0 1 -1.8355 3.9189c-1.5288 2.0225-2.9409 4.249-2.9233 6.83l-.0205 27.3214a1.3877 1.3877 0 0 0 1.3862 1.3847h14.3338a1.3875 1.3875 0 0 0 1.3858-1.3857l-.0218-27.3145c.0181-2.6738-1.4649-4.9521-2.9175-6.8291a14.6951 14.6951 0 0 1 -1.9292-3.917l-1.5644-15.1855a1.9815 1.9815 0 0 1 .2071-1.5891 1.7774 1.7774 0 0 1 1.3066-.5381v-.78a.1722.1722 0 0 0 -.1724-.1719h-7.0127a.1722.1722 0 0 0 -.1724.1719z" fill="#3a3939"/><rect fill="#f7f6e8" height="14.7266" rx=".9839" width="18.5873" x=".7646" y="38.4623"/><path d="m18.3682 53.9385h-16.6197a1.7355 1.7355 0 0 1 -1.7339-1.7334v-12.7588a1.7363 1.7363 0 0 1 1.7339-1.7344h16.62a1.7363 1.7363 0 0 1 1.7339 1.7344v12.7588a1.7355 1.7355 0 0 1 -1.7342 1.7334zm-16.6197-14.7266a.2347.2347 0 0 0 -.2339.2344v12.7588a.2338.2338 0 0 0 .2339.2334h16.62a.2338.2338 0 0 0 .2339-.2334v-12.7588a.2347.2347 0 0 0 -.2339-.2344z" fill="#3a3939"/><path d="m13.254 7.756-6.905 3.999-.535 5.194 7.898-4.747z" fill="#f7f6e8"/><g fill="#3a3939"><path d="m5.8145 17.6992a.75.75 0 0 1 -.7461-.8271l.5351-5.1944a.753.753 0 0 1 .37-.5722l6.9043-3.9991a.7507.7507 0 0 1 1.1222.5723l.458 4.4453a.7488.7488 0 0 1 -.36.72l-7.8974 4.748a.75.75 0 0 1 -.3861.1072zm1.2421-5.4873-.3422 3.3213 6.2026-3.73-.29-2.8174z"/><path d="m16.84 31.1475a.5.5 0 0 1 -.5-.5 6.49 6.49 0 0 0 -1.9223-4.6553.5.5 0 1 1 .6533-.7578 7.438 7.438 0 0 1 2.269 5.4131.5.5 0 0 1 -.5.5z"/></g></svg>