<svg viewBox="0 0 47.994 41.3893" xmlns="http://www.w3.org/2000/svg"><g stroke-linecap="round" stroke-linejoin="round" stroke-width="1.5"><path d="m31.6561 16.54-3.9961-.6007s2.5635-11.5993 4.7758-13.5281c1.0334-.9009 4.8594-.29 4.08.8379-2.7944 4.0387-4.8597 13.2909-4.8597 13.2909z" fill="#fff7d7" stroke="#3a3939"/><path d="m23.4011 15.8254-3.9958-.6006s2.5632-11.5994 4.7755-13.5281c1.0334-.9009 4.8594-.29 4.0795.8379-2.7939 4.0387-4.8592 13.2908-4.8592 13.2908z" fill="#fff7d7" stroke="#3a3939"/><path d="m14.9688 15.3124-3.9959-.6006s2.5633-11.5994 4.7756-13.5281c1.0333-.9009 4.8594-.29 4.0795.8379-2.7939 4.0384-4.8592 13.2908-4.8592 13.2908z" fill="#fff7d7" stroke="#3a3939"/><path d="m11.6485 12.0849s20.39-.2935 21.8518-.2587a12.0827 12.0827 0 0 0 -4.9723 3.7032c-2.4145 2.8062-8.5488 8.9555-2.5024 18.6267 1.2557 2.0085 6.4205 5.4377 9.9174 6.463h-24.6719a8.9945 8.9945 0 0 1 -5.407-2.4528c-2.56-2.1932-5.81-6.1447-4.9828-11.6447a18.9932 18.9932 0 0 1 10.7672-14.4367z" fill="#994811" stroke="#3f2d20"/><path d="m35.01 11.917s2.0294.1673 2.7148 1.5744c1.2207 2.5059-.8993 7.1152 7.37 12.5929 5.42 3.59-.4738 13.7667-5.9561 14.4252 0 0-7.2026 1.2154-11.9408-3.7915-4.1411-4.376-5.0084-8.2711-3.8884-13.0328s6.6413-12.8022 11.7005-11.7682z" fill="#e5b789" stroke="#3f2d20"/><path d="m33.1434 17.3113a2.3532 2.3532 0 0 0 -2.593 1.5953c-.6758 1.6922-1.3109 2.7795-.6 3.3889a3.878 3.878 0 0 0 2.3508.6043c.2471-.0277 3.5707-.6195 3.0552-2.2708s-.826-1.4593-1.0178-2.1515a2.0081 2.0081 0 0 0 -1.1952-1.1662z" fill="#f4bdb3" stroke="#3a3939"/><path d="m28.064 28.2256c-.87 2.0815.8121 4.1169 1.4888 4.8123 1.1968 1.23 3.2393 3.7161 5.8851 3.81s5.4321.4558 7.1581-2.8109c.718-1.359 2.3793-3.6779-1.9863-6.526-2.0637-1.3463-4.089-3.0274-6.4348-2.1287-2.2815.8737-4.8949-.066-6.1109 2.8433z" fill="#f4bdb3" stroke="#3a3939"/><g fill="none" stroke="#683d25"><path d="m8.752 32.9214a11.7156 11.7156 0 0 0 2.1938 3.3862"/><path d="m15.6312 29.338a9.8853 9.8853 0 0 0 3.31 7.0693"/><path d="m6.2246 25.2503 13.0356.5674"/><path d="m5.0088 30.1296 14.2007.4856"/><path d="m8.3406 34.6659 11.4617.2996"/><path d="m17.6262 22.5782s-1.9892.4578-2.1033 4.8787"/><path d="m10.0937 21.9047s-4.0991 2.8572-1.9737 9.5465"/></g></g></svg>