<svg viewBox="0 0 45.1089 27.6294" xmlns="http://www.w3.org/2000/svg"><g stroke="#3f2d20" stroke-width="1.5"><path d="m7.546 13.4906s-3.48 2.874-4.515 5.8657.2353 7.55 4.1811 7.523 4.6452-1.1379 7.3145-1.9231c2.9293-.8617 3.7638-2.72 14.322 1.18 10.8717 4.0156 22.95-13.55 9.697-18.9029s-27.8731 3.1915-30.9996 6.2573z" fill="#9b2310" stroke-miterlimit="10"/><path d="m5.7683 8.7312s-3.6513 2.861-4.686 5.8527.3346 6.8693 4.28 6.8424 4.6451-1.1379 7.3145-1.9232c2.9293-.8617 3.8355-2.0264 14.3937 1.8735 10.8717 4.0157 22.95-13.55 9.697-18.9029s-27.8727 3.1917-30.9992 6.2575z" fill="#ce593f" stroke-miterlimit="10"/><g fill="#fd6244" stroke-linecap="round" stroke-linejoin="round"><path d="m6.5964 14.6439 1.2314 6.5748"/><path d="m11.4579 4.9543 2.5972 13.9384"/><path d="m18.4818 2.1331 1.8286 10.4541"/><path d="m26.0579.7922 1.0736 5.762"/><path d="m33.6567 1.783 3.2251 17.3077"/><path d="m1.1096 17.6035 38.8338-.6862"/><path d="m2.8025 11.6819 40.3482-.713"/><path d="m9.5299 6.0693 31.5558-.5576"/><path d="m1.009 18.2966 2.0576 5.5344"/><path d="m41.989 7.1253 2.2188 6.2802"/><path d="m27.581 8.9661 2.421 12.993"/><path d="m20.6822 14.7131.8335 4.7651"/><path d="m5.5748 9.1894.6541 3.4922"/></g></g></svg>