<svg xmlns="http://www.w3.org/2000/svg" viewBox="0 0 44.5366 42.1543"><defs><style>.cls-1{fill:#f7f6e8;}.cls-2{fill:#3a3939;}.cls-3{fill:#a4b3ea;}</style></defs><title>Asset 146</title><g id="Layer_2" data-name="Layer 2"><g id="Layer_3" data-name="Layer 3"><path class="cls-1" d="M41.37,15.2043a3.2788,3.2788,0,0,0-3.9191-3.23l-.013-.02c0-.0146.0043-.0281.0043-.0428A2.9423,2.9423,0,0,0,35.0254,9.019q-.5311-.5234-1.1039-1.0024A3.0759,3.0759,0,0,0,29.7306,5.26a2.7488,2.7488,0,0,0-2.4132-1.4457c-.21,0-.26.0333-.26-.4888a2.5753,2.5753,0,1,0-5.1505,0c0,.2768-1.014-.7607-1.7626-.7607a3.1979,3.1979,0,0,0-2.9623,1.9976c-.3888.1153-.7729.241-1.15.3812a2.9256,2.9256,0,0,0-4.56,1.0272,2.7587,2.7587,0,0,0-3.34,4.1849l-.0071,0A5.3239,5.3239,0,0,0,3.377,17.9017,2.8232,2.8232,0,0,0,4.26,22.637,18.0888,18.0888,0,1,0,39.97,17.8919,3.2835,3.2835,0,0,0,41.37,15.2043Z"/><path class="cls-2" d="M22.332,40.7461A18.7789,18.7789,0,0,1,3.5342,23.123a3.5687,3.5687,0,0,1-1.0474-5.3662,5.9914,5.9914,0,0,1-.4429-2.27A6.0906,6.0906,0,0,1,6.9682,9.5156a3.4624,3.4624,0,0,1-.1548-1.0244,3.5243,3.5243,0,0,1,3.5206-3.52,3.4343,3.4343,0,0,1,.7983.0938A3.71,3.71,0,0,1,14.1484,3.498a3.6264,3.6264,0,0,1,2.0078.6045c.1612-.0546.3233-.1084.4864-.1591A3.93,3.93,0,0,1,20.144,1.8145a2.5085,2.5085,0,0,1,1.21.3837A3.3252,3.3252,0,0,1,27.8,3.1055a3.5146,3.5146,0,0,1,2.2466,1.28,3.8439,3.8439,0,0,1,4.5942,3.2579q.3867.3339.7539.6875a3.6919,3.6919,0,0,1,2.7212,2.83A4.038,4.038,0,0,1,40.8,18.1855,18.8311,18.8311,0,0,1,22.332,40.7461ZM10.334,6.4707a2.0227,2.0227,0,0,0-2.0206,2.02A1.992,1.992,0,0,0,8.729,9.7021a.75.75,0,0,1-.5977,1.2032,4.5871,4.5871,0,0,0-4.5874,4.581,4.5224,4.5224,0,0,0,.501,2.0742.7509.7509,0,0,1-.1626.8956,2.073,2.073,0,0,0,.6484,3.4814.75.75,0,0,1,.4786.6689,17.3387,17.3387,0,1,0,34.2294-4.5488.75.75,0,0,1,.2994-.7793,2.5348,2.5348,0,0,0-1.9454-4.5674.7412.7412,0,0,1-.7724-.331.8252.8252,0,0,1-.1319-.4512c.001-.0283.0059-.0771.01-.1055a2.1805,2.1805,0,0,0-1.8071-2.0664.7557.7557,0,0,1-.3921-.2041Q33.99,9.0519,33.44,8.5918a.7475.7475,0,0,1-.2681-.541,2.3276,2.3276,0,0,0-3.1762-2.09.749.749,0,0,1-.9239-.3418,2.0062,2.0062,0,0,0-1.7548-1.0546.9378.9378,0,0,1-.7237-.25,1.28,1.28,0,0,1-.2866-.9893,1.8252,1.8252,0,0,0-3.65,0,.8365.8365,0,0,1-.4131.7031c-.4472.24-.834-.0137-1.2075-.26a2.8064,2.8064,0,0,0-.8921-.4541,2.4391,2.4391,0,0,0-2.2671,1.53.75.75,0,0,1-.4819.4365c-.3731.1114-.7412.2315-1.103.3653a.7476.7476,0,0,1-.7408-.127,2.1777,2.1777,0,0,0-1.4028-.5215,2.2086,2.2086,0,0,0-1.9961,1.2872.7538.7538,0,0,1-.99.3691A1.9945,1.9945,0,0,0,10.334,6.4707Z"/><line class="cls-1" x1="8.2723" y1="11.992" x2="9.687" y2="12.9727"/><path class="cls-2" d="M9.6865,13.7227a.7437.7437,0,0,1-.4268-.1338l-1.4145-.9805A.75.75,0,0,1,8.7,11.376l1.4145.98a.75.75,0,0,1-.4277,1.3663Z"/><line class="cls-1" x1="34.3598" y1="15.687" x2="35.7746" y2="16.6677"/><path class="cls-2" d="M35.7739,17.418a.7447.7447,0,0,1-.4272-.1338l-1.4146-.9815a.75.75,0,1,1,.8555-1.2324l1.4145.9815a.75.75,0,0,1-.4282,1.3662Z"/><line class="cls-1" x1="25.1903" y1="12.1302" x2="24.8383" y2="13.8152"/><path class="cls-2" d="M24.8393,14.5654a.7593.7593,0,0,1-.1543-.0156.7509.7509,0,0,1-.581-.8877l.352-1.6855a.75.75,0,0,1,1.4688.3066l-.3521,1.6856A.7509.7509,0,0,1,24.8393,14.5654Z"/><line class="cls-1" x1="12.6974" y1="16.6677" x2="13.6115" y2="18.1263"/><path class="cls-2" d="M13.6118,18.876a.7475.7475,0,0,1-.6358-.3516l-.914-1.458a.75.75,0,1,1,1.2705-.7969l.9141,1.458a.75.75,0,0,1-.6348,1.1485Z"/><line class="cls-1" x1="17.899" y1="7.1999" x2="18.8132" y2="8.6586"/><path class="cls-2" d="M18.8134,9.4082a.7474.7474,0,0,1-.6357-.3516l-.9141-1.458a.75.75,0,1,1,1.2706-.7968l.914,1.458a.75.75,0,0,1-.6348,1.1484Z"/><line class="cls-1" x1="1.9708" y1="14.2718" x2="3.3573" y2="15.292"/><path class="cls-2" d="M3.3569,16.042a.7516.7516,0,0,1-.4438-.1455L1.5263,14.876a.75.75,0,0,1,.8887-1.209l1.3867,1.0205a.75.75,0,0,1-.4448,1.3545Z"/><line class="cls-1" x1="30.6964" y1="3.9209" x2="30.0656" y2="5.5226"/><path class="cls-2" d="M30.0654,6.2725a.7491.7491,0,0,1-.6978-1.0245l.6309-1.6015a.75.75,0,1,1,1.3955.5488l-.6308,1.6016A.75.75,0,0,1,30.0654,6.2725Z"/><line class="cls-1" x1="33.0556" y1="10.307" x2="32.7036" y2="11.992"/><path class="cls-2" d="M32.7046,12.7422a.7492.7492,0,0,1-.7354-.9033l.3521-1.6856A.75.75,0,1,1,33.79,10.46l-.352,1.6855A.7512.7512,0,0,1,32.7046,12.7422Z"/><line class="cls-1" x1="29.2211" y1="17.8352" x2="30.0656" y2="19.3353"/><path class="cls-2" d="M30.0659,20.085a.7509.7509,0,0,1-.6543-.3819l-.8442-1.5a.75.75,0,0,1,1.3076-.7363l.8442,1.5a.7507.7507,0,0,1-.6533,1.1182Z"/><line class="cls-1" x1="19.0958" y1="14.2718" x2="17.6256" y2="13.4947"/><path class="cls-2" d="M19.0952,15.0215a.7405.7405,0,0,1-.35-.0869l-1.47-.7764a.75.75,0,1,1,.7-1.3262l1.47.7764a.75.75,0,0,1-.3506,1.4131Z"/><line class="cls-1" x1="24.41" y1="5.827" x2="25.9706" y2="6.5534"/><path class="cls-2" d="M25.97,7.3037a.7433.7433,0,0,1-.3159-.07l-1.5606-.7266a.75.75,0,1,1,.6328-1.3593l1.5606.7265a.75.75,0,0,1-.3169,1.43Z"/><path class="cls-3" d="M43.7808,21.668a1.7274,1.7274,0,0,0-1.73-1.8553H2.486a1.7274,1.7274,0,0,0-1.73,1.8553A21.5947,21.5947,0,0,0,11.977,38.796a1.0593,1.0593,0,0,1,.5621.929v1.1323a.5466.5466,0,0,0,.5466.5466H31.4509a.5466.5466,0,0,0,.5466-.5466V39.725a1.0593,1.0593,0,0,1,.5621-.929A21.5944,21.5944,0,0,0,43.7808,21.668Z"/><path class="cls-2" d="M31.4511,42.1543H13.0859a1.2984,1.2984,0,0,1-1.2969-1.2969V39.7246a.311.311,0,0,0-.17-.27A22.2765,22.2765,0,0,1,.0088,21.7314a2.45,2.45,0,0,1,.6386-1.86,2.5024,2.5024,0,0,1,1.8384-.8086h39.565a2.5022,2.5022,0,0,1,1.8383.8086,2.4485,2.4485,0,0,1,.6387,1.86h0a22.2765,22.2765,0,0,1-11.61,17.7237.3111.3111,0,0,0-.17.27v1.1328A1.2982,1.2982,0,0,1,31.4511,42.1543Zm-18.1621-1.5H31.2475v-.93a1.8124,1.8124,0,0,1,.9541-1.5879A20.78,20.78,0,0,0,43.0337,21.6045h0a.9352.9352,0,0,0-.2491-.7188,1.001,1.001,0,0,0-.7338-.3232H2.4858a1.0014,1.0014,0,0,0-.7339.3232.9348.9348,0,0,0-.249.7188,20.78,20.78,0,0,0,10.832,16.5322,1.8122,1.8122,0,0,1,.9541,1.5879Z"/><path class="cls-2" d="M33.5122,34.8682a.75.75,0,0,1-.4414-1.3565c4.2011-3.0517,5.7929-8.4287,5.8086-8.4824a.75.75,0,0,1,1.4414.416c-.07.24-1.7549,5.9287-6.3682,9.2793A.7481.7481,0,0,1,33.5122,34.8682Z"/></g></g></svg>
