<svg viewBox="0 0 25.4457 55.8559" xmlns="http://www.w3.org/2000/svg"><path d="m24.9457 21.5161v29.8107a4.0289 4.0289 0 0 1 -4.0292 4.0291h-16.3873a4.0289 4.0289 0 0 1 -4.0292-4.0291v-29.8107a8.9966 8.9966 0 0 1 .6313-3.31l3.1956-8.0827a6.7385 6.7385 0 0 1 3.0249.39c2.2864.9384 3.4174-.0512 4.7653-.4169a6.8456 6.8456 0 0 1 3.9683-.3656c1.5161.3608 3.4271 1.0311 5.1358.646l3.0932 7.8292a8.9966 8.9966 0 0 1 .6313 3.31z" fill="#f7f7f5"/><path d="m19.5125 6.7888 1.7087 3.588c-1.7087.3851-3.62-.2852-5.1358-.646a6.8456 6.8456 0 0 0 -3.9683.3656c-1.3479.3657-2.4789 1.3553-4.7653.4169a6.7385 6.7385 0 0 0 -3.0249-.39l1.616-3.3345a1.2179 1.2179 0 0 0 .12-.49c.0244-.7483.0073-2.6032.0073-2.6032a.5772.5772 0 0 0 -.18-.3705.57.57 0 0 0 -.3851-.1487.5686.5686 0 0 1 -.5679-.568v-.9774a1.13 1.13 0 0 1 1.1276-1.131h13.3161a1.13 1.13 0 0 1 1.1285 1.131v1.0213a.5529.5529 0 0 1 -.5923.5241.56.56 0 0 0 -.5411.5192s-.0073 1.8866.0195 2.6227a1.2079 1.2079 0 0 0 .117.4705z" fill="#d2f1f9"/><g stroke="#3a3939" stroke-linecap="round" stroke-linejoin="round"><path d="m21.2212 10.3768-1.7087-3.588a1.2079 1.2079 0 0 1 -.117-.4705c-.0268-.7361-.0195-2.6227-.0195-2.6227a.56.56 0 0 1 .5411-.5192.5529.5529 0 0 0 .5923-.5241v-1.0213a1.13 1.13 0 0 0 -1.1285-1.131h-13.3161a1.13 1.13 0 0 0 -1.1285 1.131v.9774a.5686.5686 0 0 0 .5679.568.57.57 0 0 1 .3851.1487.5772.5772 0 0 1 .18.3705s.0171 1.8549-.0073 2.6032a1.2179 1.2179 0 0 1 -.12.49l-1.616 3.3345" fill="none"/><path d="m4.3269 10.1233-3.1956 8.0827a8.9966 8.9966 0 0 0 -.6313 3.3101v29.8107a4.0289 4.0289 0 0 0 4.0292 4.0291h16.3873a4.0289 4.0289 0 0 0 4.0292-4.0291v-29.8107a8.9966 8.9966 0 0 0 -.6313-3.31l-3.0932-7.8292c-1.7087.3851-3.62-.2852-5.1358-.646a6.8456 6.8456 0 0 0 -3.9683.3656c-1.3479.3657-2.4789 1.3553-4.7653.4169a6.7385 6.7385 0 0 0 -3.0249-.3901z" fill="none"/><rect fill="#bcb8b8" height="3.0622" rx="1.1259" width="15.7722" x="4.837" y=".5"/><path d="m17.5167 5.7031v1.0027a1.399 1.399 0 0 0 .1713.6708l.6236 1.1413" fill="none"/><path d="m14.2955 28.5388s-1.4573-.76-.8237-1.3306 2.9779.1584 3.5165.38a8.8062 8.8062 0 0 0 3.2314.4752s-3.8333 1.6475-5.9242.4754z" fill="#efcf6a" stroke-width=".75"/><path d="m13.852 26.2754s-1.4573.76-.8237 1.33 2.9779-.1584 3.5165-.38a8.8016 8.8016 0 0 1 3.2314-.4752s-3.8333-1.647-5.9242-.4748z" fill="#efcf6a" stroke-width=".75"/><path d="m14.4022 31.5234s-1.298-1.0084-.5728-1.4563 2.9018.6877 3.3921 1.0021a8.8038 8.8038 0 0 0 3.0945 1.0447s-4.066.9361-5.9138-.5905z" fill="#efcf6a" stroke-width=".75"/><path d="m14.6677 29.593s-1.57.4879-1.0481 1.1621 2.9584.376 3.5279.254a8.8042 8.8042 0 0 1 3.2643.11s-3.4775-2.3059-5.7441-1.5261z" fill="#efcf6a" stroke-width=".75"/><path d="m13.6282 25.0744s-1.5367-.5835-.9746-1.2243 2.9759-.1934 3.5368-.0366a8.8027 8.8027 0 0 0 3.2648.0915s-3.6126 2.0872-5.827 1.1694z" fill="#efcf6a" stroke-width=".75"/><path d="m13.4837 22.9072s-1.3883.88-.709 1.395 2.9541-.4079 3.4721-.6741a8.8053 8.8053 0 0 1 3.18-.7449s-3.958-1.3196-5.9431.024z" fill="#efcf6a" stroke-width=".75"/><path d="m12.6985 24.0283s-4.4363-.3083-3.05 5.4037 3.7994 10.59.8215 14.6457" fill="none" stroke-width=".75"/><path d="m12.5388 27.5451s-2.02.426-1.7876 5.9121" fill="none" stroke-width=".75"/><path d="m13.62 30.7551s-2.4459.9126-2.387 4.4734" fill="none" stroke-width=".75"/><path d="m9.96 18.6411s-3.4161 1.6919-2.9621 7.2132 6.3445 15.8167 3.1313 18.4667c0 0 .7525-2.4616-.7491-6.8152-1.2571-3.6452-4.0078-9.8029-3.6857-12.379a9.0014 9.0014 0 0 1 4.2656-6.4857z" fill="#efcf6a" stroke-width=".75"/></g></svg>