<svg viewBox="0 0 42.1367 46.4654" xmlns="http://www.w3.org/2000/svg"><g stroke="#3a3939" stroke-linecap="round" stroke-linejoin="round" stroke-width="1.5"><path d="m14.8653 5.6318s-.17-2.37-3.5854-3.7718c-.3347-.1374-2.2894-1.11-2.2894-1.11a3.62 3.62 0 0 0 1.5128 3.9276 4.5545 4.5545 0 0 0 4.362.9542z" fill="#34b743"/><path d="m13.6075 11.3907s2.6772-8.5893 2.2395-10.6407a8.7144 8.7144 0 0 1 3.1135 1.1537c.7338.7058-.4028 1.0867-.874 2.1836s-2.8963 6.7814-3.01 7.5472z" fill="#93603e"/><path d="m25.4046 25.5189a31.6616 31.6616 0 0 0 -5.9361-12.1889 7.1045 7.1045 0 0 0 -5.861-3.2735 6.73 6.73 0 0 0 -5.6725 3.2735 31.4854 31.4854 0 0 0 -6.1214 12.1814c-.6812 1.763-1.0636 6.5603-1.0636 8.605 0 7.9826 5.7565 11.599 12.8575 11.599s12.8575-3.6164 12.8575-11.599c0-2.0418-.381-6.8364-1.0604-8.5975z" fill="#1d4921"/><path d="m40.3263 25.5189a31.6616 31.6616 0 0 0 -5.9363-12.1889 7.1045 7.1045 0 0 0 -5.861-3.2735 6.73 6.73 0 0 0 -5.6723 3.2735 31.4868 31.4868 0 0 0 -6.1214 12.1818c-.6812 1.763-1.0636 6.56-1.0636 8.605 0 7.9826 5.7565 11.599 12.8575 11.599s12.8575-3.6164 12.8575-11.599c0-2.0422-.381-6.8368-1.0604-8.5979z" fill="#bad362"/></g><circle cx="28.5292" cy="32.5248" fill="#93603e" r="5.1476"/><path d="m31.5764 33.7936a.4894.4894 0 0 1 -.1387-.02.5.5 0 0 1 -.3418-.6191 2.6013 2.6013 0 0 0 -.1338-2.12 2.7586 2.7586 0 0 0 -1.6121-1.0983.5.5 0 1 1 .1973-.98 3.7307 3.7307 0 0 1 2.27 1.56 3.55 3.55 0 0 1 .24 2.917.5.5 0 0 1 -.4809.3604z" fill="#3a3939"/><circle cx="28.5292" cy="32.5248" fill="none" r="5.1476" stroke="#3a3939" stroke-linecap="round" stroke-linejoin="round" stroke-width="1.5"/></svg>