<svg viewBox="0 0 48.638 44.51" xmlns="http://www.w3.org/2000/svg"><path d="m32.45 37.067a8.533 8.533 0 0 0 4.123-.644s1.153-.431.666 1.417l-.745 4.47s-.762 2.816 2.056.592 4.69-4.663 4.565-7.384l-.33-.805s-5.812-2.023-6.227-2.257-6.314 3.697-4.109 4.611z" fill="#ff917b"/><path d="m36.915 44.51a1.203 1.203 0 0 1 -.68-.201c-.834-.55-.566-1.82-.465-2.195l.73-4.397a3.788 3.788 0 0 0 .095-.473 9.411 9.411 0 0 1 -4.224.569.73.73 0 0 1 -.208-.054 1.402 1.402 0 0 1 -.95-1.188c-.138-1.53 2.4-3.347 3.498-4.057 1.499-.968 1.89-.896 2.216-.712.32.16 3.388 1.256 6.106 2.202a.748.748 0 0 1 .447.424l.33.805a.755.755 0 0 1 .054.249c.126 2.714-1.46 5.335-4.848 8.008a3.88 3.88 0 0 1 -2.101 1.02zm-.067-8.874a1.201 1.201 0 0 1 .826.305c.68.614.386 1.725.29 2.09l-.73 4.402a2.895 2.895 0 0 0 -.08.495 4.979 4.979 0 0 0 .932-.615c2.925-2.309 4.328-4.48 4.284-6.637l-.15-.367c-1.678-.585-4.772-1.673-5.756-2.077-.93.369-3.472 2.318-3.735 3.103a7.5 7.5 0 0 0 3.502-.579 1.732 1.732 0 0 1 .617-.12zm-.658-2.526a.65.65 0 0 0 .052.026z" fill="#3a3939"/><path d="m35.891 31.983s7.624 4.905 9.933 2.21.52-4.55.52-4.55l-9.97.083a1.545 1.545 0 0 0 -.483 2.257z" fill="#ff917b"/><path d="m43.72 35.742c-3.25 0-7.604-2.723-8.234-3.128a.749.749 0 0 1 -.242-.252 2.282 2.282 0 0 1 .766-3.293.748.748 0 0 1 .357-.094l9.972-.083h.006a.751.751 0 0 1 .54.23c.782.812 1.685 3.018-.491 5.56a3.353 3.353 0 0 1 -2.674 1.06zm-7.26-4.286c2.761 1.739 7.45 3.816 8.794 2.249 1.423-1.661 1.01-2.834.722-3.31l-9.37.078a.744.744 0 0 0 -.146.983z" fill="#3a3939"/><path d="m35.583 25.104s-2.558 2.607.343 4.732c0 0 10.38.63 11.568-.615s-.645-5.341-.645-5.341-.87-2.002-1.468-2.073-9.798 3.297-9.798 3.297z" fill="#ff917b"/><path d="m41.222 30.76c-2.028 0-4.043-.098-5.341-.176a.75.75 0 0 1 -.398-.143 3.7 3.7 0 0 1 -1.68-2.694 4.507 4.507 0 0 1 1.245-3.169.752.752 0 0 1 .277-.178c9.366-3.43 9.95-3.36 10.145-3.338.68.08 1.376.928 2.067 2.518.337.753 1.962 4.627.5 6.159-.77.808-3.807 1.021-6.815 1.021zm-5.022-1.66c4.656.27 10.029.193 10.76-.405.493-.517-.01-2.752-.795-4.51a6.89 6.89 0 0 0 -.943-1.62c-.825.183-5.757 1.919-9.203 3.177a2.862 2.862 0 0 0 -.722 1.891 2.164 2.164 0 0 0 .904 1.467zm-22.737-15.97a.756.756 0 0 1 -.221-.033c-6.467-1.998-4.877-12.044-4.806-12.47a.75.75 0 0 1 1.48.245c-.015.092-1.45 9.18 3.768 10.79a.75.75 0 0 1 -.22 1.468z" fill="#3a3939"/><path d="m40.912 14.379c.09-.306 7.946 2.96 4.518 6.85s-5.022 5.737-6.166 5.867-3.693.796-5.44-2.151a21.663 21.663 0 0 0 7.088-10.566z" fill="#ff917b"/><path d="m37.65 28a4.91 4.91 0 0 1 -4.47-2.673.75.75 0 0 1 .202-.987 21.11 21.11 0 0 0 6.81-10.174.818.818 0 0 1 .689-.553c.854-.098 4.576 1.672 5.761 4.007a3.458 3.458 0 0 1 -.65 4.105l-.32.364c-3.486 3.957-4.928 5.593-6.324 5.751l-.316.042a9.743 9.743 0 0 1 -1.382.119zm-2.82-2.902a3.762 3.762 0 0 0 3.994 1.3l.355-.048c.821-.094 2.63-2.145 5.366-5.252l.322-.365a2.024 2.024 0 0 0 .562-2.15c-.558-1.548-2.909-2.855-4.013-3.31a22.598 22.598 0 0 1 -6.585 9.825zm-27.979-7.32a14.544 14.544 0 0 1 -6.459-1.47.75.75 0 0 1 .714-1.32 13.339 13.339 0 0 0 13.353-1.112.75.75 0 0 1 .838 1.245 14.9 14.9 0 0 1 -8.446 2.657z" fill="#3a3939"/><path d="m30.542 9.363s10.932-.941 10.296 3.383-4.327 12.447-7.865 12.054-9.668-3.871-9.597-5.177 9.875.04 7.166-10.26z" fill="#ff917b"/><path d="m33.234 25.564a3.147 3.147 0 0 1 -.344-.02c-3.39-.377-10.378-3.855-10.263-5.963.048-.888.979-1.117 2.157-1.407 1.572-.387 3.724-.917 4.8-2.727.82-1.38.899-3.363.233-5.894a.75.75 0 0 1 .661-.938c.816-.07 8.031-.614 10.37 1.869a2.763 2.763 0 0 1 .733 2.37c-.576 3.914-4.073 12.71-8.347 12.71zm-8.984-5.694c.871 1.087 5.662 3.836 8.807 4.185 2.722.306 6.376-6.902 7.04-11.418a1.257 1.257 0 0 0 -.34-1.123c-1.375-1.46-5.852-1.573-8.28-1.459a8.494 8.494 0 0 1 -.603 6.16c-1.396 2.35-4.005 2.992-5.73 3.418-.301.073-.65.159-.894.237z" fill="#3a3939"/><path d="m14.277 11.748s9.415-6.202 15.32-3.1c4.964 2.607-1.5 11.528-6.222 10.975-6.87-.806-8.48-3.233-9.098-7.876z" fill="#ff917b"/><g fill="#3a3939"><path d="m23.81 20.398a4.44 4.44 0 0 1 -.522-.03c-7.36-.863-9.107-3.661-9.755-8.521a.75.75 0 0 1 .332-.725c.399-.264 9.855-6.41 16.08-3.138 1.956 1.028 2.646 3.013 1.892 5.448-1.041 3.365-4.68 6.966-8.026 6.966zm-8.721-8.272c.623 4.058 2.113 6.018 8.374 6.752 2.66.302 6.04-2.979 6.942-5.89.372-1.205.474-2.82-1.157-3.676-4.787-2.512-12.347 1.719-14.16 2.814z"/><circle cx="24.399" cy="13.124" r="1.054"/></g></svg>