<svg xmlns="http://www.w3.org/2000/svg" viewBox="0 0 25.4457 55.8571"><defs><style>.cls-1{fill:#f7f7f5;}.cls-2{fill:#d2f1f9;}.cls-3{fill:none;}.cls-3,.cls-4,.cls-5{stroke:#3a3939;}.cls-3,.cls-4{stroke-linecap:round;stroke-linejoin:round;}.cls-4{fill:#bcb8b8;}.cls-5{fill:#f9f9f9;stroke-miterlimit:10;}</style></defs><title>Asset 173</title><g id="Layer_2" data-name="Layer 2"><g id="Layer_3" data-name="Layer 3"><path class="cls-1" d="M24.9457,21.5148V51.3279a4.029,4.029,0,0,1-4.0292,4.0292H4.5292A4.029,4.029,0,0,1,.5,51.3279V21.5148a9.0059,9.0059,0,0,1,.6313-3.31l3.1956-8.0828a6.7662,6.7662,0,0,1,3.0225.3925c2.2888.936,3.42-.0512,4.7677-.4193A6.8592,6.8592,0,0,1,16.0829,9.73c1.5186.3632,3.43,1.0311,5.1383.6459l3.0932,7.8293A9.0059,9.0059,0,0,1,24.9457,21.5148Z"/><path class="cls-2" d="M19.5125,6.79l1.7087,3.5855c-1.7087.3852-3.62-.2827-5.1383-.6459a6.8592,6.8592,0,0,0-3.9658.3656c-1.3479.3681-2.4789,1.3553-4.7677.4193a6.7662,6.7662,0,0,0-3.0225-.3925L5.9429,6.79a1.2389,1.2389,0,0,0,.12-.4924c.0219-.7483.0073-2.6008.0073-2.6008a.5716.5716,0,0,0-.18-.37.5653.5653,0,0,0-.3851-.1511.5669.5669,0,0,1-.5679-.568V1.63A1.1276,1.1276,0,0,1,6.0648.5011H19.3809A1.1276,1.1276,0,0,1,20.5094,1.63V2.6534a.55.55,0,0,1-.5923.5217.5635.5635,0,0,0-.5411.5216s-.0073,1.8842.0195,2.62A1.1867,1.1867,0,0,0,19.5125,6.79Z"/><path class="cls-3" d="M21.2212,10.3754,19.5125,6.79a1.1867,1.1867,0,0,1-.117-.4729c-.0268-.7361-.0195-2.62-.0195-2.62a.5635.5635,0,0,1,.5411-.5216.55.55,0,0,0,.5923-.5217V1.63A1.1276,1.1276,0,0,0,19.3809.5011H6.0648A1.1276,1.1276,0,0,0,4.9363,1.63v.9774a.5669.5669,0,0,0,.5679.568.5653.5653,0,0,1,.3851.1511.5716.5716,0,0,1,.18.37s.0146,1.8525-.0073,2.6008a1.2389,1.2389,0,0,1-.12.4924l-1.616,3.332"/><path class="cls-3" d="M4.3269,10.1219,1.1313,18.2047A9.0059,9.0059,0,0,0,.5,21.5148V51.3279a4.029,4.029,0,0,0,4.0292,4.0292H20.9165a4.029,4.029,0,0,0,4.0292-4.0292V21.5148a9.0059,9.0059,0,0,0-.6313-3.31l-3.0932-7.8293c-1.7087.3852-3.62-.2827-5.1383-.6459a6.8592,6.8592,0,0,0-3.9658.3656c-1.3479.3681-2.4789,1.3553-4.7677.4193A6.7662,6.7662,0,0,0,4.3269,10.1219Z"/><rect class="cls-4" x="4.8368" y="0.5" width="15.7722" height="3.0622" rx="1.1259" ry="1.1259"/><path class="cls-5" d="M6.838,31.17c.2394-.4915,2.5431.3973,2.6815,0a1.9256,1.9256,0,0,0-.0848-1.0212c-1.233-3.3271.736-3.8494.939-3.0667.07.27-.2312.8916.0141,1.3695.6619,1.29,1.0294,1.4272,1.0294,1.4272l1.3533.1435.1385.0132A.8476.8476,0,0,0,13,30.0221l1.3534-.1435s.3675-.1374,1.0293-1.4272c.2453-.4779-.0558-1.1.0141-1.3695.203-.7827,2.1721-.26.939,3.0667a1.926,1.926,0,0,0-.0847,1.0212c.1383.3973,2.442-.4915,2.6815,0a2.1522,2.1522,0,0,1-1.015,2.2043,2.643,2.643,0,0,1-1.3267.2172L15.3369,37.065s1.0556,2.364-2.4514,1.9057c-3.5071.4583-2.4514-1.9057-2.4514-1.9057L9.18,33.5913a2.6434,2.6434,0,0,1-1.3268-.2172A2.1521,2.1521,0,0,1,6.838,31.17Z"/><path class="cls-3" d="M17.5165,5.7031V6.7058a1.399,1.399,0,0,0,.1713.6708l.6236,1.1413"/></g></g></svg>
