<svg xmlns="http://www.w3.org/2000/svg" viewBox="0 0 47.994 41.3893"><defs><style>.cls-1{fill:#fff7d7;}.cls-1,.cls-4{stroke:#3a3939;}.cls-1,.cls-2,.cls-3,.cls-4,.cls-5{stroke-linecap:round;stroke-linejoin:round;stroke-width:1.5px;}.cls-2{fill:#994811;}.cls-2,.cls-3{stroke:#3f2d20;}.cls-3{fill:#e5b789;}.cls-4{fill:#f4bdb3;}.cls-5{fill:none;stroke:#683d25;}</style></defs><title>Asset 198</title><g id="Layer_2" data-name="Layer 2"><g id="Layer_3" data-name="Layer 3"><path class="cls-1" d="M31.6561,16.54,27.66,15.9393S30.2235,4.34,32.4358,2.4112c1.0334-.9009,4.8594-.29,4.08.8379C33.7214,7.2878,31.6561,16.54,31.6561,16.54Z"/><path class="cls-1" d="M23.4011,15.8254l-3.9958-.6006S21.9685,3.6254,24.1808,1.6967c1.0334-.9009,4.8594-.29,4.0795.8379C25.4664,6.5733,23.4011,15.8254,23.4011,15.8254Z"/><path class="cls-1" d="M14.9688,15.3124l-3.9959-.6006S13.5362,3.1124,15.7485,1.1837c1.0333-.9009,4.8594-.29,4.0795.8379C17.0341,6.06,14.9688,15.3124,14.9688,15.3124Z"/><path class="cls-2" d="M11.6485,12.0849s20.39-.2935,21.8518-.2587a12.0827,12.0827,0,0,0-4.9723,3.7032c-2.4145,2.8062-8.5488,8.9555-2.5024,18.6267,1.2557,2.0085,6.4205,5.4377,9.9174,6.463H11.2711a8.9945,8.9945,0,0,1-5.407-2.4528c-2.56-2.1932-5.81-6.1447-4.9828-11.6447A18.9932,18.9932,0,0,1,11.6485,12.0849Z"/><path class="cls-3" d="M35.01,11.917s2.0294.1673,2.7148,1.5744c1.2207,2.5059-.8993,7.1152,7.37,12.5929,5.42,3.59-.4738,13.7667-5.9561,14.4252,0,0-7.2026,1.2154-11.9408-3.7915-4.1411-4.376-5.0084-8.2711-3.8884-13.0328S29.9508,10.883,35.01,11.917Z"/><path class="cls-4" d="M33.1434,17.3113a2.3532,2.3532,0,0,0-2.593,1.5953c-.6758,1.6922-1.3109,2.7795-.6,3.3889a3.878,3.878,0,0,0,2.3508.6043c.2471-.0277,3.5707-.6195,3.0552-2.2708s-.826-1.4593-1.0178-2.1515A2.0081,2.0081,0,0,0,33.1434,17.3113Z"/><path class="cls-4" d="M28.064,28.2256c-.87,2.0815.8121,4.1169,1.4888,4.8123,1.1968,1.23,3.2393,3.7161,5.8851,3.81s5.4321.4558,7.1581-2.8109c.718-1.359,2.3793-3.6779-1.9863-6.526-2.0637-1.3463-4.089-3.0274-6.4348-2.1287C31.8934,26.256,29.28,25.3163,28.064,28.2256Z"/><path class="cls-5" d="M8.752,32.9214a11.7156,11.7156,0,0,0,2.1938,3.3862"/><path class="cls-5" d="M15.6312,29.338a9.8853,9.8853,0,0,0,3.31,7.0693"/><line class="cls-5" x1="6.2246" y1="25.2503" x2="19.2602" y2="25.8177"/><line class="cls-5" x1="5.0088" y1="30.1296" x2="19.2095" y2="30.6152"/><line class="cls-5" x1="8.3406" y1="34.6659" x2="19.8023" y2="34.9655"/><path class="cls-5" d="M17.6262,22.5782s-1.9892.4578-2.1033,4.8787"/><path class="cls-5" d="M10.0937,21.9047S5.9946,24.7619,8.12,31.4512"/></g></g></svg>
