<svg viewBox="0 0 44.5366 42.1543" xmlns="http://www.w3.org/2000/svg"><path d="m41.37 15.2043a3.2788 3.2788 0 0 0 -3.9191-3.23l-.013-.02c0-.0146.0043-.0281.0043-.0428a2.9423 2.9423 0 0 0 -2.4168-2.8925q-.5311-.5234-1.1039-1.0024a3.0759 3.0759 0 0 0 -4.1909-2.7566 2.7488 2.7488 0 0 0 -2.4132-1.4457c-.21 0-.26.0333-.26-.4888a2.5753 2.5753 0 1 0 -5.1505 0c0 .2768-1.014-.7607-1.7626-.7607a3.1979 3.1979 0 0 0 -2.9623 1.9976c-.3888.1153-.7729.241-1.15.3812a2.9256 2.9256 0 0 0 -4.56 1.0272 2.7587 2.7587 0 0 0 -3.34 4.1849h-.0071a5.3239 5.3239 0 0 0 -4.7479 7.746 2.8232 2.8232 0 0 0 .883 4.7353 18.0888 18.0888 0 1 0 35.71-4.7451 3.2835 3.2835 0 0 0 1.4-2.6876z" fill="#f7f6e8"/><path d="m22.332 40.7461a18.7789 18.7789 0 0 1 -18.7978-17.6231 3.5687 3.5687 0 0 1 -1.0474-5.3662 5.9914 5.9914 0 0 1 -.4429-2.27 6.0906 6.0906 0 0 1 4.9243-5.9712 3.4624 3.4624 0 0 1 -.1548-1.0244 3.5243 3.5243 0 0 1 3.5206-3.52 3.4343 3.4343 0 0 1 .7983.0938 3.71 3.71 0 0 1 3.0161-1.567 3.6264 3.6264 0 0 1 2.0078.6045c.1612-.0546.3233-.1084.4864-.1591a3.93 3.93 0 0 1 3.5014-2.1289 2.5085 2.5085 0 0 1 1.21.3837 3.3252 3.3252 0 0 1 6.446.9073 3.5146 3.5146 0 0 1 2.2466 1.28 3.8439 3.8439 0 0 1 4.5942 3.2579q.3867.3339.7539.6875a3.6919 3.6919 0 0 1 2.7212 2.83 4.038 4.038 0 0 1 2.6841 7.0246 18.8311 18.8311 0 0 1 -18.468 22.5606zm-11.998-34.2754a2.0227 2.0227 0 0 0 -2.0206 2.02 1.992 1.992 0 0 0 .4156 1.2114.75.75 0 0 1 -.5977 1.2032 4.5871 4.5871 0 0 0 -4.5874 4.581 4.5224 4.5224 0 0 0 .501 2.0742.7509.7509 0 0 1 -.1626.8956 2.073 2.073 0 0 0 .6484 3.4814.75.75 0 0 1 .4786.6689 17.3387 17.3387 0 1 0 34.2294-4.5488.75.75 0 0 1 .2994-.7793 2.5348 2.5348 0 0 0 -1.9454-4.5674.7412.7412 0 0 1 -.7724-.331.8252.8252 0 0 1 -.1319-.4512c.001-.0283.0059-.0771.01-.1055a2.1805 2.1805 0 0 0 -1.8071-2.0664.7557.7557 0 0 1 -.3921-.2041q-.5092-.5008-1.0592-.9609a.7475.7475 0 0 1 -.2681-.541 2.3276 2.3276 0 0 0 -3.1762-2.09.749.749 0 0 1 -.9239-.3418 2.0062 2.0062 0 0 0 -1.7548-1.0546.9378.9378 0 0 1 -.7237-.25 1.28 1.28 0 0 1 -.2866-.9893 1.8252 1.8252 0 0 0 -3.65 0 .8365.8365 0 0 1 -.4131.7031c-.4472.24-.834-.0137-1.2075-.26a2.8064 2.8064 0 0 0 -.8921-.4541 2.4391 2.4391 0 0 0 -2.2671 1.53.75.75 0 0 1 -.4819.4365c-.3731.1114-.7412.2315-1.103.3653a.7476.7476 0 0 1 -.7408-.127 2.1777 2.1777 0 0 0 -1.4028-.5215 2.2086 2.2086 0 0 0 -1.9961 1.2872.7538.7538 0 0 1 -.99.3691 1.9945 1.9945 0 0 0 -.8283-.183z" fill="#3a3939"/><path d="m8.2723 11.992 1.4147.9807" fill="#f7f6e8"/><path d="m9.6865 13.7227a.7437.7437 0 0 1 -.4268-.1338l-1.4145-.9805a.75.75 0 0 1 .8548-1.2324l1.4145.98a.75.75 0 0 1 -.4277 1.3663z" fill="#3a3939"/><path d="m34.3598 15.687 1.4148.9807" fill="#f7f6e8"/><path d="m35.7739 17.418a.7447.7447 0 0 1 -.4272-.1338l-1.4146-.9815a.75.75 0 1 1 .8555-1.2324l1.4145.9815a.75.75 0 0 1 -.4282 1.3662z" fill="#3a3939"/><path d="m25.1903 12.1302-.352 1.685" fill="#f7f6e8"/><path d="m24.8393 14.5654a.7593.7593 0 0 1 -.1543-.0156.7509.7509 0 0 1 -.581-.8877l.352-1.6855a.75.75 0 0 1 1.4688.3066l-.3521 1.6856a.7509.7509 0 0 1 -.7334.5966z" fill="#3a3939"/><path d="m12.6974 16.6677.9141 1.4586" fill="#f7f6e8"/><path d="m13.6118 18.876a.7475.7475 0 0 1 -.6358-.3516l-.914-1.458a.75.75 0 1 1 1.2705-.7969l.9141 1.458a.75.75 0 0 1 -.6348 1.1485z" fill="#3a3939"/><path d="m17.899 7.1999.9142 1.4587" fill="#f7f6e8"/><path d="m18.8134 9.4082a.7474.7474 0 0 1 -.6357-.3516l-.9141-1.458a.75.75 0 1 1 1.2706-.7968l.914 1.458a.75.75 0 0 1 -.6348 1.1484z" fill="#3a3939"/><path d="m1.9708 14.2718 1.3865 1.0202" fill="#f7f6e8"/><path d="m3.3569 16.042a.7516.7516 0 0 1 -.4438-.1455l-1.3868-1.0205a.75.75 0 0 1 .8887-1.209l1.3867 1.0205a.75.75 0 0 1 -.4448 1.3545z" fill="#3a3939"/><path d="m30.6964 3.9209-.6308 1.6017" fill="#f7f6e8"/><path d="m30.0654 6.2725a.7491.7491 0 0 1 -.6978-1.0245l.6309-1.6015a.75.75 0 1 1 1.3955.5488l-.6308 1.6016a.75.75 0 0 1 -.6978.4756z" fill="#3a3939"/><path d="m33.0556 10.307-.352 1.685" fill="#f7f6e8"/><path d="m32.7046 12.7422a.7492.7492 0 0 1 -.7354-.9033l.3521-1.6856a.75.75 0 1 1 1.4687.3067l-.352 1.6855a.7512.7512 0 0 1 -.7334.5967z" fill="#3a3939"/><path d="m29.2211 17.8352.8445 1.5001" fill="#f7f6e8"/><path d="m30.0659 20.085a.7509.7509 0 0 1 -.6543-.3819l-.8442-1.5a.75.75 0 0 1 1.3076-.7363l.8442 1.5a.7507.7507 0 0 1 -.6533 1.1182z" fill="#3a3939"/><path d="m19.0958 14.2718-1.4702-.7771" fill="#f7f6e8"/><path d="m19.0952 15.0215a.7405.7405 0 0 1 -.35-.0869l-1.47-.7764a.75.75 0 1 1 .7-1.3262l1.47.7764a.75.75 0 0 1 -.3506 1.4131z" fill="#3a3939"/><path d="m24.41 5.827 1.5606.7264" fill="#f7f6e8"/><path d="m25.97 7.3037a.7433.7433 0 0 1 -.3159-.07l-1.5606-.7266a.75.75 0 1 1 .6328-1.3593l1.5606.7265a.75.75 0 0 1 -.3169 1.43z" fill="#3a3939"/><path d="m43.7808 21.668a1.7274 1.7274 0 0 0 -1.73-1.8553h-39.5648a1.7274 1.7274 0 0 0 -1.73 1.8553 21.5947 21.5947 0 0 0 11.221 17.128 1.0593 1.0593 0 0 1 .5621.929v1.1323a.5466.5466 0 0 0 .5466.5466h18.3652a.5466.5466 0 0 0 .5466-.5466v-1.1323a1.0593 1.0593 0 0 1 .5621-.929 21.5944 21.5944 0 0 0 11.2212-17.128z" fill="#a4b3ea"/><g fill="#3a3939"><path d="m31.4511 42.1543h-18.3652a1.2984 1.2984 0 0 1 -1.2969-1.2969v-1.1328a.311.311 0 0 0 -.17-.27 22.2765 22.2765 0 0 1 -11.6102-17.7232 2.45 2.45 0 0 1 .6386-1.86 2.5024 2.5024 0 0 1 1.8384-.8086h39.565a2.5022 2.5022 0 0 1 1.8383.8086 2.4485 2.4485 0 0 1 .6387 1.86 22.2765 22.2765 0 0 1 -11.61 17.7237.3111.3111 0 0 0 -.17.27v1.1328a1.2982 1.2982 0 0 1 -1.2967 1.2964zm-18.1621-1.5h17.9585v-.93a1.8124 1.8124 0 0 1 .9541-1.5879 20.78 20.78 0 0 0 10.8321-16.5319.9352.9352 0 0 0 -.2491-.7188 1.001 1.001 0 0 0 -.7338-.3232h-39.565a1.0014 1.0014 0 0 0 -.7339.3232.9348.9348 0 0 0 -.249.7188 20.78 20.78 0 0 0 10.832 16.5322 1.8122 1.8122 0 0 1 .9541 1.5879z"/><path d="m33.5122 34.8682a.75.75 0 0 1 -.4414-1.3565c4.2011-3.0517 5.7929-8.4287 5.8086-8.4824a.75.75 0 0 1 1.4414.416c-.07.24-1.7549 5.9287-6.3682 9.2793a.7481.7481 0 0 1 -.4404.1436z"/></g></svg>