<svg viewBox="0 0 29.7568 43.6309" xmlns="http://www.w3.org/2000/svg"><path d="m21.1146 23.2149c-2.1146-1.4349-.3946-2.799-.3946-2.799 6.3042-4.8624 8.2869-18.8117 8.2869-18.8117a.8545.8545 0 0 0 -.8548-.8542h-.2387a.8372.8372 0 0 0 -.8173.6134 2.4523 2.4523 0 0 1 -4.7483 0 .8511.8511 0 0 0 -1.6344 0 2.4523 2.4523 0 0 1 -4.7483 0 .8373.8373 0 0 0 -.8173-.6134h-.5392a.8371.8371 0 0 0 -.8172.6134 2.4523 2.4523 0 0 1 -4.7483 0 .8511.8511 0 0 0 -1.6345 0 2.4523 2.4523 0 0 1 -4.7483 0 .8372.8372 0 0 0 -.8172-.6134h-.2388a.8545.8545 0 0 0 -.8543.8542s2.3805 13.9493 8.6847 18.8117c0 0 1.72 1.3641-.3949 2.799-6.992 4.7451-8.0228 18.8117-8.0228 18.8117a.8544.8544 0 0 0 .8545.8544h.2412a.8373.8373 0 0 0 .8172-.6133 2.4523 2.4523 0 0 1 4.7483 0 .8512.8512 0 0 0 1.6345 0 2.4523 2.4523 0 0 1 4.7483 0 .8512.8512 0 0 0 1.6345 0 2.4522 2.4522 0 0 1 4.7482 0 .8512.8512 0 0 0 1.6345 0 2.4523 2.4523 0 0 1 4.7483 0 .8373.8373 0 0 0 .8173.6133h.2411a.8544.8544 0 0 0 .8545-.8544s-.6328-14.0666-7.6248-18.8117z" fill="#ffe4a9"/><g fill="#3a3939"><path d="m27.8848 43.6309h-.2412a1.5833 1.5833 0 0 1 -1.5436-1.1768 1.7025 1.7025 0 0 0 -3.2959.001 1.6007 1.6007 0 0 1 -3.0869-.001 1.7025 1.7025 0 0 0 -3.2959.001 1.6007 1.6007 0 0 1 -3.0869-.001 1.7025 1.7025 0 0 0 -3.2959.001 1.6007 1.6007 0 0 1 -3.0869-.001 1.7025 1.7025 0 0 0 -3.2959.001 1.5826 1.5826 0 0 1 -1.543 1.1758h-.2411a1.6063 1.6063 0 0 1 -1.6045-1.6045c.0454-.6436 1.1421-14.5391 8.3516-19.4317.4575-.3105.7153-.63.7251-.8984a1.08 1.08 0 0 0 -.3755-.6924c-6.4537-4.9775-8.8583-18.6924-8.9576-19.2734a.7257.7257 0 0 1 -.0107-.126 1.6062 1.6062 0 0 1 1.6045-1.6045h.2388a1.5832 1.5832 0 0 1 1.5434 1.1768 1.7025 1.7025 0 0 0 3.2959-.001 1.6007 1.6007 0 0 1 3.0869.001 1.7025 1.7025 0 0 0 3.2959-.001 1.5826 1.5826 0 0 1 1.543-1.1758h.54a1.5833 1.5833 0 0 1 1.5435 1.1768 1.7025 1.7025 0 0 0 3.2959-.001 1.6007 1.6007 0 0 1 3.0869.001 1.7025 1.7025 0 0 0 3.2959-.001 1.5832 1.5832 0 0 1 1.543-1.1758h.2387a1.6062 1.6062 0 0 1 1.6045 1.6045.7646.7646 0 0 1 -.0068.1055c-.083.582-2.1006 14.3086-8.5718 19.3a1.0612 1.0612 0 0 0 -.3667.6914c.0127.2676.27.5849.7246.8926l.0005.0009c7.22 4.8994 7.9258 18.8086 7.9522 19.3975a1.6125 1.6125 0 0 1 -1.604 1.6385zm-3.4327-3.9509a3.2 3.2 0 0 1 3.1006 2.4.0947.0947 0 0 0 .0909.0508h.2412a.1046.1046 0 0 0 .1045-.1045c-.0054-.1035-.6988-13.7139-7.2959-18.1914v.0009a2.6919 2.6919 0 0 1 -1.3823-2.0839 2.5234 2.5234 0 0 1 .9419-1.9239c5.7661-4.4472 7.8291-17.1416 8-18.2529a.1051.1051 0 0 0 -.1007-.0751h-.2387a.095.095 0 0 0 -.0908.05 3.2026 3.2026 0 0 1 -6.2012.001c-.0127-.0488-.17-.0479-.1817-.001a3.2025 3.2025 0 0 1 -6.2011.001.0947.0947 0 0 0 -.0909-.051h-.54a.0942.0942 0 0 0 -.09.05 3.2026 3.2026 0 0 1 -6.2012.001c-.0127-.0488-.17-.0479-.1816-.001a3.2026 3.2026 0 0 1 -6.2012.001.0946.0946 0 0 0 -.0906-.051h-.2388a.1022.1022 0 0 0 -.0986.0693c.22 1.2041 2.6489 13.8272 8.3867 18.253a2.524 2.524 0 0 1 .95 1.9306 2.69 2.69 0 0 1 -1.3819 2.083c-6.6152 4.4893-7.686 18.1084-7.6958 18.2452a.1647.1647 0 0 0 .1065.05h.2412a.0942.0942 0 0 0 .09-.05 3.2026 3.2026 0 0 1 6.2012-.001c.0127.0488.17.0478.1816.001a3.2026 3.2026 0 0 1 6.2012-.001c.0127.0488.17.0478.1817.001a3.2025 3.2025 0 0 1 6.2017-.0011c.0127.0488.17.0478.1817.001a3.2007 3.2007 0 0 1 3.1004-2.401z"/><path d="m12.6616 35.7539a.75.75 0 0 1 -.75-.75v-4.6439a11.8491 11.8491 0 0 1 1.1826-5.1436 10.2692 10.2692 0 0 0 .0762-8.8223l-.1616-.3476a11.8581 11.8581 0 0 1 -1.0972-4.9639v-2.9801a.75.75 0 0 1 1.5 0v2.9805a10.343 10.343 0 0 0 .9575 4.3311l.1617.3476a11.7728 11.7728 0 0 1 -.0855 10.1074 10.3375 10.3375 0 0 0 -1.0337 4.4909v4.6435a.75.75 0 0 1 -.75.7504z"/><path d="m17.8359 35.7539a.75.75 0 0 1 -.75-.75v-2.98a10.33 10.33 0 0 0 -.958-4.331l-.1616-.3486a11.7723 11.7723 0 0 1 .0855-10.1055 10.3377 10.3377 0 0 0 1.0341-4.4922v-4.6441a.75.75 0 0 1 1.5 0v4.6436a11.8472 11.8472 0 0 1 -1.1826 5.1439 10.2692 10.2692 0 0 0 -.0762 8.8223l.1617.3486a11.8486 11.8486 0 0 1 1.0971 4.9629v2.98a.75.75 0 0 1 -.75.7501z"/></g></svg>