<svg viewBox="0 0 25.4457 55.8571" xmlns="http://www.w3.org/2000/svg"><path d="m24.9457 21.5148v29.8131a4.029 4.029 0 0 1 -4.0292 4.0292h-16.3873a4.029 4.029 0 0 1 -4.0292-4.0292v-29.8131a9.0059 9.0059 0 0 1 .6313-3.31l3.1956-8.0828a6.7662 6.7662 0 0 1 3.0225.3925c2.2888.936 3.42-.0512 4.7677-.4193a6.8592 6.8592 0 0 1 3.9658-.3652c1.5186.3632 3.43 1.0311 5.1383.6459l3.0932 7.8293a9.0059 9.0059 0 0 1 .6313 3.3096z" fill="#f7f7f5"/><path d="m19.5125 6.79 1.7087 3.5855c-1.7087.3852-3.62-.2827-5.1383-.6459a6.8592 6.8592 0 0 0 -3.9658.3656c-1.3479.3681-2.4789 1.3553-4.7677.4193a6.7662 6.7662 0 0 0 -3.0225-.3925l1.616-3.332a1.2389 1.2389 0 0 0 .12-.4924c.0219-.7483.0073-2.6008.0073-2.6008a.5716.5716 0 0 0 -.18-.37.5653.5653 0 0 0 -.3851-.1511.5669.5669 0 0 1 -.5679-.568v-.9777a1.1276 1.1276 0 0 1 1.1276-1.1289h13.3161a1.1276 1.1276 0 0 1 1.1285 1.1289v1.0234a.55.55 0 0 1 -.5923.5217.5635.5635 0 0 0 -.5411.5216s-.0073 1.8842.0195 2.62a1.1867 1.1867 0 0 0 .117.4733z" fill="#d2f1f9"/><g stroke="#3a3939"><path d="m21.2212 10.3754-1.7087-3.5854a1.1867 1.1867 0 0 1 -.117-.4729c-.0268-.7361-.0195-2.62-.0195-2.62a.5635.5635 0 0 1 .5411-.5216.55.55 0 0 0 .5923-.5217v-1.0238a1.1276 1.1276 0 0 0 -1.1285-1.1289h-13.3161a1.1276 1.1276 0 0 0 -1.1285 1.1289v.9774a.5669.5669 0 0 0 .5679.568.5653.5653 0 0 1 .3851.1511.5716.5716 0 0 1 .18.37s.0146 1.8525-.0073 2.6008a1.2389 1.2389 0 0 1 -.12.4924l-1.616 3.332" fill="none" stroke-linecap="round" stroke-linejoin="round"/><path d="m4.3269 10.1219-3.1956 8.0828a9.0059 9.0059 0 0 0 -.6313 3.3101v29.8131a4.029 4.029 0 0 0 4.0292 4.0292h16.3873a4.029 4.029 0 0 0 4.0292-4.0292v-29.8131a9.0059 9.0059 0 0 0 -.6313-3.31l-3.0932-7.8293c-1.7087.3852-3.62-.2827-5.1383-.6459a6.8592 6.8592 0 0 0 -3.9658.3656c-1.3479.3681-2.4789 1.3553-4.7677.4193a6.7662 6.7662 0 0 0 -3.0225-.3926z" fill="none" stroke-linecap="round" stroke-linejoin="round"/><rect fill="#bcb8b8" height="3.0622" rx="1.1259" stroke-linecap="round" stroke-linejoin="round" width="15.7722" x="4.8368" y=".5"/><path d="m6.838 31.17c.2394-.4915 2.5431.3973 2.6815 0a1.9256 1.9256 0 0 0 -.0848-1.0212c-1.233-3.3271.736-3.8494.939-3.0667.07.27-.2312.8916.0141 1.3695.6619 1.29 1.0294 1.4272 1.0294 1.4272l1.3533.1435.1385.0132a.8476.8476 0 0 0 .091-.0134l1.3534-.1435s.3675-.1374 1.0293-1.4272c.2453-.4779-.0558-1.1.0141-1.3695.203-.7827 2.1721-.26.939 3.0667a1.926 1.926 0 0 0 -.0847 1.0212c.1383.3973 2.442-.4915 2.6815 0a2.1522 2.1522 0 0 1 -1.015 2.2043 2.643 2.643 0 0 1 -1.3267.2172l-1.254 3.4737s1.0556 2.364-2.4514 1.9057c-3.5071.4583-2.4514-1.9057-2.4514-1.9057l-1.2541-3.4737a2.6434 2.6434 0 0 1 -1.3268-.2172 2.1521 2.1521 0 0 1 -1.0152-2.2041z" fill="#f9f9f9" stroke-miterlimit="10"/><path d="m17.5165 5.7031v1.0027a1.399 1.399 0 0 0 .1713.6708l.6236 1.1413" fill="none" stroke-linecap="round" stroke-linejoin="round"/></g></svg>