<svg xmlns="http://www.w3.org/2000/svg" viewBox="0 0 39.1148 46.9217"><defs><style>.cls-1{fill:#d12600;}.cls-2{fill:#3a3939;}.cls-3{fill:#2e4716;}.cls-3,.cls-4{fill-rule:evenodd;}.cls-4{fill:none;stroke:#3a3939;stroke-linecap:round;stroke-linejoin:round;stroke-width:1.5px;}</style></defs><title>Asset 158</title><g id="Layer_2" data-name="Layer 2"><g id="Layer_3" data-name="Layer 3"><circle class="cls-1" cx="19.5573" cy="27.365" r="18.8073"/><path class="cls-2" d="M19.5571,46.9217A19.5571,19.5571,0,1,1,39.1148,27.3651,19.5793,19.5793,0,0,1,19.5571,46.9217Zm0-37.6142A18.0571,18.0571,0,1,0,37.6148,27.3651,18.0779,18.0779,0,0,0,19.5571,9.3075Z"/><path class="cls-3" d="M38.3646,16.9377s-1.4277-3.2039-2.961-4.1143a21.3266,21.3266,0,0,0-4.3774-1.6453,8.7084,8.7084,0,0,0-2.9618-.3179,14.5342,14.5342,0,0,0-2.5367.1517c-.3159.0494-.63.11-.9419.1782-.877.082-1.7411.1939-2.5925.3011l-.5668.071c-.0593.0073-.072.0073-.0883.0084l-.0523.0037a.9686.9686,0,0,1-.1022.0024.2992.2992,0,0,1-.2892-.22.7673.7673,0,0,1-.04-.18l-.0836-.5094q-.0975-.5618-.2114-1.12A46.4685,46.4685,0,0,0,19.2231,4.472L18.9792,3.75c-.1278-.3468-.2393-.7165-.3821-1.0417l-.2033-.5a.789.789,0,0,0-.115-.2108l-.1208-.183c-.0824-.1193-.1626-.2493-.245-.36a2.4694,2.4694,0,0,0-.266-.2673A1.8933,1.8933,0,0,0,17,.8161a1.3525,1.3525,0,0,0-.8316-.0012,1.5649,1.5649,0,0,0-.3427.171c-.1022.077-.2009.1625-.3008.2432-.0952.0928-.18.2084-.27.3119-.0859.112-.1567.2445-.2357.3661a10.3016,10.3016,0,0,0-.5448,2.9876c.0047.0445.0116.0879.0186.1313l.04.2637c.0372.1709.0662.3456.1127.5117.08.34,1.4519,3.33,1.8932,4.4471.1452.3769.3392.737.5053,1.1572a7.0841,7.0841,0,0,0-.8444-.48A14.1378,14.1378,0,0,0,12.181,9.7187a13.3158,13.3158,0,0,0-1.726-.31,7.8257,7.8257,0,0,0-3.1976.8948,7.4,7.4,0,0,0-3.2185,2.9237l-.158.2854L.75,19.1433l5.2507-4.2286A6.8014,6.8014,0,0,1,11.1414,13.17a13.1969,13.1969,0,0,1,3,.5069c.2509.07.5041.1457.7561.2263l.3787.1241.2764.0963c.08.029.0627.0241.0674.0278l.0058.0047c.0011.0025,0,.0049-.01.0061l-.0139.0012h.0012l.0011.0012-.0174.0193-.0209.0217-.0105.012c-.007.0072.0047-.0036-.036.0385l-.3554.3648c-.1208.1181-.2218.2541-.33.383a4.5257,4.5257,0,0,0-.3032.3986,11.6247,11.6247,0,0,0-1.496,2.9081A10.3909,10.3909,0,0,0,12.48,21.5l-.0453,3.845L14.35,22.0459A20.4805,20.4805,0,0,1,17,18.2142a7.9565,7.9565,0,0,1,1.2428-1.0766,6.1222,6.1222,0,0,1,1.4577-.7164,4.5675,4.5675,0,0,1,3.1395-.0073,3.9262,3.9262,0,0,1,1.5007,1.0934,5.5781,5.5781,0,0,1,.9582,1.7184,28.2605,28.2605,0,0,1,.6632,3.0285L26.1666,23.7,27.02,22.495a12.167,12.167,0,0,0,1.1058-3.5909,6.9833,6.9833,0,0,0-1.7934-4.4819L26.15,14.22l-.09-.1-.0546-.05-.2172-.1962h.0047c.2973-.0446.5842-.1565.8851-.2011l.5784-.1072c.1939-.0252.3879-.0422.583-.0626a13.14,13.14,0,0,1,4.3255.3263c.2416.065.4878.12.7259.1951s.4774.1481.719.2047a10.736,10.736,0,0,1,3.1511,1.5l.8362.6154.1418.1095Z"/><path class="cls-4" d="M38.3646,16.9377s-1.4277-3.2039-2.961-4.1143a21.3266,21.3266,0,0,0-4.3774-1.6453,8.7084,8.7084,0,0,0-2.9618-.3179,14.5342,14.5342,0,0,0-2.5367.1517c-.3159.0494-.63.11-.9419.1782-.877.082-1.7411.1939-2.5925.3011l-.5668.071c-.0593.0073-.072.0073-.0883.0084l-.0523.0037a.9686.9686,0,0,1-.1022.0024.2992.2992,0,0,1-.2892-.22.7673.7673,0,0,1-.04-.18l-.0836-.5094q-.0975-.5618-.2114-1.12A46.4685,46.4685,0,0,0,19.2231,4.472L18.9792,3.75c-.1278-.3468-.2393-.7165-.3821-1.0417l-.2033-.5a.789.789,0,0,0-.115-.2108l-.1208-.183c-.0824-.1193-.1626-.2493-.245-.36a2.4694,2.4694,0,0,0-.266-.2673A1.8933,1.8933,0,0,0,17,.8161a1.3525,1.3525,0,0,0-.8316-.0012,1.5649,1.5649,0,0,0-.3427.171c-.1022.077-.2009.1625-.3008.2432-.0952.0928-.18.2084-.27.3119-.0859.112-.1567.2445-.2357.3661a10.3016,10.3016,0,0,0-.5448,2.9876c.0047.0445.0116.0879.0186.1313l.04.2637c.0372.1709.0662.3456.1127.5117.08.34,1.4519,3.33,1.8932,4.4471.1452.3769.3392.737.5053,1.1572a7.0841,7.0841,0,0,0-.8444-.48A14.1378,14.1378,0,0,0,12.181,9.7187a13.3158,13.3158,0,0,0-1.726-.31,7.8257,7.8257,0,0,0-3.1976.8948,7.4,7.4,0,0,0-3.2185,2.9237l-.158.2854L.75,19.1433l5.2507-4.2286A6.8014,6.8014,0,0,1,11.1414,13.17a13.1969,13.1969,0,0,1,3,.5069c.2509.07.5041.1457.7561.2263l.3787.1241.2764.0963c.08.029.0627.0241.0674.0278l.0058.0047c.0011.0025,0,.0049-.01.0061l-.0139.0012h.0012l.0011.0012-.0174.0193-.0209.0217-.0105.012c-.007.0072.0047-.0036-.036.0385l-.3554.3648c-.1208.1181-.2218.2541-.33.383a4.5257,4.5257,0,0,0-.3032.3986,11.6247,11.6247,0,0,0-1.496,2.9081A10.3909,10.3909,0,0,0,12.48,21.5l-.0453,3.845L14.35,22.0459A20.4805,20.4805,0,0,1,17,18.2142a7.9565,7.9565,0,0,1,1.2428-1.0766,6.1222,6.1222,0,0,1,1.4577-.7164,4.5675,4.5675,0,0,1,3.1395-.0073,3.9262,3.9262,0,0,1,1.5007,1.0934,5.5781,5.5781,0,0,1,.9582,1.7184,28.2605,28.2605,0,0,1,.6632,3.0285L26.1666,23.7,27.02,22.495a12.167,12.167,0,0,0,1.1058-3.5909,6.9833,6.9833,0,0,0-1.7934-4.4819L26.15,14.22l-.09-.1-.0546-.05-.2172-.1962h.0047c.2973-.0446.5842-.1565.8851-.2011l.5784-.1072c.1939-.0252.3879-.0422.583-.0626a13.14,13.14,0,0,1,4.3255.3263c.2416.065.4878.12.7259.1951s.4774.1481.719.2047a10.736,10.736,0,0,1,3.1511,1.5l.8362.6154.1418.1095Z"/><path class="cls-1" d="M32.5709,35.1555a6.8423,6.8423,0,0,1-4.0794,4.7733"/><path class="cls-2" d="M28.4922,40.6786a.75.75,0,0,1-.3218-1.4278,6.0934,6.0934,0,0,0,3.6582-4.2031.75.75,0,0,1,1.4854.21,7.5592,7.5592,0,0,1-4.501,5.3486A.7511.7511,0,0,1,28.4922,40.6786Z"/></g></g></svg>
