<svg xmlns="http://www.w3.org/2000/svg" viewBox="0 0 25.4457 55.8584"><defs><style>.cls-1{fill:#f7f7f5;}.cls-2{fill:#d2f1f9;}.cls-3,.cls-7{fill:none;}.cls-3,.cls-4,.cls-5,.cls-6,.cls-7,.cls-8{stroke:#3a3939;}.cls-3,.cls-4,.cls-6,.cls-7,.cls-8{stroke-linecap:round;stroke-linejoin:round;}.cls-4{fill:#bcb8b8;}.cls-5,.cls-8{fill:#f4edc3;}.cls-5{stroke-miterlimit:10;}.cls-6{fill:#edebeb;stroke-width:0.625px;}.cls-7,.cls-8{stroke-width:0.5px;}</style></defs><title>Asset 170</title><g id="Layer_2" data-name="Layer 2"><g id="Layer_3" data-name="Layer 3"><path class="cls-1" d="M24.9457,21.5161V51.3292a4.029,4.029,0,0,1-4.0292,4.0292H4.5292A4.029,4.029,0,0,1,.5,51.3292V21.5161a9.053,9.053,0,0,1,.6289-3.31l3.1955-8.0828a6.7374,6.7374,0,0,1,3.025.39c2.2864.9385,3.42-.0511,4.7677-.4168a6.8372,6.8372,0,0,1,3.9658-.3656c1.5186.3608,3.43,1.0311,5.1359.6459l3.0956,7.8293A9.0059,9.0059,0,0,1,24.9457,21.5161Z"/><path class="cls-2" d="M19.5125,6.7912l1.7063,3.5855c-1.7063.3852-3.6173-.2851-5.1359-.6459a6.8372,6.8372,0,0,0-3.9658.3656c-1.3479.3657-2.4813,1.3553-4.7677.4168a6.7374,6.7374,0,0,0-3.025-.39L5.9405,6.7887a1.22,1.22,0,0,0,.1219-.49c.0219-.7483.0073-2.6032.0073-2.6032a.5731.5731,0,0,0-.5679-.5192.5686.5686,0,0,1-.568-.568V1.631A1.1318,1.1318,0,0,1,6.0648.5H19.3784a1.13,1.13,0,0,1,1.131,1.131V2.6523a.55.55,0,0,1-.5923.5241.56.56,0,0,0-.5411.5192s-.0073,1.8866.0171,2.6227A1.2313,1.2313,0,0,0,19.5125,6.7912Z"/><path class="cls-3" d="M21.2188,10.3767,19.5125,6.7912a1.2313,1.2313,0,0,1-.1194-.4729c-.0244-.7361-.0171-2.6227-.0171-2.6227a.56.56,0,0,1,.5411-.5192.55.55,0,0,0,.5923-.5241V1.631A1.13,1.13,0,0,0,19.3784.5H6.0648a1.1318,1.1318,0,0,0-1.131,1.131v.9774a.5686.5686,0,0,0,.568.568.5731.5731,0,0,1,.5679.5192s.0146,1.8549-.0073,2.6032a1.22,1.22,0,0,1-.1219.49L4.3244,10.1232"/><path class="cls-3" d="M4.3244,10.1232,1.1289,18.206A9.053,9.053,0,0,0,.5,21.5161V51.3292a4.029,4.029,0,0,0,4.0292,4.0292H20.9165a4.029,4.029,0,0,0,4.0292-4.0292V21.5161a9.0059,9.0059,0,0,0-.6313-3.31l-3.0956-7.8293c-1.7063.3852-3.6173-.2851-5.1359-.6459a6.8372,6.8372,0,0,0-3.9658.3656c-1.3479.3657-2.4813,1.3553-4.7677.4168A6.7374,6.7374,0,0,0,4.3244,10.1232Z"/><rect class="cls-4" x="4.836" y="0.5008" width="15.7722" height="3.0622" rx="1.1259" ry="1.1259"/><path class="cls-3" d="M17.5157,5.7039V6.7066a1.399,1.399,0,0,0,.1713.6708l.6236,1.1413"/><path class="cls-5" d="M10.8554,29.6093a5.819,5.819,0,0,0,1.1774,2.3572,7.149,7.149,0,0,0,1.7,1.9277c1.98,1.3834-.0891,4.2131-2.6392,3.2958a6.1281,6.1281,0,0,1-3.3882-2.3649,5.292,5.292,0,0,1-.7038-5.51A2.0966,2.0966,0,0,1,10.8554,29.6093Z"/><path class="cls-6" d="M13.204,33.2882c-.85.6471-1.2169.2232-1.864-.6271s-.9883-1.7095-.138-2.3566l.2557.5345a9.6927,9.6927,0,0,0,1.51,2.1878Z"/><path class="cls-7" d="M8.5413,29.4252a1.0828,1.0828,0,0,0-.8362,1.1726"/><path class="cls-5" d="M14.338,29.7657a4.18,4.18,0,0,0,.5393-1.8736,5.4726,5.4726,0,0,0,.0033-1.9591c-.4112-1.7643,1.526-2.6189,2.8395-1.0678,1.433,1.6925,1.5266,2.8138,1.25,3.9874a4.3021,4.3021,0,0,1-2.63,3.0093A1.5724,1.5724,0,0,1,14.338,29.7657Z"/><path class="cls-6" d="M14.8,26.6134a1.1109,1.1109,0,0,1,1.0344,1.4087c-.1124.7935-.5195,1.4258-1.313,1.3135l.1408-.5568a5.5312,5.5312,0,0,0,.2055-1.8879Z"/><path class="cls-8" d="M16.9739,30.3566a1.3471,1.3471,0,0,1-.6813.4824"/></g></g></svg>
