<svg viewBox="0 0 42.6503 37.7723" xmlns="http://www.w3.org/2000/svg"><g stroke="#3a3939" stroke-linecap="round" stroke-linejoin="round"><path d="m4.8452 35.0248a9.0582 9.0582 0 0 1 -3.4689-10.97c2.5405-7.4187 16.1575-25.2098 18.4946-23.1382 4.0886 3.624 4.6641 19.5279 2.25 26.969s-9.2649 11.9669-17.2757 7.1392z" fill="#c4764e" stroke-width="1.5"/><g fill="none"><path d="m19.9793 6.5512s1.066 11.1581-.155 15.6257"/><path d="m17.1983 12.12c-.1081.3546-2.4539 5.2136-3.4184 7.7071"/><path d="m17.1983 23.369c.3688.4818-.9636 7.1735-7.89 10.1672"/><path d="m19.3124 25.0667c.344 1.2077-.87 7.5039-6.2055 9.4"/><path d="m18.0194 4.8166a26.7158 26.7158 0 0 0 -6.55 7.8937"/><path d="m17.6089 7.98s-4.1531 5.2339-4.81 8.173"/><path d="m9.8878 15.0672s-4.3212 5.976-4.3212 7.6219"/><path d="m3.884 24.68s-.8352 1.5585-.2892 5.0865"/><path d="m11.1017 18.8782s-6.2548 7.774-5.5351 13.769"/><path d="m12.15 21.7894s-3.8448 5.9245-4.0056 9.5962"/><path d="m18.0194 15.3938a22.3064 22.3064 0 0 1 -.8211 5.2762"/><path d="m14.7444 22.9826s-1.7353 5.1474-4.0907 6.4615"/></g><path d="m23.3192 24.6571c3.3467-.1592 8.5841-.5628 8.8371-12.8834.02-.9914.3462-3.21 1.6724-4.0355s2.6559-.3888 5.0284 1.99c6.5276 6.5436 2.6172 26.0246-12.342 27.1724s-14.3651-8.058-14.3651-8.058-.2655-3.3491 2.6989-3.9393c4.2622-.8487 5.6973-.1143 8.4703-.2462z" fill="#fff7d7" stroke-width="1.5"/><path d="m32.1563 32.0169s4.5216-1.9141 6.146-8.2673" fill="#f7f6e8" stroke-width="1.5"/></g></svg>