<svg viewBox="0 0 42.7012 47.5683" xmlns="http://www.w3.org/2000/svg"><path d="m25.38 17.0762a27.0739 27.0739 0 0 0 -11.1756 1.6088c-7.6462 2.925-12.7485 8.2412-12.9344 15.7315-.1381 5.57 9.6287 11.4746 16.2675 12.0553 8.3511.73 16.8828-2.1426 16.8828-2.1426s11.4824-9.9792 7.2558-16.1992-6.1793-7.4668-16.2961-11.0538z" fill="#d0610c"/><path d="m21.6685 47.5683a28.0161 28.0161 0 0 1 -17.4292-6.13 10.695 10.695 0 0 1 -3.67-8.7461c.1876-3.8465 4.6739-10.3875 8.5907-12.5389.9-.6436 12.961-8.8623 28.1221 1.1084 4.9292 3.2422 5.6406 7.4687 5.3691 10.4433-.5556 6.0928-5.5874 11.8448-9.9306 13.68a29.1214 29.1214 0 0 1 -11.0521 2.1833zm.2815-29.7754a20.9082 20.9082 0 0 0 -11.9351 3.5938.7083.7083 0 0 1 -.0962.0615c-3.4333 1.8594-7.6887 7.9932-7.8512 11.3164a9.2664 9.2664 0 0 0 3.0888 7.4863 26.8032 26.8032 0 0 0 26.9805 3.753c3.9614-1.6748 8.5312-7.07 9.021-12.4346.3354-3.6807-1.29-6.81-4.7-9.0537a26.16 26.16 0 0 0 -14.5078-4.7227z" fill="#3a3939"/><path d="m12.3659 29.4844-5.4959-3.3429a2.8846 2.8846 0 0 0 -.1033-3.3529 2.06 2.06 0 0 0 -3.5509.4777 4.3555 4.3555 0 0 0 -.2367 1.658l-.7875.4381c-2.6881 1.3434-1.1011 4.03.61 4.4231a1.9564 1.9564 0 0 0 2.3084-1.1514l6.9792 4.1771z" fill="#fff7d7"/><g fill="#3a3939"><path d="m11.5889 33.2627a.7456.7456 0 0 1 -.3847-.1065l-5.8511-3.5029a2.629 2.629 0 0 1 -2.72.8623 3.5724 3.5724 0 0 1 -2.6131-2.8779 2.8986 2.8986 0 0 1 1.8359-2.9463l.3707-.2071a5.0354 5.0354 0 0 1 .2834-1.4736 3.2412 3.2412 0 0 1 2.2383-1.792 2.6792 2.6792 0 0 1 2.5884 1.084 3.5707 3.5707 0 0 1 .5068 3.5537l4.397 2.6738a.75.75 0 0 1 -.7793 1.2813l-5.6154-3.4151.3794-.6376a2.1331 2.1331 0 0 0 -.0252-2.4776c-.5816-.6826-1.0195-.61-1.1631-.59a1.809 1.809 0 0 0 -1.1172.834 3.5906 3.5906 0 0 0 -.1935 1.3348l.0405.4834-1.211.6738c-.7729.3877-1.1152.8672-1.0463 1.4424a2.0726 2.0726 0 0 0 1.4594 1.5938 1.1683 1.1683 0 0 0 1.4444-.6983l.333-.8017.7485.4365 6.48 3.8789a.75.75 0 0 1 -.3858 1.3936z"/><path d="m26.9757 45.8916c-3.7871 0-8.7022-.6455-12.1314-3.46-2.62-2.1523-3.97-5.2441-4.0117-9.1924-.0726-6.8467 3.5674-8.1792 5.7427-8.3642 5.8662-.4854 14.4155 5.7519 14.94 9.0234a.75.75 0 0 1 -1.4814.2363c-.376-2.35-8.1475-8.22-13.3316-7.7646-2.9448.25-4.415 2.5556-4.37 6.8535.0366 3.4824 1.2012 6.19 3.4609 8.0459 5.6534 4.6455 16.39 2.707 16.4976 2.6875a.75.75 0 0 1 .2759 1.4746 33.0174 33.0174 0 0 1 -5.591.46z"/><path d="m20.4044 13.5332a.75.75 0 0 1 -.2808-1.4453 2.1161 2.1161 0 0 0 1.0889-1.0979 2.28 2.28 0 0 0 -.3545-1.8486 15.1565 15.1565 0 0 0 -1.02-1.5489c-1.1646-1.5925-.948-2.114.8564-4.2025a.7145.7145 0 0 1 .1948-1.0049.7622.7622 0 0 1 1.0518.2139 1.429 1.429 0 0 1 .0142 1.6191c-1.4766 1.71-1.4766 1.71-.9063 2.49a16.6122 16.6122 0 0 1 1.1128 1.6914 3.6763 3.6763 0 0 1 .4629 3.0967 3.6289 3.6289 0 0 1 -1.9434 1.9838.7451.7451 0 0 1 -.2768.0532z"/><path d="m25.0631 11.2763a.75.75 0 0 1 -.2813-1.4453 2.1139 2.1139 0 0 0 1.09-1.0976 2.2833 2.2833 0 0 0 -.355-1.8487 15.08 15.08 0 0 0 -1.02-1.5488c-1.1641-1.5928-.9478-2.1143.8569-4.2031a.7144.7144 0 0 1 .1947-1.0049.7622.7622 0 0 1 1.0516.2139 1.4287 1.4287 0 0 1 .0141 1.6191c-1.4765 1.71-1.4765 1.71-.9067 2.49a16.6352 16.6352 0 0 1 1.1126 1.6916 3.6766 3.6766 0 0 1 .4634 3.0967 3.6292 3.6292 0 0 1 -1.9444 1.9844.7425.7425 0 0 1 -.2759.0527z"/><path d="m24.92 32.9726a.749.749 0 0 1 -.5322-.2217 8.7692 8.7692 0 0 0 -6.35-2.3359.75.75 0 1 1 -.126-1.4941 10.1991 10.1991 0 0 1 7.54 2.7734.75.75 0 0 1 -.5322 1.2783z"/></g></svg>