<svg xmlns="http://www.w3.org/2000/svg" viewBox="0 0 28.8622 47.4435"><defs><style>.cls-1,.cls-2,.cls-3,.cls-4{fill:#c68463;stroke:#3a3939;}.cls-1,.cls-2,.cls-3{stroke-miterlimit:10;}.cls-1{stroke-width:1.5px;}.cls-2,.cls-4{stroke-width:0.975px;}.cls-3{stroke-width:0.65px;}.cls-4{stroke-linecap:round;stroke-linejoin:round;}</style></defs><title>Asset 172</title><g id="Layer_2" data-name="Layer 2"><g id="Layer_3" data-name="Layer 3"><path class="cls-1" d="M19.8632.75H2.8827A2.1326,2.1326,0,0,0,.75,2.8827V44.5608a2.1326,2.1326,0,0,0,2.1327,2.1327H25.98a2.1326,2.1326,0,0,0,2.1327-2.1327V2.8827A2.1326,2.1326,0,0,0,25.98.75Z"/><rect class="cls-2" x="2.3749" y="2.5524" width="6.8348" height="9.6114" rx="0.805" ry="0.805"/><rect class="cls-2" x="10.9718" y="2.5524" width="6.8348" height="9.6114" rx="0.805" ry="0.805"/><rect class="cls-2" x="19.5687" y="2.5524" width="6.8348" height="9.6114" rx="0.805" ry="0.805"/><rect class="cls-2" x="2.3749" y="13.4573" width="6.8348" height="9.6114" rx="0.805" ry="0.805"/><rect class="cls-2" x="10.9718" y="13.4573" width="6.8348" height="9.6114" rx="0.805" ry="0.805"/><rect class="cls-2" x="19.5687" y="13.4573" width="6.8348" height="9.6114" rx="0.805" ry="0.805"/><rect class="cls-2" x="2.3749" y="24.3621" width="6.8348" height="9.6114" rx="0.805" ry="0.805"/><rect class="cls-2" x="10.9718" y="24.3621" width="6.8348" height="9.6114" rx="0.805" ry="0.805"/><rect class="cls-2" x="19.5687" y="24.3621" width="6.8348" height="9.6114" rx="0.805" ry="0.805"/><rect class="cls-2" x="2.3749" y="35.2669" width="6.8348" height="9.6114" rx="0.805" ry="0.805"/><rect class="cls-2" x="10.9718" y="35.2669" width="6.8348" height="9.6114" rx="0.805" ry="0.805"/><rect class="cls-2" x="19.5687" y="35.2669" width="6.8348" height="9.6114" rx="0.805" ry="0.805"/><rect class="cls-3" x="3.0706" y="14.1324" width="5.4434" height="8.2387" rx="0.8127" ry="0.8127"/><rect class="cls-3" x="11.6675" y="14.1324" width="5.4434" height="8.2387" rx="0.8127" ry="0.8127"/><rect class="cls-3" x="20.2644" y="14.1324" width="5.4434" height="8.2387" rx="0.8127" ry="0.8127"/><line class="cls-4" x1="24.3997" y1="16.303" x2="21.5725" y2="20.2005"/><line class="cls-4" x1="15.8447" y1="16.303" x2="13.0175" y2="20.2005"/><line class="cls-4" x1="7.2059" y1="16.303" x2="4.3787" y2="20.2005"/><rect class="cls-3" x="3.0706" y="3.2388" width="5.4434" height="8.2387" rx="0.8127" ry="0.8127"/><rect class="cls-3" x="11.6675" y="3.2388" width="5.4434" height="8.2387" rx="0.8127" ry="0.8127"/><rect class="cls-3" x="20.2644" y="3.2388" width="5.4434" height="8.2387" rx="0.8127" ry="0.8127"/><line class="cls-4" x1="24.3997" y1="5.4094" x2="21.5725" y2="9.3069"/><line class="cls-4" x1="15.8447" y1="5.4094" x2="13.0175" y2="9.3069"/><line class="cls-4" x1="7.2059" y1="5.4094" x2="4.3787" y2="9.3069"/><rect class="cls-3" x="3.0706" y="25.0484" width="5.4434" height="8.2387" rx="0.8127" ry="0.8127"/><rect class="cls-3" x="11.6675" y="25.0484" width="5.4434" height="8.2387" rx="0.8127" ry="0.8127"/><rect class="cls-3" x="20.2644" y="25.0484" width="5.4434" height="8.2387" rx="0.8127" ry="0.8127"/><line class="cls-4" x1="24.3997" y1="27.219" x2="21.5725" y2="31.1165"/><line class="cls-4" x1="15.8447" y1="27.219" x2="13.0175" y2="31.1165"/><line class="cls-4" x1="7.2059" y1="27.219" x2="4.3787" y2="31.1165"/><rect class="cls-3" x="3.0706" y="35.9533" width="5.4434" height="8.2387" rx="0.8127" ry="0.8127"/><rect class="cls-3" x="11.6675" y="35.9533" width="5.4434" height="8.2387" rx="0.8127" ry="0.8127"/><rect class="cls-3" x="20.2644" y="35.9533" width="5.4434" height="8.2387" rx="0.8127" ry="0.8127"/><line class="cls-4" x1="24.3997" y1="38.1239" x2="21.5725" y2="42.0214"/><line class="cls-4" x1="15.8447" y1="38.1239" x2="13.0175" y2="42.0214"/><line class="cls-4" x1="7.2059" y1="38.1239" x2="4.3787" y2="42.0214"/></g></g></svg>
