<?xml version="1.0" encoding="UTF-8"?>
<svg width="462px" height="61px" viewBox="0 0 462 61" version="1.1" xmlns="http://www.w3.org/2000/svg" xmlns:xlink="http://www.w3.org/1999/xlink">
    <!-- Generator: sketchtool 52.4 (67378) - http://www.bohemiancoding.com/sketch -->
    <title>15AC3F95-D0FD-47F5-8371-CEE14A0A751C</title>
    <desc>Created with sketchtool.</desc>
    <g id="Green_diet_v3" stroke="none" stroke-width="1" fill="none" fill-rule="evenodd">
        <g id="Desktop_1400" transform="translate(-281.000000, -2089.000000)">
            <g id="Plane" transform="translate(282.000000, 2089.000000)">
                <g id="Group-5" transform="translate(0.000000, 55.000000)" fill-rule="nonzero" stroke-linecap="round" stroke-linejoin="round" stroke-width="2">
                    <path d="M0,5 L460,5" id="Path-4" stroke="#FBF5F0"></path>
                    <polyline id="Path-4" stroke="#3A3939" points="80 5 229.5 5 247 0"></polyline>
                </g>
                <g id="Group-17" transform="translate(299.277587, 20.457837) rotate(-6.000000) translate(-299.277587, -20.457837) translate(246.277587, 5.457837)">
                    <path d="M67.8820244,20.9073215 L72.017012,19.5307436 L77.1042854,18.1654075 C80.7044813,17.5333963 94.7187832,14.0441736 103.250641,9.6886431 C108.668853,6.77535943 104.407059,2.90788966 104.407059,2.90788966 C103.602115,2.17579861 100.466416,1.83854318 100.466416,1.83854318 C97.3196904,0.00557364094 93.2853208,-0.427648779 89.668585,0.408635006 C87.2303206,0.972098343 63.6898361,7.04955083 55.1331683,9.62557908 C47.6267875,11.8835453 25.3902023,19.5307436 25.3902023,19.5307436 L6.25347962,11.9987057 L0,14.0537703 L9.5463081,22.0862075 L1.65399505,25.0707809 L4.03850458,28.9300249 C4.03850458,28.9300249 22.3399598,29.1672005 26.8732846,28.768252 C31.7057068,28.3432553 43.2988338,26.1401274 43.2988338,26.1401274 C47.5331874,25.0376421 50.7089526,24.2107781 52.8261294,23.6595355 C53.7215208,23.4264052 54.7794777,23.2065601 56,23" id="Stroke-1" stroke="#3A3939" stroke-width="2" stroke-linejoin="round"></path>
                    <path d="M3,27 C10.1332071,26.7221869 18.9658486,25.0473328 25.1740995,24.1208461 C29.145889,23.5293302 44.1495071,20.1982315 44.1495071,20.1982315 C44.1495071,20.1982315 88.7061663,11.0835693 102.793111,5.75859678 C103.454386,5.50869791 106.625081,4 105,4" id="Stroke-3" stroke="#3A3939" stroke-width="2" stroke-linejoin="round"></path>
                    <path d="M91,5 L98.8112199,2.75504202 C98.8112199,2.75504202 99.666073,2.59117647 100,2" id="Stroke-5" stroke="#3A3939" stroke-width="2" stroke-linecap="round" stroke-linejoin="round"></path>
                    <path d="M87.517744,7.37313472 L86.1270134,7.753853 C85.8606708,7.8267654 85.5856503,7.66995922 85.5127379,7.4036166 L85.1320196,6.01288599 C85.0591072,5.74654337 85.2159134,5.47152283 85.482256,5.39861043 L86.8729866,5.01789216 C87.1393292,4.94497976 87.4143497,5.10178594 87.4872621,5.36812856 L87.8679804,6.75885916 C87.9408928,7.02520179 87.7840866,7.30022232 87.517744,7.37313472 Z" id="Fill-7" fill="#3A3939"></path>
                    <path d="M83.517744,8.37313472 L82.1270134,8.753853 C81.8606708,8.8267654 81.5856503,8.66995922 81.5127379,8.4036166 L81.1320196,7.01288599 C81.0591072,6.74654337 81.2159134,6.47152283 81.482256,6.39861043 L82.8729866,6.01789216 C83.1393292,5.94497976 83.4143497,6.10178594 83.4872621,6.36812856 L83.8679804,7.75885916 C83.9408928,8.02520179 83.7840866,8.30022232 83.517744,8.37313472 Z" id="Fill-9" fill="#3A3939"></path>
                    <path d="M79.5177664,9.37287986 L78.1273499,9.75385299 C77.8610197,9.82681049 77.5859726,9.67005088 77.5130151,9.4037206 C77.5130076,9.40369339 77.5130002,9.40366617 77.5129927,9.40363895 L77.1317215,8.01173834 C77.0588091,7.74539571 77.2156153,7.47037518 77.4819579,7.39746278 C77.4820573,7.39743557 77.4821567,7.3974084 77.4822561,7.39738125 L78.8741566,7.01767549 C79.1405124,6.94493646 79.4154092,7.10186657 79.4881932,7.36821009 L79.8678987,8.75854494 C79.9406595,9.02480379 79.7838984,9.29965588 79.5176846,9.37258147 Z" id="Fill-11" fill="#3A3939"></path>
                    <polygon id="Stroke-15" stroke="#3A3939" stroke-width="2" stroke-linejoin="round" transform="translate(66.986901, 20.211154) rotate(-5.000000) translate(-66.986901, -20.211154) " points="61.4798647 17.0442466 49.5652708 27.5108044 54.8644041 27.1659123 84.4085307 12.9115027"></polygon>
                </g>
            </g>
        </g>
    </g>
</svg>