<svg height="39" viewBox="0 0 462 39" width="462" xmlns="http://www.w3.org/2000/svg" xmlns:xlink="http://www.w3.org/1999/xlink"><mask id="a" fill="#fff"><path d="m0 .8141h71.0119v20.335h-71.0119z" fill="#fff" fill-rule="evenodd"/></mask><g fill="none" fill-rule="evenodd" transform="translate(1 1)"><g transform="translate(330)"><g stroke="#404040" stroke-linecap="round" stroke-linejoin="round" stroke-width="2"><path d="m16.4436-.0001-8.85 10.074h47.559l-14.681-10.074h-11.894z"/><path d="m28.5773-.0001 2.306 28.155"/><path d="m19.2707 27.9326c0-1.679-1.361-3.04-3.041-3.04s-3.041 1.361-3.041 3.04c0 1.68 1.361 3.041 3.041 3.041s3.041-1.361 3.041-3.041z"/><path d="m56.8195 27.9326c0-1.679-1.361-3.04-3.041-3.04s-3.041 1.361-3.041 3.04c0 1.68 1.361 3.041 3.041 3.041s3.041-1.361 3.041-3.041z"/></g><path d="m45.4865 27.2636-20.972-.155c.028.271.042.546.042.824 0 .4-.038.79-.092 1.175l21.105.157c-.07-.435-.117-.878-.117-1.332 0-.226.016-.447.034-.669" fill="#404040"/><path d="m62.3879 1.9121-7.084-1.086c-.05-.008-.101-.012-.151-.012h-51.407c-2.065 0-3.746 1.681-3.746 3.746v11.538c0 2.519 2.049 4.584 4.568 4.602l3.409.025c-.044-.345-.074-.695-.074-1.052 0-.321.022-.636.057-.948l-3.377-.025c-1.424-.011-2.583-1.178-2.583-2.602v-11.538c0-.962.784-1.746 1.746-1.746h51.33l6.929 1.059c4.125.982 7.007 4.63 7.007 8.872v2.455c0 1.061-.414 2.056-1.167 2.803-.745.74-1.732 1.146-2.781 1.146h-.03l-2.956-.021c.012.18.028.361.028.545 0 .497-.052.98-.136 1.454l3.048.022h.046c1.581 0 3.067-.612 4.19-1.726 1.134-1.125 1.758-2.625 1.758-4.223v-2.455c0-5.172-3.514-9.62-8.624-10.833" fill="#404040" mask="url(#a)" transform="translate(0 8.2597)"/><path d="m16.2297 34.2597c-3.125 0-5.72-2.278-6.229-5.26-.06-.347-.098-.703-.098-1.067 0-.318.031-.627.076-.933.454-3.047 3.079-5.393 6.251-5.393 3.204 0 5.852 2.394 6.265 5.486.037.275.062.555.062.84 0 .396-.041.783-.111 1.16-.547 2.937-3.123 5.167-6.216 5.167m8.285-7.151c-.415-4.205-3.972-7.502-8.285-7.502-4.271 0-7.797 3.232-8.27 7.379-.035.311-.057.627-.057.947 0 .357.03.707.074 1.053.52 4.095 4.019 7.274 8.253 7.274 4.192 0 7.66-3.116 8.234-7.152.055-.385.093-.775.093-1.175 0-.278-.014-.553-.042-.824" fill="#404040"/><path d="m53.7785 34.2597c-3.025 0-5.56-2.137-6.179-4.98-.094-.435-.147-.884-.147-1.347 0-.221.012-.439.034-.654.328-3.182 3.024-5.672 6.292-5.672 3.3 0 6.014 2.539 6.299 5.765.016.186.028.371.028.561 0 .496-.063.975-.171 1.438-.654 2.798-3.163 4.889-6.156 4.889m8.3-6.872c-.283-4.337-3.893-7.781-8.3-7.781-4.365 0-7.949 3.379-8.292 7.657-.018.222-.034.443-.034.669 0 .454.047.897.117 1.332.641 3.959 4.072 6.995 8.209 6.995 4.095 0 7.501-2.974 8.191-6.873.084-.474.136-.957.136-1.454 0-.184-.015-.364-.027-.545" fill="#404040"/><path d="m20.9328 14.0781h4.615" stroke="#404040" stroke-linecap="round" stroke-linejoin="round" stroke-width="2"/><path d="m35.5061 14.0781h4.616" stroke="#404040" stroke-linecap="round" stroke-linejoin="round" stroke-width="2"/><path d="m1.0002 19.6796h4.151v7.383.901h-.912c-1.789 0-3.239-1.45-3.239-3.239z" stroke="#404040" stroke-linecap="round" stroke-linejoin="round" stroke-width="2"/></g><g fill-rule="nonzero" stroke-linecap="round" stroke-linejoin="round" stroke-width="2"><path d="m0 37h460" stroke="#fbf5f0"/><path d="m177 37 239.999942.0003465" stroke="#404040"/></g></g></svg>