<svg height="50" viewBox="0 0 464 50" width="464" xmlns="http://www.w3.org/2000/svg"><g fill="none" transform="translate(2 1)"><path d="m0 47h460" stroke="#fbf5f0" stroke-linecap="round" stroke-linejoin="round" stroke-width="2.5"/><g transform="translate(21)"><g stroke="#404040" stroke-width="2"><path d="m40 0h4v4h-4z" stroke-linejoin="round"/><path d="m2 19v22h21.0000264v-16.4999184h11.9999472v16.4999184h21.0000264v-22h-27zm16.4999868 8.250068v1.3750477 5.4999727.8750477c0 .2761423-.2238576.5-.5.5h-1.0000528-7.50002636-.99993403c-.27614237 0-.5-.2238577-.5-.5v-.8750477-5.4999727-1.3750477-2.7499864-.8750476c0-.2761424.22385763-.5.5-.5h1.00005278 7.50002641 1.0000528c.2761423 0 .5.2238576.5.5v.8750476zm21.0000264 6.8750204v-5.4999727-1.3750477-2.7499864-.8750476c0-.2761424.2238576-.5.5-.5h1.0000528 7.5000264 1.0000527c.2761424 0 .5.2238576.5.5v.8750476 2.7499864 1.3750477 5.4999727.8750477c0 .2761423-.2238576.5-.5.5h-1.0000527-7.5000264-1.0000528c-.2761424 0-.5-.2238577-.5-.5z"/><path d="m49.4999875 4h-5.9999625-4.5000312-10.4999938-20.9999875l-7.5000125 15h1.50005 26.99995 26.99995 1.50005z" stroke-linecap="round" stroke-linejoin="round"/></g><path d="m8 36h6l-6-6z"/><path d="m14.6000665 36h1.3999335v-6h-7z"/><path d="m9 26h7v3h-7z"/><path d="m48 36v-6h-7l5.5999557 6z"/><path d="m41 26h7v3h-7z"/></g><g stroke-linecap="round" stroke-width="2"><path d="m77 37v10h15.8346253 367.1653747" stroke="#3a3939" stroke-linejoin="round"/><path d="m0 47h5 14.5156227 3.4843773v-7" stroke="#404040"/></g></g></svg>