<svg height="61" viewBox="0 0 462 61" width="462" xmlns="http://www.w3.org/2000/svg"><g fill="none" fill-rule="evenodd" transform="translate(1)"><g fill-rule="nonzero" stroke-linecap="round" stroke-linejoin="round" stroke-width="2" transform="translate(0 55)"><path d="m0 5h460" stroke="#fbf5f0"/><path d="m80 5h149.5l17.5-5" stroke="#3a3939"/></g><g transform="matrix(.9945219 -.10452846 .10452846 .9945219 245 11.080017)"><g stroke="#3a3939" stroke-linejoin="round" stroke-width="2"><path d="m67.8820244 20.9073215 4.1349876-1.3765779 5.0872734-1.3653361c3.6001959-.6320112 17.6144978-4.1212339 26.1463556-8.4767644 5.418212-2.91328367 1.156418-6.78075344 1.156418-6.78075344-.804944-.73209105-3.940643-1.06934648-3.940643-1.06934648-3.1467256-1.83296954-7.1810952-2.26619196-10.797831-1.42990817-2.4382644.56346333-25.9787489 6.64091582-34.5354167 9.21694407-7.5063808 2.25796622-29.742966 9.90516452-29.742966 9.90516452l-19.13672268-7.5320379-6.25347962 2.0550646 9.5463081 8.0324372-7.89231305 2.9845734 2.38450953 3.859244s18.30145522.2371756 22.83478002-.1617729c4.8324222-.4249967 16.4255492-2.6281246 16.4255492-2.6281246 4.2343536-1.1024853 7.4101188-1.9293493 9.5272956-2.4805919.8953914-.2331303 1.9533483-.4529754 3.1738706-.6595355"/><path d="m3 27c7.1332071-.2778131 15.9658486-1.9526672 22.1740995-2.8791539 3.9717895-.5915159 18.9754076-3.9226146 18.9754076-3.9226146s44.5566592-9.1146622 58.6436039-14.43963472c.661275-.24989887 3.83197-1.75859678 2.206889-1.75859678"/><path d="m91 5 7.8112199-2.24495798s.8548531-.16386555 1.1887801-.75504202" stroke-linecap="round"/></g><path d="m87.517744 7.37313472-1.3907306.38071828c-.2663426.0729124-.5413631-.08389378-.6142755-.3502364l-.3807183-1.39073061c-.0729124-.26634262.0838938-.54136316.3502364-.61427556l1.3907306-.38071827c.2663426-.0729124.5413631.08389378.6142755.3502364l.3807183 1.3907306c.0729124.26634263-.0838938.54136316-.3502364.61427556z" fill="#3a3939"/><path d="m83.517744 8.37313472-1.3907306.38071828c-.2663426.0729124-.5413631-.08389378-.6142755-.3502364l-.3807183-1.39073061c-.0729124-.26634262.0838938-.54136316.3502364-.61427556l1.3907306-.38071827c.2663426-.0729124.5413631.08389378.6142755.3502364l.3807183 1.3907306c.0729124.26634263-.0838938.54136316-.3502364.61427556z" fill="#3a3939"/><path d="m79.5177664 9.37287986-1.3904165.38097313c-.2663302.0729575-.5413773-.08380211-.6143348-.35013239-.0000075-.00002721-.0000149-.00005443-.0000224-.00008165l-.3812712-1.39190061c-.0729124-.26634263.0838938-.54136316.3502364-.61427556.0000994-.00002721.0001988-.00005438.0002982-.00008153l1.3919005-.37970576c.2663558-.07273903.5412526.08419108.6140366.3505346l.3797055 1.39033485c.0727608.26625885-.0840003.54111094-.3502141.61403653z" fill="#3a3939"/><path d="m61.4798647 17.0442466-11.9145939 10.4665578 5.2991333-.3448921 29.5441266-14.2544096z" stroke="#3a3939" stroke-linejoin="round" stroke-width="2" transform="matrix(.9961947 -.08715574 .08715574 .9961947 -1.506613 5.915203)"/></g></g></svg>