<svg xmlns="http://www.w3.org/2000/svg" viewBox="0 0 640.5014 134.921"><defs><style>.cls-1,.cls-26,.cls-4{fill:none;}.cls-1{stroke:#877169;}.cls-1,.cls-15,.cls-16,.cls-17,.cls-18,.cls-26,.cls-27,.cls-3,.cls-31,.cls-9{stroke-miterlimit:10;}.cls-2{fill:#d09b86;}.cls-3{fill:#b77a32;}.cls-11,.cls-12,.cls-13,.cls-14,.cls-15,.cls-16,.cls-17,.cls-18,.cls-19,.cls-20,.cls-23,.cls-26,.cls-27,.cls-29,.cls-3,.cls-30,.cls-31,.cls-32,.cls-33,.cls-4,.cls-5,.cls-6,.cls-7,.cls-8,.cls-9{stroke:#3a3939;}.cls-11,.cls-12,.cls-13,.cls-14,.cls-15,.cls-16,.cls-20,.cls-23,.cls-26,.cls-27,.cls-29,.cls-3,.cls-30,.cls-31,.cls-32,.cls-33,.cls-4,.cls-5,.cls-6,.cls-7,.cls-8,.cls-9{stroke-width:2px;}.cls-11,.cls-12,.cls-13,.cls-14,.cls-19,.cls-20,.cls-23,.cls-26,.cls-29,.cls-30,.cls-32,.cls-33,.cls-4,.cls-5,.cls-6,.cls-7,.cls-8{stroke-linecap:round;}.cls-11,.cls-12,.cls-13,.cls-14,.cls-19,.cls-20,.cls-23,.cls-29,.cls-30,.cls-32,.cls-33,.cls-4,.cls-5,.cls-6,.cls-7,.cls-8{stroke-linejoin:round;}.cls-5{fill:#34b743;}.cls-6,.cls-9{fill:#93603e;}.cls-7{fill:#1d4921;}.cls-8{fill:#bad362;}.cls-10{fill:#3a3939;}.cls-11{fill:#604225;}.cls-12{fill:#f7f6e8;}.cls-13{fill:#0d4c32;}.cls-14{fill:#771c1c;}.cls-15{fill:#a4b3ea;}.cls-16,.cls-17,.cls-18,.cls-19{fill:#c68463;}.cls-17,.cls-19{stroke-width:1.95px;}.cls-18{stroke-width:1.3px;}.cls-20{fill:#ff917b;}.cls-21{fill:#f7f7f5;}.cls-22{fill:#d2f1f9;}.cls-23{fill:#bcb8b8;}.cls-24{fill:#d0610c;}.cls-25,.cls-30{fill:#fff7d7;}.cls-27{fill:#e2e2e2;}.cls-28{fill:#f4f2f2;}.cls-29{fill:#8e8080;}.cls-31{fill:#73bca4;}.cls-32{fill:#ffce43;}.cls-33{fill:#d29b6e;}</style></defs><title>Asset 203</title><g id="Layer_2" data-name="Layer 2"><g id="Layer_3" data-name="Layer 3"><line class="cls-1" x1="0.5014" y1="131.6449" x2="640.5014" y2="131.6449"/><rect class="cls-2" x="0.5014" y="131.8116" width="640" height="3.1095"/><path class="cls-3" d="M270.8327,104.772c-12.4022-.9754-21.2429,8.04-20.3987,16.0941.5292,5.049,3.865,9.23,8.5889,9.23h70.1429c4.7239,0,8.9865-4.034,8.6543-10.034-.2315-4.1816-5.0454-14.75-26.7365-14.9648C283.7611,104.8271,280.8647,105.5611,270.8327,104.772Z"/><path class="cls-4" d="M282.0231,105.957s-8.2762,2.3222-8.7762,7.4472"/><path class="cls-4" d="M297.0608,105.2133s-8.8656,2.8933-9.3656,8.0183"/><path class="cls-4" d="M312.9819,105.4989s-8.25,2.3221-8.75,7.4471"/><path class="cls-5" d="M228.53,50.0176s-.34-4.74-7.1708-7.5437c-.6694-.2747-4.5787-2.22-4.5787-2.22a7.24,7.24,0,0,0,3.0255,7.8553C222.8953,50.33,225.5842,51.0064,228.53,50.0176Z"/><path class="cls-6" d="M226.0141,61.5355s5.3544-17.1788,4.4789-21.2815c0,0,4.76.8957,6.227,2.3073s-.8055,2.1735-1.748,4.3673-5.7926,13.5628-6.0208,15.0945Z"/><path class="cls-7" d="M249.6083,89.7917c-3.3148-12.7945-7.8105-18.7412-11.8723-24.3784-1.7773-2.4667-5.3543-6.5472-11.7219-6.5472s-9.5685,4.0807-11.3451,6.5472c-4.0588,5.6348-8.9239,11.5748-12.2427,24.3635-1.3624,3.526-2.1272,13.1206-2.1272,17.21,0,15.9652,11.513,23.1981,25.715,23.1981s25.7149-7.2329,25.7149-23.1981C251.729,102.9032,250.967,93.3136,249.6083,89.7917Z"/><path class="cls-8" d="M279.4517,89.7917c-3.3148-12.7945-7.81-18.7412-11.8723-24.3784-1.7773-2.4667-5.3542-6.5472-11.7219-6.5472s-9.5684,4.0807-11.345,6.5472c-4.0589,5.6348-8.9239,11.5748-12.2428,24.3635-1.3624,3.526-2.1272,13.1206-2.1272,17.21,0,15.9652,11.513,23.1981,25.715,23.1981s25.715-7.2329,25.715-23.1981C281.5725,102.9032,280.8105,93.3136,279.4517,89.7917Z"/><circle class="cls-9" cx="255.8575" cy="103.8036" r="10.2952"/><path class="cls-10" d="M261.9518,106.7163a.9783.9783,0,0,1-.2773-.0391,1,1,0,0,1-.6836-1.2383,5.2032,5.2032,0,0,0-.2676-4.24,5.5176,5.5176,0,0,0-3.2246-2.1973,1,1,0,1,1,.3945-1.9609,7.4631,7.4631,0,0,1,4.5391,3.1191,7.0992,7.0992,0,0,1,.4805,5.834A1.0008,1.0008,0,0,1,261.9518,106.7163Z"/><circle class="cls-4" cx="255.8575" cy="103.8036" r="10.2952"/><path class="cls-11" d="M83.626,130.1361H98.05a4.2717,4.2717,0,0,0,4.2718-4.2717l-.0429-54.6311c.037-5.4963-2.7857-10.2279-6.1492-14.5749a29.283,29.283,0,0,1-3.5542-7.0875l-3.1272-30.353c-.28-2.4278-.28-2.4278,3.0355-2.7509h0V13.5581a1.8452,1.8452,0,0,0-1.8452-1.8452H76.6134a1.8451,1.8451,0,0,0-1.8451,1.8452V16.467h0c2.5066.0319,3.3155.3231,3.0354,2.7509l-3.1271,30.353a28.9112,28.9112,0,0,1-3.3758,7.0875c-3.3147,4.3844-6.1862,9.0786-6.1492,14.5749l-.0406,54.6311a4.2717,4.2717,0,0,0,4.2717,4.2717H83.626Z"/><rect class="cls-12" x="65.1398" y="87.1382" width="37.1746" height="29.4532" rx="1.9678" ry="1.9678"/><polygon class="cls-12" points="90.119 25.726 76.309 33.723 75.239 44.112 91.035 34.617 90.119 25.726"/><path class="cls-4" d="M93.0987,61.4407A13.9489,13.9489,0,0,1,97.29,71.5084"/><path class="cls-13" d="M184.11,61.3827c-.04-6.81-5.1635-13.0794-11.14-16.3442V5.35H159.95l-.01,4.1469v4.0906h.01V44.8779c-5.4957,3.4183-11.121,9.4036-11.121,15.8757V127.14a3.0455,3.0455,0,0,0,3.0455,3.0454H181.45a3.0454,3.0454,0,0,0,3.0454-3.0634Z"/><rect class="cls-12" x="160.801" y="16.8176" width="11.8886" height="19.3639"/><rect class="cls-12" x="149.7044" y="70.9367" width="34.0818" height="40.0558"/><path class="cls-10" d="M178.9075,61.0245a1,1,0,0,1-1-1c0-3.5469-4.3681-7.3243-4.4121-7.3633a1,1,0,0,1,1.2979-1.5215c.209.18,5.1142,4.4121,5.1142,8.8848A.9994.9994,0,0,1,178.9075,61.0245Z"/><path class="cls-14" d="M159,5.35h14.9081V2.4715A1.4715,1.4715,0,0,0,172.4364,1H160.4713A1.4715,1.4715,0,0,0,159,2.4715Z"/><path class="cls-12" d="M233.4837,82.2975a6.0039,6.0039,0,0,0-7.1766-5.9138l-.0237-.0371c0-.0268.0079-.0516.0079-.0785a5.3878,5.3878,0,0,0-4.4262-5.2968q-.9726-.9582-2.0213-1.8355a5.6326,5.6326,0,0,0-7.6744-5.0479,5.0334,5.0334,0,0,0-4.4189-2.6472c-.3852,0-.4762.0609-.4762-.8952a4.7158,4.7158,0,1,0-9.4315,0c0,.5069-1.8568-1.3929-3.2277-1.3929a5.8557,5.8557,0,0,0-5.4243,3.6579c-.7119.2111-1.4154.4413-2.1064.6981a5.3571,5.3571,0,0,0-8.3508,1.881,5.0515,5.0515,0,0,0-6.1155,7.6631l-.013-.0006a9.7488,9.7488,0,0,0-8.6933,14.1849,5.17,5.17,0,0,0,1.6162,8.6711,33.1235,33.1235,0,1,0,65.3921-8.689A6.0131,6.0131,0,0,0,233.4837,82.2975Z"/><line class="cls-12" x1="172.8758" y1="76.4154" x2="175.4665" y2="78.2112"/><line class="cls-12" x1="220.6464" y1="83.1815" x2="223.2371" y2="84.9772"/><line class="cls-12" x1="203.8554" y1="76.6683" x2="203.2108" y2="79.754"/><line class="cls-12" x1="180.9789" y1="84.9772" x2="182.6528" y2="87.6483"/><line class="cls-12" x1="190.504" y1="67.6403" x2="192.1779" y2="70.3113"/><line class="cls-12" x1="161.3368" y1="80.59" x2="163.8757" y2="82.4582"/><line class="cls-12" x1="213.938" y1="61.6358" x2="212.783" y2="64.5688"/><line class="cls-12" x1="218.2581" y1="73.3298" x2="217.6135" y2="76.4154"/><line class="cls-12" x1="211.2365" y1="87.1152" x2="212.783" y2="89.862"/><line class="cls-12" x1="192.6955" y1="80.59" x2="190.0032" y2="79.167"/><line class="cls-12" x1="202.4265" y1="65.1262" x2="205.2843" y2="66.4564"/><path class="cls-15" d="M237.8978,94.1337a3.1634,3.1634,0,0,0-3.1684-3.3974H162.28a3.1633,3.1633,0,0,0-3.1684,3.3974A39.5435,39.5435,0,0,0,179.66,125.4978a1.94,1.94,0,0,1,1.0292,1.7012v2.0733a1.001,1.001,0,0,0,1.001,1.0009h33.63a1.0009,1.0009,0,0,0,1.0009-1.0009V127.199a1.94,1.94,0,0,1,1.0293-1.7012A39.5435,39.5435,0,0,0,237.8978,94.1337Z"/><path class="cls-4" d="M230.2422,100.67s-2.9855,10.3329-11.1489,16.2616"/><path class="cls-16" d="M566.3713,113.749V79.7881a4.2654,4.2654,0,0,0-4.2654-4.2654H478.75a4.2654,4.2654,0,0,0-4.2654,4.2654v46.1936a4.2654,4.2654,0,0,0,4.2654,4.2654h83.3562a4.2654,4.2654,0,0,0,4.2654-4.2654Z"/><rect class="cls-17" x="546.3202" y="75.9959" width="13.6696" height="19.2229" rx="1.61" ry="1.61" transform="translate(638.7623 -467.5477) rotate(90)"/><rect class="cls-17" x="546.3202" y="93.1897" width="13.6696" height="19.2229" rx="1.61" ry="1.61" transform="translate(655.9561 -450.3539) rotate(90)"/><rect class="cls-17" x="546.3202" y="110.3835" width="13.6696" height="19.2229" rx="1.61" ry="1.61" transform="translate(673.1499 -433.1601) rotate(90)"/><rect class="cls-17" x="524.5106" y="75.9959" width="13.6696" height="19.2229" rx="1.61" ry="1.61" transform="translate(616.9527 -445.7381) rotate(90)"/><rect class="cls-17" x="524.5106" y="93.1897" width="13.6696" height="19.2229" rx="1.61" ry="1.61" transform="translate(634.1465 -428.5443) rotate(90)"/><rect class="cls-17" x="524.5106" y="110.3835" width="13.6696" height="19.2229" rx="1.61" ry="1.61" transform="translate(651.3403 -411.3505) rotate(90)"/><rect class="cls-17" x="502.701" y="75.9959" width="13.6696" height="19.2229" rx="1.61" ry="1.61" transform="translate(595.1431 -423.9284) rotate(90)"/><rect class="cls-17" x="502.701" y="93.1897" width="13.6696" height="19.2229" rx="1.61" ry="1.61" transform="translate(612.3368 -406.7347) rotate(90)"/><rect class="cls-17" x="502.701" y="110.3835" width="13.6696" height="19.2229" rx="1.61" ry="1.61" transform="translate(629.5306 -389.5409) rotate(90)"/><rect class="cls-17" x="480.8913" y="75.9959" width="13.6696" height="19.2229" rx="1.61" ry="1.61" transform="translate(573.3334 -402.1188) rotate(90)"/><rect class="cls-17" x="480.8913" y="93.1897" width="13.6696" height="19.2229" rx="1.61" ry="1.61" transform="translate(590.5272 -384.925) rotate(90)"/><rect class="cls-17" x="480.8913" y="110.3835" width="13.6696" height="19.2229" rx="1.61" ry="1.61" transform="translate(607.721 -367.7312) rotate(90)"/><rect class="cls-18" x="525.9244" y="77.3686" width="10.8868" height="16.4774" rx="1.6253" ry="1.6253" transform="translate(616.9751 -445.7605) rotate(90)"/><rect class="cls-18" x="525.9244" y="94.5624" width="10.8868" height="16.4774" rx="1.6253" ry="1.6253" transform="translate(634.1689 -428.5667) rotate(90)"/><rect class="cls-18" x="525.9244" y="111.7562" width="10.8868" height="16.4774" rx="1.6253" ry="1.6253" transform="translate(651.3627 -411.3729) rotate(90)"/><line class="cls-19" x1="535.2653" y1="122.8221" x2="527.4703" y2="117.1676"/><line class="cls-19" x1="535.2653" y1="105.7121" x2="527.4703" y2="100.0576"/><line class="cls-19" x1="535.2653" y1="88.4346" x2="527.4703" y2="82.78"/><rect class="cls-18" x="547.7116" y="77.3686" width="10.8868" height="16.4774" rx="1.6253" ry="1.6253" transform="translate(638.7623 -467.5477) rotate(90)"/><rect class="cls-18" x="547.7116" y="94.5624" width="10.8868" height="16.4774" rx="1.6253" ry="1.6253" transform="translate(655.9561 -450.3539) rotate(90)"/><rect class="cls-18" x="547.7116" y="111.7562" width="10.8868" height="16.4774" rx="1.6253" ry="1.6253" transform="translate(673.1499 -433.1601) rotate(90)"/><line class="cls-19" x1="557.0525" y1="122.8221" x2="549.2575" y2="117.1676"/><line class="cls-19" x1="557.0525" y1="105.7121" x2="549.2575" y2="100.0576"/><line class="cls-19" x1="557.0525" y1="88.4346" x2="549.2575" y2="82.78"/><rect class="cls-18" x="504.0923" y="77.3686" width="10.8868" height="16.4774" rx="1.6253" ry="1.6253" transform="translate(595.1431 -423.9284) rotate(90)"/><rect class="cls-18" x="504.0923" y="94.5624" width="10.8868" height="16.4774" rx="1.6253" ry="1.6253" transform="translate(612.3368 -406.7347) rotate(90)"/><rect class="cls-18" x="504.0923" y="111.7562" width="10.8868" height="16.4774" rx="1.6253" ry="1.6253" transform="translate(629.5306 -389.5409) rotate(90)"/><line class="cls-19" x1="513.4333" y1="122.8221" x2="505.6382" y2="117.1676"/><line class="cls-19" x1="513.4333" y1="105.7121" x2="505.6382" y2="100.0576"/><line class="cls-19" x1="513.4333" y1="88.4346" x2="505.6382" y2="82.78"/><rect class="cls-18" x="482.2827" y="77.3686" width="10.8868" height="16.4774" rx="1.6253" ry="1.6253" transform="translate(573.3334 -402.1188) rotate(90)"/><rect class="cls-18" x="482.2827" y="94.5624" width="10.8868" height="16.4774" rx="1.6253" ry="1.6253" transform="translate(590.5272 -384.925) rotate(90)"/><rect class="cls-18" x="482.2827" y="111.7562" width="10.8868" height="16.4774" rx="1.6253" ry="1.6253" transform="translate(607.721 -367.7312) rotate(90)"/><line class="cls-19" x1="491.6236" y1="122.8221" x2="483.8286" y2="117.1676"/><line class="cls-19" x1="491.6236" y1="105.7121" x2="483.8286" y2="100.0576"/><line class="cls-19" x1="491.6236" y1="88.4346" x2="483.8286" y2="82.78"/><path class="cls-20" d="M48.5489,120.2387a12.7989,12.7989,0,0,0,6.1858-.9664s1.73-.6472.999,2.1259l-1.1176,6.7044s-1.1435,4.2234,3.0839.8879,7.0361-6.9948,6.8472-11.0768l-.4938-1.2072s-8.7187-3.0345-9.3419-3.3853S45.2414,118.8678,48.5489,120.2387Z"/><path class="cls-20" d="M53.7123,112.6123s11.4355,7.357,14.8986,3.3145.7816-6.8254.7816-6.8254l-14.9572.1244A2.3176,2.3176,0,0,0,53.7123,112.6123Z"/><path class="cls-20" d="M53.25,102.2933s-3.8377,3.9115.514,7.0981c0,0,15.5693.9455,17.3523-.9216s-.9673-8.0124-.9673-8.0124-1.3047-3.0027-2.2024-3.1091S53.25,102.2933,53.25,102.2933Z"/><path class="cls-4" d="M13.6384,65.7616S11.1977,80.4673,20.07,83.2063"/><path class="cls-20" d="M61.2425,86.2059c.1356-.4587,11.9193,4.44,6.7774,10.2752s-7.5322,8.6055-9.2491,8.8-5.54,1.1937-8.1584-3.2261A32.4944,32.4944,0,0,0,61.2425,86.2059Z"/><path class="cls-4" d="M1,88.1117a21.3142,21.3142,0,0,0,21.1916-1.7255"/><path class="cls-20" d="M45.6884,78.6816S62.0868,77.27,61.1329,83.7561s-6.4917,18.6716-11.7986,18.0813-14.5022-5.8066-14.3957-7.7658S49.7523,94.1317,45.6884,78.6816Z"/><path class="cls-20" d="M21.2906,82.2589s14.1225-9.3018,22.98-4.649c7.4453,3.9109-2.2505,17.2917-9.3324,16.4617C24.6318,92.8637,22.2185,89.2227,21.2906,82.2589Z"/><circle class="cls-10" cx="36.4731" cy="84.3244" r="1.4113"/><path class="cls-21" d="M592.4316,62.4861v59.6213a8.0569,8.0569,0,0,1-8.0535,8.0583H551.6035a8.0579,8.0579,0,0,1-8.0584-8.0583V62.4861a17.986,17.986,0,0,1,1.2578-6.62l6.3911-16.17a13.5434,13.5434,0,0,1,6.05.7849c4.5727,1.8768,6.84-.1024,9.5355-.8337s4.602-1.5258,7.9316-.7312c3.0371.7215,6.8591,2.0621,10.2716,1.2919l6.1913,15.6585A17.9879,17.9879,0,0,1,592.4316,62.4861Z"/><path class="cls-22" d="M581.57,33.0314l3.4125,7.176c-3.4125.77-7.2345-.57-10.2716-1.2919-3.33-.7946-5.2358,0-7.9316.7312s-4.9628,2.71-9.5355.8337a13.5434,13.5434,0,0,0-6.05-.7849l3.2321-6.6641a2.36,2.36,0,0,0,.2389-.98c.0487-1.4966.0195-5.2065.0195-5.2065a1.161,1.161,0,0,0-.3656-.741,1.14,1.14,0,0,0-.77-.2974,1.1412,1.1412,0,0,1-1.1359-1.1407V22.711a2.2594,2.2594,0,0,1,2.262-2.2571H581.302a2.2594,2.2594,0,0,1,2.262,2.2571v2.0475a1.1057,1.1057,0,0,1-1.1846,1.0481,1.1191,1.1191,0,0,0-1.0823,1.0384s-.0195,3.7684.0341,5.2406A2.4424,2.4424,0,0,0,581.57,33.0314Z"/><path class="cls-4" d="M584.9826,40.2074l-3.4125-7.176a2.4424,2.4424,0,0,1-.2389-.9458c-.0536-1.4722-.0341-5.2406-.0341-5.2406a1.1191,1.1191,0,0,1,1.0823-1.0384,1.1057,1.1057,0,0,0,1.1846-1.0481V22.711a2.2594,2.2594,0,0,0-2.262-2.2571H554.6747a2.2594,2.2594,0,0,0-2.262,2.2571v1.9549a1.1412,1.1412,0,0,0,1.1359,1.1407,1.14,1.14,0,0,1,.77.2974,1.161,1.161,0,0,1,.3656.741s.0292,3.71-.0195,5.2065a2.36,2.36,0,0,1-.2389.98l-3.2321,6.6641"/><path class="cls-4" d="M551.194,39.6955l-6.3911,16.17a17.986,17.986,0,0,0-1.2578,6.62v59.6213a8.0579,8.0579,0,0,0,8.0584,8.0583h32.7746a8.0569,8.0569,0,0,0,8.0535-8.0583V62.4861a17.9879,17.9879,0,0,0-1.2577-6.62l-6.1913-15.6585c-3.4125.77-7.2345-.57-10.2716-1.2919-3.33-.7946-5.2358,0-7.9316.7312s-4.9628,2.71-9.5355.8337A13.5434,13.5434,0,0,0,551.194,39.6955Z"/><rect class="cls-23" x="552.2165" y="20.4525" width="31.5444" height="6.1244" rx="1.1259" ry="1.1259"/><path class="cls-4" d="M577.5758,30.8586v2.0055a2.7977,2.7977,0,0,0,.3426,1.3415l1.2473,2.2827"/><path class="cls-24" d="M129.6278,70.6931a54.1489,54.1489,0,0,0-22.351,3.2177c-15.2924,5.85-25.497,16.4823-25.8685,31.463-.2762,11.14,19.2576,22.9493,32.5351,24.1106,16.7022,1.4608,33.7656-4.2853,33.7656-4.2853s21.87-22.8968,13.4169-35.3371S149.8617,77.8671,129.6278,70.6931Z"/><path class="cls-4" d="M97.991,78.1189s23.7711-18.0895,54.6173,2.199c21.0768,13.8629,4.9923,39.7485-8.8823,45.6106a55.2836,55.2836,0,0,1-55.4618-7.6977c-3.4785-2.6877-7.123-8.78-6.76-16.2322C81.8581,94.7527,90.68,82.0782,97.991,78.1189Z"/><path class="cls-25" d="M103.0541,95.1775l-10.447-6.3536A5.7689,5.7689,0,0,0,92.4,82.1181c-3.2675-3.83-6.6705-.2324-7.1018.9553a8.7093,8.7093,0,0,0-.4733,3.3159l-1.5751.8763c-5.3762,2.6868-2.2022,8.0606,1.22,8.8463a3.9129,3.9129,0,0,0,4.6171-2.3028l12.9592,7.7561Z"/><path class="cls-26" d="M102.0464,101.5652,89.0872,93.8091A3.9129,3.9129,0,0,1,84.47,96.1119c-3.4221-.7857-6.5961-6.16-1.22-8.8463l1.5751-.8763a8.7093,8.7093,0,0,1,.4733-3.3159c.4313-1.1877,3.8343-4.7856,7.1018-.9553a5.7689,5.7689,0,0,1,.2067,6.7058l9.9633,6.06"/><path class="cls-26" d="M143.726,125.9284s-41.3683,7.7562-41.6929-22.9241,36.9971-7.0866,38.384,1.57"/><path class="cls-4" d="M119.6767,62.1066s5.5324-2.1944,2.2106-8.0253c-3.3726-5.92-5.1685-4.39-.3432-9.9563a1.3782,1.3782,0,0,0-.0212-1.526"/><path class="cls-4" d="M128.9947,57.5932s5.5324-2.1945,2.21-8.0253c-3.3726-5.92-5.1685-4.39-.3432-9.9563a1.3781,1.3781,0,0,0-.0211-1.526"/><path class="cls-26" d="M114.8174,95.8758s8.1318-.6854,13.8894,5.1107"/><path class="cls-27" d="M580.5516,87.51v39.5839a3.0716,3.0716,0,0,0,3.0715,3.0715h30.3907a3.0716,3.0716,0,0,0,3.0715-3.0715V87.4556a3.0717,3.0717,0,0,0-.7685-2.0323L610.4723,78.8a3.0714,3.0714,0,0,0-2.3031-1.0393H589.8935a3.0716,3.0716,0,0,0-2.2391.969l-6.27,6.6778A3.0717,3.0717,0,0,0,580.5516,87.51Z"/><polygon class="cls-28" points="625.31 90.839 625.31 103.594 638.988 103.594 638.988 91.312 632.061 87.222 625.31 90.839"/><path class="cls-29" d="M617.0853,108.179c-18.1355-7.3675-36.5337.3118-36.5337.3118l-.2239,18.0586a3.5719,3.5719,0,0,0,3.5716,3.6162h29.6141a3.5719,3.5719,0,0,0,3.5719-3.5719Z"/><path class="cls-4" d="M632.0414,86.2942l-6.0987,3.8814a1.9324,1.9324,0,0,0-.8947,1.63v10.2254a1.9322,1.9322,0,0,0,1.9322,1.9322h10.076a1.9322,1.9322,0,0,0,1.9322-1.9322V91.75a1.9322,1.9322,0,0,0-.9-1.6332l-5.1475-3.2542a1.932,1.932,0,0,1-.9-1.6332V73.9021a15.54,15.54,0,0,0-15.54-15.54h-2.1431a15.54,15.54,0,0,0-15.54,15.54V76.87"/><line class="cls-4" x1="590.8531" y1="81.0859" x2="595.691" y2="81.0859"/><line class="cls-4" x1="602.3657" y1="81.0859" x2="607.2036" y2="81.0859"/><line class="cls-4" x1="635.3198" y1="92.7269" x2="628.8021" y2="99.2446"/><ellipse class="cls-30" cx="454.2377" cy="106.9312" rx="14.2047" ry="20.991"/><ellipse class="cls-30" cx="496.6174" cy="106.9312" rx="14.2047" ry="20.991"/><path class="cls-31" d="M520.7036,111.3078a1.2213,1.2213,0,0,0-1.2214-1.2213h-88.48a1.2213,1.2213,0,0,0-1.2213,1.2213v5.07a1.2213,1.2213,0,0,0,1.2213,1.2214h6.916a1.2213,1.2213,0,0,1,1.0836.6579l4.5835,8.8144a5.6618,5.6618,0,0,0,5.0231,3.05h12.5566a4.44,4.44,0,0,0,4.1064-2.7511l3.6453-9.0076a1.2212,1.2212,0,0,1,1.1321-.7632h10.3868a1.2213,1.2213,0,0,1,1.1322.7632l3.6451,9.0076a4.44,4.44,0,0,0,4.1064,2.7511h12.5567a5.6615,5.6615,0,0,0,5.023-3.05l4.5836-8.8144a1.2212,1.2212,0,0,1,1.0836-.6579h6.9159a1.2213,1.2213,0,0,0,1.2214-1.2214Z"/><path class="cls-4" d="M496.6174,89.5473s4.5914-.4757,8.2162,7.2572"/><path class="cls-4" d="M454.2377,89.5473s4.5914-.4757,8.2162,7.2572"/><path class="cls-32" d="M520.0951,78.0353c.8558,2.9528,1.64.8271-.0571,7.4382s-5.0618,12.604,1.5276,23.69,18.9886,16.1776,23.7384,17.62,29.4073,10.8971,55.0544-6.614l2.0127-1.5435s3.3024-2.7358,2.9938-3.7915-1.4942-3.53-3.7069-4.0031-25.6857,6.0241-41.4721.58-23.63-14.69-29.0861-25.6382c-3.6955-7.4159-4.4114-8.9622-4.4114-8.9622l-.6371-6.931-7.9072,3.0606S519.6618,76.54,520.0951,78.0353Z"/><path class="cls-33" d="M519.2915,70.4638l-1.1474,2.4767,2.7055-.2211a3.93,3.93,0,0,0,1.8356-.631l3.3661-2.2085-2.6635-.9518a2.03,2.03,0,0,0-2.4843-.1065l-.852.6037A2.03,2.03,0,0,0,519.2915,70.4638Z"/><path class="cls-4" d="M591.3523,121.0466s-22.0507,11.9881-52.086-3.27c0,0-24.1466-12.0828-19.2283-32.3031"/><path class="cls-4" d="M594.7517,119.3049s6.8877-2.906,7.5665-4.3266"/><path class="cls-4" d="M601.658,110.8317a5.6941,5.6941,0,0,0,2.8988,4.6022"/><path class="cls-4" d="M525.496,98.3863s.2926,3.9815,6.87,8.9971"/></g></g></svg>
