<svg xmlns="http://www.w3.org/2000/svg" viewBox="0 0 640.501 134.921">
    <g data-name="Layer 2">
        <g data-name="Layer 3">
            <path stroke-miterlimit="10" stroke="#877169" fill="none" d="M.501 131.645h640"/>
            <path fill="#d09b86" d="M.501 131.812h640v3.11h-640z"/>
            <path d="M270.833 104.772c-12.403-.975-21.243 8.04-20.399 16.094.53 5.05 3.865 9.23 8.589 9.23h70.143c4.724 0 8.986-4.034 8.654-10.034-.231-4.181-5.045-14.75-26.736-14.965-27.323-.27-30.22.464-40.251-.325z" stroke-width="2" stroke="#3a3939" fill="#b77a32" stroke-miterlimit="10"/>
            <path d="M282.023 105.957s-8.276 2.322-8.776 7.447M297.06 105.213s-8.865 2.894-9.365 8.019M312.982 105.499s-8.25 2.322-8.75 7.447" stroke-linejoin="round" stroke-linecap="round" stroke-width="2" stroke="#3a3939" fill="none"/>
            <path d="M228.53 50.018s-.34-4.74-7.17-7.544c-.67-.275-4.58-2.22-4.58-2.22a7.24 7.24 0 0 0 3.026 7.855c3.09 2.221 5.778 2.897 8.724 1.909z" fill="#34b743" stroke-linejoin="round" stroke-linecap="round" stroke-width="2" stroke="#3a3939"/>
            <path d="M226.014 61.535s5.355-17.178 4.479-21.281c0 0 4.76.896 6.227 2.307s-.805 2.174-1.748 4.368-5.793 13.562-6.02 15.094z" fill="#93603e" stroke-linejoin="round" stroke-linecap="round" stroke-width="2" stroke="#3a3939"/>
            <path d="M249.608 89.792c-3.314-12.795-7.81-18.741-11.872-24.379-1.777-2.466-5.354-6.547-11.722-6.547s-9.568 4.08-11.345 6.547c-4.059 5.635-8.924 11.575-12.243 24.364-1.362 3.526-2.127 13.12-2.127 17.21 0 15.965 11.513 23.198 25.715 23.198s25.715-7.233 25.715-23.198c0-4.084-.762-13.673-2.12-17.195z" fill="#1d4921" stroke-linejoin="round" stroke-linecap="round" stroke-width="2" stroke="#3a3939"/>
            <path d="M279.452 89.792c-3.315-12.795-7.81-18.741-11.873-24.379-1.777-2.466-5.354-6.547-11.721-6.547s-9.569 4.08-11.345 6.547c-4.06 5.635-8.924 11.575-12.243 24.364-1.363 3.526-2.127 13.12-2.127 17.21 0 15.965 11.513 23.198 25.715 23.198s25.715-7.233 25.715-23.198c0-4.084-.762-13.673-2.121-17.195z" fill="#bad362" stroke-linejoin="round" stroke-linecap="round" stroke-width="2" stroke="#3a3939"/>
            <circle cx="255.857" cy="103.804" r="10.295" fill="#93603e" stroke-width="2" stroke="#3a3939" stroke-miterlimit="10"/>
            <path d="M261.952 106.716a.978.978 0 0 1-.278-.039 1 1 0 0 1-.683-1.238 5.203 5.203 0 0 0-.268-4.24 5.518 5.518 0 0 0-3.224-2.197 1 1 0 1 1 .394-1.961 7.463 7.463 0 0 1 4.54 3.119 7.1 7.1 0 0 1 .48 5.834 1 1 0 0 1-.961.722z" fill="#3a3939"/>
            <circle cx="255.857" cy="103.804" r="10.295" stroke-linejoin="round" stroke-linecap="round" stroke-width="2" stroke="#3a3939" fill="none"/>
            <path d="M83.626 130.136H98.05a4.272 4.272 0 0 0 4.272-4.272l-.043-54.63c.037-5.497-2.786-10.229-6.15-14.576a29.283 29.283 0 0 1-3.554-7.087l-3.127-30.353c-.28-2.428-.28-2.428 3.036-2.751h0v-2.909a1.845 1.845 0 0 0-1.845-1.845H76.613a1.845 1.845 0 0 0-1.845 1.845v2.909h0c2.507.032 3.316.323 3.036 2.75l-3.127 30.354a28.911 28.911 0 0 1-3.376 7.087c-3.315 4.385-6.186 9.079-6.15 14.575l-.04 54.631a4.272 4.272 0 0 0 4.272 4.272h14.243z" fill="#604225" stroke-linejoin="round" stroke-linecap="round" stroke-width="2" stroke="#3a3939"/>
            <rect x="65.14" y="87.138" width="37.175" height="29.453" rx="1.968" ry="1.968" fill="#f7f6e8" stroke-linejoin="round" stroke-linecap="round" stroke-width="2" stroke="#3a3939"/>
            <path fill="#f7f6e8" stroke-linejoin="round" stroke-linecap="round" stroke-width="2" stroke="#3a3939" d="M90.119 25.726l-13.81 7.997-1.07 10.389 15.796-9.495-.916-8.891z"/>
            <path d="M93.099 61.44a13.949 13.949 0 0 1 4.191 10.068" stroke-linejoin="round" stroke-linecap="round" stroke-width="2" stroke="#3a3939" fill="none"/>
            <path d="M184.11 61.383c-.04-6.81-5.163-13.08-11.14-16.345V5.35h-13.02l-.01 4.147v4.09h.01v31.29c-5.496 3.42-11.121 9.404-11.121 15.877v66.386a3.046 3.046 0 0 0 3.045 3.045h29.576a3.045 3.045 0 0 0 3.045-3.063z" fill="#0d4c32" stroke-linejoin="round" stroke-linecap="round" stroke-width="2" stroke="#3a3939"/>
            <path fill="#f7f6e8" stroke-linejoin="round" stroke-linecap="round" stroke-width="2" stroke="#3a3939" d="M160.801 16.818h11.889v19.364h-11.889zM149.704 70.937h34.082v40.056h-34.082z"/>
            <path d="M178.907 61.025a1 1 0 0 1-1-1c0-3.547-4.368-7.325-4.412-7.364a1 1 0 0 1 1.298-1.521c.21.18 5.114 4.412 5.114 8.884a1 1 0 0 1-1 1z" fill="#3a3939"/>
            <path d="M159 5.35h14.908V2.472A1.472 1.472 0 0 0 172.436 1h-11.965A1.472 1.472 0 0 0 159 2.471z" fill="#771c1c" stroke-linejoin="round" stroke-linecap="round" stroke-width="2" stroke="#3a3939"/>
            <path d="M233.484 82.297a6.004 6.004 0 0 0-7.177-5.913l-.024-.037c0-.027.008-.052.008-.079a5.388 5.388 0 0 0-4.426-5.297q-.972-.958-2.021-1.835a5.633 5.633 0 0 0-7.675-5.048 5.033 5.033 0 0 0-4.418-2.647c-.386 0-.477.06-.477-.895a4.716 4.716 0 1 0-9.431 0c0 .506-1.857-1.393-3.228-1.393a5.856 5.856 0 0 0-5.424 3.658c-.712.21-1.416.44-2.107.698a5.357 5.357 0 0 0-8.35 1.88 5.051 5.051 0 0 0-6.116 7.664h-.013a9.749 9.749 0 0 0-8.693 14.184 5.17 5.17 0 0 0 1.616 8.671 33.123 33.123 0 1 0 65.392-8.689 6.013 6.013 0 0 0 2.564-4.921zM172.876 76.415l2.59 1.796M220.646 83.181l2.591 1.796M203.855 76.668l-.644 3.086M180.979 84.977l1.674 2.671M190.504 67.64l1.674 2.671M161.337 80.59l2.539 1.868M213.938 61.636l-1.155 2.933M218.258 73.33l-.645 3.085M211.237 87.115l1.546 2.747M192.696 80.59l-2.693-1.423M202.427 65.126l2.857 1.33" fill="#f7f6e8" stroke-linejoin="round" stroke-linecap="round" stroke-width="2" stroke="#3a3939"/>
            <path d="M237.898 94.134a3.163 3.163 0 0 0-3.169-3.398H162.28a3.163 3.163 0 0 0-3.168 3.398 39.544 39.544 0 0 0 20.548 31.364 1.94 1.94 0 0 1 1.03 1.701v2.073a1.001 1.001 0 0 0 1 1.001h33.63a1 1 0 0 0 1.001-1v-2.074a1.94 1.94 0 0 1 1.03-1.701 39.544 39.544 0 0 0 20.547-31.364z" fill="#a4b3ea" stroke-width="2" stroke="#3a3939" stroke-miterlimit="10"/>
            <path d="M230.242 100.67s-2.985 10.333-11.149 16.262" stroke-linejoin="round" stroke-linecap="round" stroke-width="2" stroke="#3a3939" fill="none"/>
            <path d="M566.371 113.749v-33.96a4.265 4.265 0 0 0-4.265-4.266H478.75a4.265 4.265 0 0 0-4.265 4.265v46.194a4.265 4.265 0 0 0 4.265 4.265h83.356a4.265 4.265 0 0 0 4.266-4.265z" fill="#c68463" stroke-width="2" stroke="#3a3939" stroke-miterlimit="10"/>
            <rect x="546.32" y="75.996" width="13.67" height="19.223" rx="1.61" ry="1.61" transform="rotate(90 553.155 85.607)" stroke-width="1.95" fill="#c68463" stroke="#3a3939" stroke-miterlimit="10"/>
            <rect x="546.32" y="93.19" width="13.67" height="19.223" rx="1.61" ry="1.61" transform="rotate(90 553.155 102.801)" stroke-width="1.95" fill="#c68463" stroke="#3a3939" stroke-miterlimit="10"/>
            <rect x="546.32" y="110.383" width="13.67" height="19.223" rx="1.61" ry="1.61" transform="rotate(90 553.155 119.995)" stroke-width="1.95" fill="#c68463" stroke="#3a3939" stroke-miterlimit="10"/>
            <rect x="524.511" y="75.996" width="13.67" height="19.223" rx="1.61" ry="1.61" transform="rotate(90 531.345 85.607)" stroke-width="1.95" fill="#c68463" stroke="#3a3939" stroke-miterlimit="10"/>
            <rect x="524.511" y="93.19" width="13.67" height="19.223" rx="1.61" ry="1.61" transform="rotate(90 531.345 102.801)" stroke-width="1.95" fill="#c68463" stroke="#3a3939" stroke-miterlimit="10"/>
            <rect x="524.511" y="110.383" width="13.67" height="19.223" rx="1.61" ry="1.61" transform="rotate(90 531.345 119.995)" stroke-width="1.95" fill="#c68463" stroke="#3a3939" stroke-miterlimit="10"/>
            <rect x="502.701" y="75.996" width="13.67" height="19.223" rx="1.61" ry="1.61" transform="rotate(90 509.536 85.607)" stroke-width="1.95" fill="#c68463" stroke="#3a3939" stroke-miterlimit="10"/>
            <rect x="502.701" y="93.19" width="13.67" height="19.223" rx="1.61" ry="1.61" transform="rotate(90 509.536 102.801)" stroke-width="1.95" fill="#c68463" stroke="#3a3939" stroke-miterlimit="10"/>
            <rect x="502.701" y="110.383" width="13.67" height="19.223" rx="1.61" ry="1.61" transform="rotate(90 509.536 119.995)" stroke-width="1.95" fill="#c68463" stroke="#3a3939" stroke-miterlimit="10"/>
            <rect x="480.891" y="75.996" width="13.67" height="19.223" rx="1.61" ry="1.61" transform="rotate(90 487.726 85.607)" stroke-width="1.95" fill="#c68463" stroke="#3a3939" stroke-miterlimit="10"/>
            <rect x="480.891" y="93.19" width="13.67" height="19.223" rx="1.61" ry="1.61" transform="rotate(90 487.726 102.801)" stroke-width="1.95" fill="#c68463" stroke="#3a3939" stroke-miterlimit="10"/>
            <rect x="480.891" y="110.383" width="13.67" height="19.223" rx="1.61" ry="1.61" transform="rotate(90 487.726 119.995)" stroke-width="1.95" fill="#c68463" stroke="#3a3939" stroke-miterlimit="10"/>
            <rect x="525.924" y="77.369" width="10.887" height="16.477" rx="1.625" ry="1.625" transform="rotate(90 531.368 85.607)" stroke-width="1.3" fill="#c68463" stroke="#3a3939" stroke-miterlimit="10"/>
            <rect x="525.924" y="94.562" width="10.887" height="16.477" rx="1.625" ry="1.625" transform="rotate(90 531.368 102.801)" stroke-width="1.3" fill="#c68463" stroke="#3a3939" stroke-miterlimit="10"/>
            <rect x="525.924" y="111.756" width="10.887" height="16.477" rx="1.625" ry="1.625" transform="rotate(90 531.368 119.995)" stroke-width="1.3" fill="#c68463" stroke="#3a3939" stroke-miterlimit="10"/>
            <path stroke-width="1.95" fill="#c68463" stroke-linejoin="round" stroke-linecap="round" stroke="#3a3939" d="M535.265 122.822l-7.795-5.654M535.265 105.712l-7.795-5.654M535.265 88.435l-7.795-5.655"/>
            <rect x="547.712" y="77.369" width="10.887" height="16.477" rx="1.625" ry="1.625" transform="rotate(90 553.155 85.607)" stroke-width="1.3" fill="#c68463" stroke="#3a3939" stroke-miterlimit="10"/>
            <rect x="547.712" y="94.562" width="10.887" height="16.477" rx="1.625" ry="1.625" transform="rotate(90 553.155 102.801)" stroke-width="1.3" fill="#c68463" stroke="#3a3939" stroke-miterlimit="10"/>
            <rect x="547.712" y="111.756" width="10.887" height="16.477" rx="1.625" ry="1.625" transform="rotate(90 553.155 119.995)" stroke-width="1.3" fill="#c68463" stroke="#3a3939" stroke-miterlimit="10"/>
            <path stroke-width="1.95" fill="#c68463" stroke-linejoin="round" stroke-linecap="round" stroke="#3a3939" d="M557.053 122.822l-7.795-5.654M557.053 105.712l-7.795-5.654M557.053 88.435l-7.795-5.655"/>
            <rect x="504.092" y="77.369" width="10.887" height="16.477" rx="1.625" ry="1.625" transform="rotate(90 509.536 85.607)" stroke-width="1.3" fill="#c68463" stroke="#3a3939" stroke-miterlimit="10"/>
            <rect x="504.092" y="94.562" width="10.887" height="16.477" rx="1.625" ry="1.625" transform="rotate(90 509.536 102.801)" stroke-width="1.3" fill="#c68463" stroke="#3a3939" stroke-miterlimit="10"/>
            <rect x="504.092" y="111.756" width="10.887" height="16.477" rx="1.625" ry="1.625" transform="rotate(90 509.536 119.995)" stroke-width="1.3" fill="#c68463" stroke="#3a3939" stroke-miterlimit="10"/>
            <path stroke-width="1.95" fill="#c68463" stroke-linejoin="round" stroke-linecap="round" stroke="#3a3939" d="M513.433 122.822l-7.795-5.654M513.433 105.712l-7.795-5.654M513.433 88.435l-7.795-5.655"/>
            <rect x="482.283" y="77.369" width="10.887" height="16.477" rx="1.625" ry="1.625" transform="rotate(90 487.726 85.607)" stroke-width="1.3" fill="#c68463" stroke="#3a3939" stroke-miterlimit="10"/>
            <rect x="482.283" y="94.562" width="10.887" height="16.477" rx="1.625" ry="1.625" transform="rotate(90 487.726 102.801)" stroke-width="1.3" fill="#c68463" stroke="#3a3939" stroke-miterlimit="10"/>
            <rect x="482.283" y="111.756" width="10.887" height="16.477" rx="1.625" ry="1.625" transform="rotate(90 487.726 119.995)" stroke-width="1.3" fill="#c68463" stroke="#3a3939" stroke-miterlimit="10"/>
            <path stroke-width="1.95" fill="#c68463" stroke-linejoin="round" stroke-linecap="round" stroke="#3a3939" d="M491.624 122.822l-7.795-5.654M491.624 105.712l-7.795-5.654M491.624 88.435l-7.795-5.655"/>
            <path d="M48.549 120.239a12.799 12.799 0 0 0 6.186-.967s1.73-.647.999 2.126l-1.118 6.705s-1.143 4.223 3.084.887 7.036-6.994 6.847-11.076l-.494-1.208s-8.718-3.034-9.341-3.385-9.47 5.547-6.163 6.918z" fill="#ff917b" stroke-linejoin="round" stroke-linecap="round" stroke-width="2" stroke="#3a3939"/>
            <path d="M53.712 112.612s11.436 7.357 14.899 3.315.781-6.826.781-6.826l-14.957.125a2.318 2.318 0 0 0-.723 3.386z" fill="#ff917b" stroke-linejoin="round" stroke-linecap="round" stroke-width="2" stroke="#3a3939"/>
            <path d="M53.25 102.293s-3.838 3.912.514 7.098c0 0 15.57.946 17.352-.921s-.967-8.013-.967-8.013-1.305-3.002-2.202-3.109-14.697 4.945-14.697 4.945z" fill="#ff917b" stroke-linejoin="round" stroke-linecap="round" stroke-width="2" stroke="#3a3939"/>
            <path d="M13.638 65.762s-2.44 14.705 6.432 17.444" stroke-linejoin="round" stroke-linecap="round" stroke-width="2" stroke="#3a3939" fill="none"/>
            <path d="M61.242 86.206c.136-.459 11.92 4.44 6.778 10.275s-7.532 8.606-9.25 8.8-5.54 1.194-8.158-3.226a32.494 32.494 0 0 0 10.63-15.85z" fill="#ff917b" stroke-linejoin="round" stroke-linecap="round" stroke-width="2" stroke="#3a3939"/>
            <path d="M1 88.112a21.314 21.314 0 0 0 21.192-1.726" stroke-linejoin="round" stroke-linecap="round" stroke-width="2" stroke="#3a3939" fill="none"/>
            <path d="M45.688 78.682s16.399-1.412 15.445 5.074-6.492 18.672-11.799 18.081-14.502-5.806-14.395-7.765 14.813.06 10.75-15.39z" fill="#ff917b" stroke-linejoin="round" stroke-linecap="round" stroke-width="2" stroke="#3a3939"/>
            <path d="M21.29 82.259s14.123-9.302 22.98-4.65c7.446 3.912-2.25 17.293-9.332 16.463-10.306-1.208-12.72-4.85-13.647-11.813z" fill="#ff917b" stroke-linejoin="round" stroke-linecap="round" stroke-width="2" stroke="#3a3939"/>
            <circle cx="36.473" cy="84.324" r="1.411" fill="#3a3939"/>
            <path d="M592.432 62.486v59.621a8.057 8.057 0 0 1-8.054 8.059h-32.774a8.058 8.058 0 0 1-8.059-8.059v-59.62a17.986 17.986 0 0 1 1.258-6.62l6.391-16.17a13.543 13.543 0 0 1 6.05.784c4.573 1.877 6.84-.102 9.536-.834s4.602-1.525 7.931-.73c3.037.72 6.86 2.061 10.272 1.291l6.191 15.659a17.988 17.988 0 0 1 1.258 6.62z" fill="#f7f7f5"/>
            <path d="M581.57 33.031l3.413 7.176c-3.413.77-7.235-.57-10.272-1.292-3.33-.794-5.236 0-7.932.732s-4.962 2.71-9.535.833a13.543 13.543 0 0 0-6.05-.784l3.232-6.665a2.36 2.36 0 0 0 .239-.98c.049-1.496.02-5.206.02-5.206a1.161 1.161 0 0 0-.366-.741 1.14 1.14 0 0 0-.77-.297 1.141 1.141 0 0 1-1.136-1.141V22.71a2.26 2.26 0 0 1 2.262-2.257h26.627a2.26 2.26 0 0 1 2.262 2.257v2.047a1.106 1.106 0 0 1-1.185 1.049 1.12 1.12 0 0 0-1.082 1.038s-.02 3.768.034 5.24a2.442 2.442 0 0 0 .239.946z" fill="#d2f1f9"/>
            <path d="M584.983 40.207l-3.413-7.176a2.442 2.442 0 0 1-.239-.945c-.053-1.473-.034-5.241-.034-5.241a1.12 1.12 0 0 1 1.082-1.038 1.106 1.106 0 0 0 1.185-1.048V22.71a2.26 2.26 0 0 0-2.262-2.257h-26.627a2.26 2.26 0 0 0-2.262 2.257v1.955a1.141 1.141 0 0 0 1.136 1.14 1.14 1.14 0 0 1 .77.298 1.161 1.161 0 0 1 .365.741s.03 3.71-.02 5.206a2.36 2.36 0 0 1-.238.98l-3.232 6.665" stroke-linejoin="round" stroke-linecap="round" stroke-width="2" stroke="#3a3939" fill="none"/>
            <path d="M551.194 39.696l-6.391 16.17a17.986 17.986 0 0 0-1.258 6.62v59.62a8.058 8.058 0 0 0 8.058 8.06h32.775a8.057 8.057 0 0 0 8.054-8.06v-59.62a17.988 17.988 0 0 0-1.258-6.62l-6.191-15.658c-3.413.77-7.235-.57-10.272-1.292-3.33-.795-5.236 0-7.932.73s-4.962 2.71-9.535.835a13.543 13.543 0 0 0-6.05-.785z" stroke-linejoin="round" stroke-linecap="round" stroke-width="2" stroke="#3a3939" fill="none"/>
            <rect x="552.216" y="20.453" width="31.544" height="6.124" rx="1.126" ry="1.126" fill="#bcb8b8" stroke-linejoin="round" stroke-linecap="round" stroke-width="2" stroke="#3a3939"/>
            <path d="M577.576 30.859v2.005a2.798 2.798 0 0 0 .342 1.342l1.248 2.282" stroke-linejoin="round" stroke-linecap="round" stroke-width="2" stroke="#3a3939" fill="none"/>
            <path d="M129.628 70.693a54.149 54.149 0 0 0-22.351 3.218c-15.293 5.85-25.497 16.482-25.869 31.463-.276 11.14 19.258 22.95 32.535 24.11 16.703 1.461 33.766-4.285 33.766-4.285s21.87-22.897 13.417-35.337-11.264-11.995-31.498-19.169z" fill="#d0610c"/>
            <path d="M97.991 78.119s23.771-18.09 54.617 2.199c21.077 13.863 4.993 39.748-8.882 45.61a55.284 55.284 0 0 1-55.462-7.697c-3.478-2.688-7.123-8.78-6.76-16.232.354-7.246 9.176-19.92 16.487-23.88z" stroke-linejoin="round" stroke-linecap="round" stroke-width="2" stroke="#3a3939" fill="none"/>
            <path d="M103.054 95.177l-10.447-6.353a5.769 5.769 0 0 0-.207-6.706c-3.268-3.83-6.67-.232-7.102.955a8.71 8.71 0 0 0-.473 3.316l-1.575.877c-5.376 2.686-2.202 8.06 1.22 8.846a3.913 3.913 0 0 0 4.617-2.303l12.96 7.756z" fill="#fff7d7"/>
            <path d="M102.046 101.565L89.087 93.81a3.913 3.913 0 0 1-4.617 2.303c-3.422-.786-6.596-6.16-1.22-8.846l1.575-.877a8.71 8.71 0 0 1 .473-3.316c.432-1.187 3.835-4.785 7.102-.955a5.769 5.769 0 0 1 .207 6.706l9.963 6.06" stroke-linecap="round" stroke-width="2" stroke="#3a3939" stroke-miterlimit="10" fill="none"/>
            <path d="M143.726 125.928s-41.368 7.757-41.693-22.924 36.997-7.086 38.384 1.57" stroke-linecap="round" stroke-width="2" stroke="#3a3939" stroke-miterlimit="10" fill="none"/>
            <path d="M119.677 62.107s5.532-2.195 2.21-8.026c-3.372-5.92-5.168-4.39-.343-9.956a1.378 1.378 0 0 0-.021-1.526M128.995 57.593s5.532-2.194 2.21-8.025c-3.373-5.92-5.169-4.39-.344-9.956a1.378 1.378 0 0 0-.02-1.526" stroke-linejoin="round" stroke-linecap="round" stroke-width="2" stroke="#3a3939" fill="none"/>
            <path d="M114.817 95.876s8.132-.686 13.89 5.11" stroke-linecap="round" stroke-width="2" stroke="#3a3939" stroke-miterlimit="10" fill="none"/>
            <path d="M580.552 87.51v39.584a3.072 3.072 0 0 0 3.071 3.071h30.39a3.072 3.072 0 0 0 3.072-3.071V87.456a3.072 3.072 0 0 0-.768-2.033l-5.845-6.623a3.071 3.071 0 0 0-2.303-1.04h-18.275a3.072 3.072 0 0 0-2.24.97l-6.27 6.677a3.072 3.072 0 0 0-.832 2.103z" fill="#e2e2e2" stroke-width="2" stroke="#3a3939" stroke-miterlimit="10"/>
            <path fill="#f4f2f2" d="M625.31 90.839v12.755h13.678V91.312l-6.927-4.09-6.751 3.617z"/>
            <path d="M617.085 108.179c-18.135-7.367-36.533.312-36.533.312l-.224 18.058a3.572 3.572 0 0 0 3.571 3.617h29.614a3.572 3.572 0 0 0 3.572-3.572z" fill="#8e8080" stroke-linejoin="round" stroke-linecap="round" stroke-width="2" stroke="#3a3939"/>
            <path d="M632.041 86.294l-6.098 3.882a1.932 1.932 0 0 0-.895 1.63v10.225a1.932 1.932 0 0 0 1.932 1.932h10.076a1.932 1.932 0 0 0 1.932-1.932V91.75a1.932 1.932 0 0 0-.9-1.633l-5.147-3.254a1.932 1.932 0 0 1-.9-1.634V73.902a15.54 15.54 0 0 0-15.54-15.54h-2.143a15.54 15.54 0 0 0-15.54 15.54v2.968M590.853 81.086h4.838M602.366 81.086h4.838M635.32 92.727l-6.518 6.518" stroke-linejoin="round" stroke-linecap="round" stroke-width="2" stroke="#3a3939" fill="none"/>
            <ellipse cx="454.238" cy="106.931" rx="14.205" ry="20.991" fill="#fff7d7" stroke-linejoin="round" stroke-linecap="round" stroke-width="2" stroke="#3a3939"/>
            <ellipse cx="496.617" cy="106.931" rx="14.205" ry="20.991" fill="#fff7d7" stroke-linejoin="round" stroke-linecap="round" stroke-width="2" stroke="#3a3939"/>
            <path d="M520.704 111.308a1.221 1.221 0 0 0-1.222-1.222h-88.48a1.221 1.221 0 0 0-1.221 1.222v5.07a1.221 1.221 0 0 0 1.221 1.221h6.916a1.221 1.221 0 0 1 1.084.658l4.583 8.815a5.662 5.662 0 0 0 5.023 3.05h12.557a4.44 4.44 0 0 0 4.106-2.752l3.646-9.007a1.221 1.221 0 0 1 1.132-.763h10.387a1.221 1.221 0 0 1 1.132.763l3.645 9.007a4.44 4.44 0 0 0 4.106 2.752h12.557a5.662 5.662 0 0 0 5.023-3.05l4.584-8.815a1.221 1.221 0 0 1 1.083-.658h6.916a1.221 1.221 0 0 0 1.222-1.221z" fill="#73bca4" stroke-width="2" stroke="#3a3939" stroke-miterlimit="10"/>
            <path d="M496.617 89.547s4.592-.475 8.217 7.258M454.238 89.547s4.591-.475 8.216 7.258" stroke-linejoin="round" stroke-linecap="round" stroke-width="2" stroke="#3a3939" fill="none"/>
            <path d="M520.095 78.035c.856 2.953 1.64.827-.057 7.439s-5.062 12.603 1.528 23.69 18.988 16.177 23.738 17.62 29.407 10.897 55.054-6.615l2.013-1.543s3.302-2.736 2.994-3.792-1.494-3.53-3.707-4.003-25.686 6.024-41.472.58-23.63-14.69-29.086-25.638c-3.696-7.416-4.412-8.962-4.412-8.962l-.637-6.931-7.907 3.06s1.518 3.6 1.951 5.095z" fill="#ffce43" stroke-linejoin="round" stroke-linecap="round" stroke-width="2" stroke="#3a3939"/>
            <path d="M519.292 70.464l-1.148 2.477 2.706-.222a3.93 3.93 0 0 0 1.835-.63l3.366-2.21-2.663-.95a2.03 2.03 0 0 0-2.484-.107l-.852.603a2.03 2.03 0 0 0-.76 1.039z" fill="#d29b6e" stroke-linejoin="round" stroke-linecap="round" stroke-width="2" stroke="#3a3939"/>
            <path d="M591.352 121.047s-22.05 11.988-52.086-3.27c0 0-24.146-12.083-19.228-32.303M594.752 119.305s6.887-2.906 7.566-4.327M601.658 110.832a5.694 5.694 0 0 0 2.899 4.602M525.496 98.386s.293 3.982 6.87 8.997" stroke-linejoin="round" stroke-linecap="round" stroke-width="2" stroke="#3a3939" fill="none"/>
        </g>
    </g>
</svg>
