<svg height="15" viewBox="0 0 467 15" width="467" xmlns="http://www.w3.org/2000/svg"><g fill="none" fill-rule="evenodd"><path d="m0 1h465" fill-rule="nonzero" stroke="#fbf5f0" stroke-linecap="round" stroke-linejoin="round" stroke-width="2" transform="translate(1 13)"/><g transform="translate(205)"><g stroke="#3a3939"><path d="m.8958 14.0001h161v-11h63v11h20" stroke-linecap="round" stroke-linejoin="round" stroke-width="2"/><path d="m161.5267 9.8702h63.5" stroke-width=".5"/><path d="m161.5267 12.8702h63.5" stroke-width=".5"/><path d="m161.5267 6.8702h63.5" stroke-width=".5"/><path d="m168.4114 3.3663v9.5"/><path d="m173.4114 3.3663v9.5"/><path d="m178.4114 3.3663v9.5"/><path d="m183.4114 3.3663v9.5"/><path d="m188.4114 3.3663v9.5"/><path d="m193.4114 3.3663v9.5" stroke-width="2"/><path d="m198.4114 3.3663v9.5"/><path d="m203.4114 3.3663v9.5"/><path d="m208.4114 3.3663v9.5"/><path d="m213.4114 3.3663v9.5"/><path d="m218.4114 3.3663v9.5"/></g><g fill="#3a3939" transform="translate(160)"><path d="m3.8235 12.9894h-2.965v-11.914c0-.369.3-.669.669-.669h1.627c.369 0 .669.3.669.669z"/><path d="m65.9642 12.9894h-2.964v-11.914c0-.369.299-.669.669-.669h1.626c.37 0 .669.3.669.669z"/></g></g></g></svg>