<svg height="53" viewBox="0 0 462 53" width="462" xmlns="http://www.w3.org/2000/svg"><g fill="none" fill-rule="evenodd" transform="translate(1)"><g fill-rule="nonzero" stroke-linecap="round" stroke-linejoin="round"><path d="m0 52h460" stroke="#fbf5f0" stroke-width="2"/><path d="m0 52h245" stroke="#fbf5f0" stroke-width="1.5"/><path d="m28 52h82.965704 9.677082 2.322918v-5" stroke="#3a3939" stroke-width="2"/><path d="m216.599165-35.5991651v168.1983301 2h-5" stroke="#3a3939" stroke-width="2" transform="matrix(0 1 -1 0 263.599165 -164.599165)"/></g><g transform="translate(124)"><path d="m11 6.10853731c-.6571171-.73814925-1.56396396-1.10853731-2.58558559-1.10853731h-.36324324c-2.23369369 0-4.05117117 1.89265672-4.05117117 4.21743284v35.84226866 3.9402985" stroke="#3a3939" stroke-linecap="round" stroke-width="2"/><path d="m0 49v-39.83210959c0-4.50279452 3.62183236-8.16789041 8.07277453-8.16789041h.374269c1.41038253 0 3.13066747.53972939 4.52966367 1.50739394" stroke="#3a3939" stroke-linecap="round" stroke-width="2"/><g transform="translate(11 2)"><path d="m9.96875 2.9128c-2.2-2.13333333-5.797-2.13333333-7.995625 0-2.2 2.13333333-2.2 5.62133333 0 7.7533333l1.247125 1.212"/><path d="m9.645625 1.6c-2.2-2.13333333-5.797-2.13333333-7.995625 0-2.2 2.13333333-2.2 5.62133333 0 7.75333333l.77391231 1.00053337" stroke="#3a3939" stroke-width="2"/></g><g transform="translate(36 9)"><path d="m.375 1 1.5 1" fill="#010101"/><path d="m.375 1 1.5 1" stroke="#3a3939" stroke-linecap="round" stroke-width="1.5" transform="matrix(.98480775 .17364818 -.17364818 .98480775 .277564 -.172566)"/></g><g transform="matrix(.99862953 -.05233596 .05233596 .99862953 40.007272 13.530192)"><path d="m.33333333 0 2.66666667 3" fill="#010101"/><path d="m.33333333 0 2.66666667 3" stroke="#3a3939" stroke-linecap="round" stroke-width="1.5"/></g><g transform="matrix(.99939083 -.0348995 .0348995 .99939083 45.609297 19.183761)"><path d="m.33333333 0 2.66666667 3" fill="#010101"/><path d="m.33333333 0 2.66666667 3" stroke="#3a3939" stroke-linecap="round" stroke-width="1.5"/></g><path d="m0 0 2.13146258 2.51684058" stroke="#3a3939" stroke-linecap="round" stroke-width="1.5" transform="matrix(.99939083 -.0348995 .0348995 .99939083 32.91397 15.071322)"/><g transform="translate(38 21)"><path d="m1 1 2 2" fill="#010101"/><path d="m.03865276.03421418 2 2.25" stroke="#3a3939" stroke-linecap="round" stroke-width="1.5" transform="matrix(.99939083 -.0348995 .0348995 .99939083 -.039823 .036955)"/></g><g transform="translate(25 17)"><path d="m.8364.4614 1.038 1.038" fill="#010101"/><path d="m2 1 1.038 1.038" stroke="#3a3939" stroke-linecap="round" stroke-width="1.5"/></g><g transform="translate(31 22)"><path d="m.375 1 2.25 2.25" fill="#010101"/><path d="m0 0 2.25 2.25" stroke="#3a3939" stroke-linecap="round" stroke-width="1.5"/></g><g transform="translate(37 28)"><path d="m.03125.65625 1.5 1.5" fill="#010101"/><path d="m0 0 1.5 1.5" stroke="#3a3939" stroke-linecap="round" stroke-width="1.5"/></g><g transform="translate(23 23)"><path d="m.33333333 0 2.66666667 3" fill="#010101"/><path d="m.33333333 0 2.66666667 3" stroke="#3a3939" stroke-linecap="round" stroke-width="1.5"/></g><g transform="translate(29 29)"><path d="m.33333333 0 2.66666667 3" fill="#010101"/><path d="m.33333333 0 1.33333334 1.5" stroke="#3a3939" stroke-linecap="round" stroke-width="1.5"/></g><g transform="translate(33 33)"><path d="m2.33333333 1 2.66666667 3" fill="#010101"/><path d="m.5.5 3 3" stroke="#3a3939" stroke-linecap="round" stroke-width="1.5"/></g><g transform="translate(19 27)"><path d="m.9126.0279 1.1595 1.284" fill="#010101"/><path d="m.9126.0279 1.1595 1.284" stroke="#3a3939" stroke-linecap="round" stroke-width="1.5"/></g><g transform="translate(23 31)"><path d="m.36853333.21825 2.52666667 2.62625" fill="#010101"/><path d="m.36853333.21825 2.52666667 2.62625" stroke="#3a3939" stroke-linecap="round" stroke-width="1.5"/></g><g transform="translate(29 37)"><path d="m.0996.2622 1.4205 1.575" fill="#010101"/><path d="m.0996.2622 1.4205 1.575" stroke="#3a3939" stroke-linecap="round" stroke-width="1.5"/></g><path d="m37.51226 7.85846295c-5.7651729-5.99772792-14.9280109-6.51314728-20.4707334-1.15172317-5.5427226 5.36009572-5.3613196 14.56723902.4025293 20.56363852z" stroke="#3a3939" stroke-linecap="round" stroke-linejoin="round" stroke-width="2" transform="matrix(.9998477 -.01745241 .01745241 .9998477 -.260299 .443085)"/></g></g></svg>